<svg width="26" height="26" viewBox="0 0 26 26" fill="none" xmlns="http://www.w3.org/2000/svg">
<path d="M13 18.3333H14.3333C15.2222 18.3333 17 17.8 17 15.6667C17 13.5333 15.2222 13 14.3333 13H11.6667C10.7778 13 9 12.4667 9 10.3333C9 8.2 10.7778 7.66667 11.6667 7.66667H13M13 18.3333H9M13 18.3333V21M17 7.66667H13M13 7.66667V5M25 13C25 19.6274 19.6274 25 13 25C6.37258 25 1 19.6274 1 13C1 6.37258 6.37258 1 13 1C19.6274 1 25 6.37258 25 13Z" stroke="#2B5496" stroke-width="2" stroke-linecap="round" stroke-linejoin="round"/>
</svg>
