<svg width="32" height="32" viewBox="0 0 32 32" fill="none" xmlns="http://www.w3.org/2000/svg">
<path d="M26.6667 14.6261L15.9504 24.7329C14.6376 25.9711 12.857 26.6667 11.0004 26.6667C9.14376 26.6667 7.36319 25.9711 6.05036 24.7329C4.73754 23.4948 4 21.8155 4 20.0644C4 18.3134 4.73754 16.6341 6.05036 15.396L16.7666 5.28917C17.6419 4.46373 18.8289 4 20.0666 4C21.3044 4 22.4914 4.46373 23.3667 5.28917C24.2419 6.1146 24.7336 7.23414 24.7336 8.40148C24.7336 9.56883 24.2419 10.6884 23.3667 11.5138L12.6387 21.6206C12.2011 22.0333 11.6076 22.2652 10.9887 22.2652C10.3698 22.2652 9.77632 22.0333 9.33871 21.6206C8.9011 21.2079 8.65526 20.6481 8.65526 20.0644C8.65526 19.4808 8.9011 18.921 9.33871 18.5083L19.2387 9.18231" stroke="#2B5496" stroke-width="2" stroke-linecap="round" stroke-linejoin="round"/>
</svg>
