<svg width="20" height="20" viewBox="0 0 20 20" fill="none" xmlns="http://www.w3.org/2000/svg">
<path d="M13.5062 14.7437C13.8479 15.0854 14.402 15.0854 14.7437 14.7437C15.0853 14.402 15.0853 13.8479 14.7437 13.5062L11.2375 9.99997L14.7436 6.49379C15.0853 6.15207 15.0853 5.59804 14.7436 5.25631C14.402 4.91459 13.8479 4.91459 13.5062 5.25631L10 8.76256L6.49379 5.2563C6.15206 4.91457 5.59803 4.91457 5.25631 5.2563C4.91458 5.59802 4.91458 6.15205 5.25631 6.49378L8.76247 9.99997L5.2563 13.5062C4.91457 13.8479 4.91457 14.402 5.2563 14.7437C5.59802 15.0854 6.15205 15.0854 6.49378 14.7437L10 11.2375L13.5062 14.7437Z" fill="white"/>
</svg>
