<svg width="26" height="26" viewBox="0 0 26 26" fill="none" xmlns="http://www.w3.org/2000/svg">
<g opacity="0.5">
<rect x="1" y="25" width="24" height="24" rx="12" transform="rotate(-90 1 25)" fill="white"/>
<path d="M13.0002 16C12.8115 16 12.6229 15.928 12.4791 15.7842L7.95323 11.2583C7.66533 10.9704 7.66533 10.5036 7.95323 10.2158C8.24102 9.92805 8.70771 9.92805 8.99564 10.2158L13.0002 14.2206L17.0047 10.216C17.2926 9.92819 17.7593 9.92819 18.047 10.216C18.3351 10.5038 18.3351 10.9706 18.047 11.2585L13.5213 15.7844C13.3774 15.9281 13.1887 16 13.0002 16Z" fill="black"/>
<rect x="1" y="25" width="24" height="24" rx="12" transform="rotate(-90 1 25)" stroke="#EBEEF2"/>
</g>
</svg>
