<svg width="24" height="25" viewBox="0 0 24 25" fill="none" xmlns="http://www.w3.org/2000/svg">
<path d="M7.28934 5.56789C10.424 5.29541 13.5764 5.2954 16.711 5.56789L18.2213 5.69917C19.2266 5.78657 20.0877 6.38624 20.5339 7.24402C20.5909 7.35375 20.5481 7.48661 20.443 7.55172L14.177 11.4307C12.8332 12.2626 11.1386 12.28 9.77788 11.476L3.47005 7.74861C3.36814 7.68839 3.32136 7.56443 3.36729 7.45533C3.77545 6.48576 4.69308 5.79358 5.77911 5.69918L7.28934 5.56789Z" fill="white"/>
<path d="M3.3623 9.42713C3.20633 9.33497 3.00733 9.43415 2.98915 9.61439C2.73542 12.13 2.79683 14.6694 3.17338 17.1735C3.3719 18.4936 4.44931 19.5057 5.77925 19.6213L7.28948 19.7526C10.4241 20.0251 13.5765 20.0251 16.7111 19.7526L18.2214 19.6213C19.5513 19.5057 20.6287 18.4936 20.8272 17.1735C21.2148 14.5965 21.2685 11.9819 20.9885 9.39453C20.9688 9.21301 20.7665 9.11566 20.6112 9.21176L14.9667 12.706C13.1485 13.8315 10.8559 13.8551 9.01492 12.7673L3.3623 9.42713Z" fill="white"/>
</svg>
