<svg width="40" height="40" viewBox="0 0 40 40" fill="none" xmlns="http://www.w3.org/2000/svg">
<g clip-path="url(#clip0_159_24009)">
<g clip-path="url(#clip1_159_24009)">
<g filter="url(#filter0_dddd_159_24009)">
<path d="M40 20.0264C40 8.98067 31.0457 0.0263672 20 0.0263672C8.9543 0.0263672 0 8.98067 0 20.0264C0 31.0721 8.9543 40.0264 20 40.0264C31.0457 40.0264 40 31.0721 40 20.0264Z" fill="white"/>
<path d="M27.5 13.7764H12.5C12.1685 13.7764 11.8505 13.9081 11.6161 14.1425C11.3817 14.3769 11.25 14.6948 11.25 15.0264V25.0264C11.25 25.3579 11.3817 25.6758 11.6161 25.9103C11.8505 26.1447 12.1685 26.2764 12.5 26.2764H27.5C27.8315 26.2764 28.1495 26.1447 28.3839 25.9103C28.6183 25.6758 28.75 25.3579 28.75 25.0264V15.0264C28.75 14.6948 28.6183 14.3769 28.3839 14.1425C28.1495 13.9081 27.8315 13.7764 27.5 13.7764ZM26.125 15.0264L20 19.2639L13.875 15.0264H26.125ZM12.5 25.0264V15.5951L19.6438 20.5389C19.7484 20.6114 19.8727 20.6503 20 20.6503C20.1273 20.6503 20.2516 20.6114 20.3562 20.5389L27.5 15.5951V25.0264H12.5Z" fill="#0F51AA"/>
</g>
</g>
</g>
<defs>
<filter id="filter0_dddd_159_24009" x="-25.4814" y="-1.26992" width="90.9628" height="105.296" filterUnits="userSpaceOnUse" color-interpolation-filters="sRGB">
<feFlood flood-opacity="0" result="BackgroundImageFix"/>
<feColorMatrix in="SourceAlpha" type="matrix" values="0 0 0 0 0 0 0 0 0 0 0 0 0 0 0 0 0 0 127 0" result="hardAlpha"/>
<feOffset dy="1.85185"/>
<feGaussianBlur stdDeviation="1.57407"/>
<feColorMatrix type="matrix" values="0 0 0 0 0 0 0 0 0 0 0 0 0 0 0 0 0 0 0.01 0"/>
<feBlend mode="normal" in2="BackgroundImageFix" result="effect1_dropShadow_159_24009"/>
<feColorMatrix in="SourceAlpha" type="matrix" values="0 0 0 0 0 0 0 0 0 0 0 0 0 0 0 0 0 0 127 0" result="hardAlpha"/>
<feOffset dy="8.14815"/>
<feGaussianBlur stdDeviation="3.25926"/>
<feColorMatrix type="matrix" values="0 0 0 0 0 0 0 0 0 0 0 0 0 0 0 0 0 0 0.0117778 0"/>
<feBlend mode="normal" in2="effect1_dropShadow_159_24009" result="effect2_dropShadow_159_24009"/>
<feColorMatrix in="SourceAlpha" type="matrix" values="0 0 0 0 0 0 0 0 0 0 0 0 0 0 0 0 0 0 127 0" result="hardAlpha"/>
<feOffset dy="20"/>
<feGaussianBlur stdDeviation="6.5"/>
<feColorMatrix type="matrix" values="0 0 0 0 0 0 0 0 0 0 0 0 0 0 0 0 0 0 0.015 0"/>
<feBlend mode="normal" in2="effect2_dropShadow_159_24009" result="effect3_dropShadow_159_24009"/>
<feColorMatrix in="SourceAlpha" type="matrix" values="0 0 0 0 0 0 0 0 0 0 0 0 0 0 0 0 0 0 127 0" result="hardAlpha"/>
<feOffset dy="38.5185"/>
<feGaussianBlur stdDeviation="12.7407"/>
<feColorMatrix type="matrix" values="0 0 0 0 0 0 0 0 0 0 0 0 0 0 0 0 0 0 0.0182222 0"/>
<feBlend mode="normal" in2="effect3_dropShadow_159_24009" result="effect4_dropShadow_159_24009"/>
<feBlend mode="normal" in="SourceGraphic" in2="effect4_dropShadow_159_24009" result="shape"/>
</filter>
<clipPath id="clip0_159_24009">
<rect width="40" height="40" fill="white"/>
</clipPath>
<clipPath id="clip1_159_24009">
<rect width="92" height="107" fill="white" transform="translate(-26 -2)"/>
</clipPath>
</defs>
</svg>
