<svg width="32" height="32" viewBox="0 0 32 32" fill="none" xmlns="http://www.w3.org/2000/svg">
<path d="M19.581 15.3499L8.51196 13.3999V27.8089C8.51209 27.9654 8.54306 28.1204 8.60308 28.265C8.66311 28.4096 8.75102 28.5409 8.8618 28.6515C8.97258 28.7621 9.10406 28.8498 9.24873 28.9095C9.3934 28.9693 9.54843 29 9.70496 28.9999H28.805C28.9617 29.0003 29.1169 28.9698 29.2618 28.9101C29.4067 28.8505 29.5384 28.7628 29.6494 28.6522C29.7604 28.5416 29.8485 28.4101 29.9087 28.2654C29.9688 28.1207 29.9998 27.9656 30 27.8089V22.4999L19.581 15.3499Z" fill="#185C37"/>
<path d="M19.581 3H9.70496C9.54843 2.99987 9.3934 3.03057 9.24873 3.09035C9.10406 3.15014 8.97258 3.23783 8.8618 3.34842C8.75102 3.45902 8.66311 3.59035 8.60308 3.73492C8.54306 3.87949 8.51209 4.03446 8.51196 4.191V9.5L19.581 16L25.442 17.95L30 16V9.5L19.581 3Z" fill="#21A366"/>
<path d="M8.51196 9.5H19.581V16H8.51196V9.5Z" fill="#107C41"/>
<path opacity="0.1" d="M16.434 8.19995H8.51196V24.45H16.434C16.7496 24.4484 17.052 24.3225 17.2755 24.0996C17.4989 23.8766 17.6256 23.5746 17.628 23.259V9.39095C17.6256 9.07529 17.4989 8.77327 17.2755 8.55034C17.052 8.32741 16.7496 8.20152 16.434 8.19995Z" fill="black"/>
<path opacity="0.2" d="M15.783 8.8501H8.51196V25.1001H15.783C16.0986 25.0985 16.401 24.9726 16.6245 24.7497C16.8479 24.5268 16.9746 24.2248 16.977 23.9091V10.0411C16.9746 9.72544 16.8479 9.42342 16.6245 9.20049C16.401 8.97756 16.0986 8.85167 15.783 8.8501Z" fill="black"/>
<path opacity="0.2" d="M15.783 8.8501H8.51196V23.8001H15.783C16.0986 23.7985 16.401 23.6726 16.6245 23.4497C16.8479 23.2268 16.9746 22.9248 16.977 22.6091V10.0411C16.9746 9.72544 16.8479 9.42342 16.6245 9.20049C16.401 8.97756 16.0986 8.85167 15.783 8.8501Z" fill="black"/>
<path opacity="0.2" d="M15.132 8.8501H8.51196V23.8001H15.132C15.4476 23.7985 15.75 23.6726 15.9735 23.4497C16.1969 23.2268 16.3236 22.9248 16.326 22.6091V10.0411C16.3236 9.72544 16.1969 9.42342 15.9735 9.20049C15.75 8.97756 15.4476 8.85167 15.132 8.8501Z" fill="black"/>
<path d="M3.194 8.8501H15.132C15.4482 8.84983 15.7516 8.97513 15.9755 9.19846C16.1994 9.42179 16.3255 9.72487 16.326 10.0411V21.9591C16.3255 22.2753 16.1994 22.5784 15.9755 22.8017C15.7516 23.0251 15.4482 23.1504 15.132 23.1501H3.194C3.03738 23.1504 2.88224 23.1198 2.73746 23.06C2.59267 23.0003 2.46108 22.9126 2.35019 22.802C2.2393 22.6914 2.1513 22.56 2.09121 22.4154C2.03113 22.2708 2.00013 22.1157 2 21.9591V10.0411C2.00013 9.88448 2.03113 9.72942 2.09121 9.58479C2.1513 9.44015 2.2393 9.30877 2.35019 9.19817C2.46108 9.08756 2.59267 8.99989 2.73746 8.94016C2.88224 8.88044 3.03738 8.84984 3.194 8.8501Z" fill="url(#paint0_linear_1415_41636)"/>
<path d="M5.69995 19.873L8.21095 15.989L5.91095 12.127H7.75795L9.01295 14.6C9.12895 14.834 9.21295 15.008 9.25095 15.124H9.26795C9.34995 14.936 9.43695 14.755 9.52795 14.578L10.87 12.131H12.57L10.211 15.971L12.63 19.876H10.821L9.37095 17.165C9.30363 17.0484 9.24642 16.9263 9.19995 16.8H9.17595C9.13367 16.923 9.0773 17.0408 9.00795 17.151L7.51495 19.873H5.69995Z" fill="white"/>
<path d="M28.8061 3H19.5811V9.5H30.0001V4.191C29.9999 4.03438 29.9689 3.87932 29.9088 3.73469C29.8488 3.59005 29.7608 3.45868 29.6499 3.34807C29.539 3.23746 29.4074 3.14979 29.2626 3.09007C29.1178 3.03034 28.9627 2.99974 28.8061 3Z" fill="#33C481"/>
<path d="M19.5811 16H30.0001V22.5H19.5811V16Z" fill="#107C41"/>
<defs>
<linearGradient id="paint0_linear_1415_41636" x1="4.494" y1="7.9141" x2="13.832" y2="24.0861" gradientUnits="userSpaceOnUse">
<stop stop-color="#18884F"/>
<stop offset="0.5" stop-color="#117E43"/>
<stop offset="1" stop-color="#0B6631"/>
</linearGradient>
</defs>
</svg>
