<svg width="10" height="16" viewBox="0 0 10 16" fill="none" xmlns="http://www.w3.org/2000/svg">
<path d="M8.78446 0.212197L6.78536 0.208984C4.53944 0.208984 3.08802 1.70065 3.08802 4.00939V5.76163H1.07801C0.904323 5.76163 0.763672 5.90268 0.763672 6.07667V8.61547C0.763672 8.78946 0.904483 8.93035 1.07801 8.93035H3.08802V15.3365C3.08802 15.5105 3.22867 15.6514 3.40236 15.6514H6.02485C6.19854 15.6514 6.33919 15.5104 6.33919 15.3365V8.93035H8.68936C8.86305 8.93035 9.0037 8.78946 9.0037 8.61547L9.00466 6.07667C9.00466 5.99313 8.97146 5.91313 8.91261 5.85401C8.85375 5.79489 8.77356 5.76163 8.69016 5.76163H6.33919V4.27623C6.33919 3.56229 6.50903 3.19986 7.43745 3.19986L8.78414 3.19938C8.95767 3.19938 9.09832 3.05832 9.09832 2.8845V0.527077C9.09832 0.353411 8.95783 0.212519 8.78446 0.212197Z" fill="white" fill-opacity="0.7"/>
</svg>
