<?xml version="1.0" encoding="utf-8"?>
<!-- Generator: Adobe Illustrator 16.0.0, SVG Export Plug-In . SVG Version: 6.00 Build 0)  -->
<!DOCTYPE svg PUBLIC "-//W3C//DTD SVG 1.1//EN" "http://www.w3.org/Graphics/SVG/1.1/DTD/svg11.dtd">
<svg version="1.1" id="Layer_1" xmlns="http://www.w3.org/2000/svg" xmlns:xlink="http://www.w3.org/1999/xlink" x="0px" y="0px"
	 width="16.646px" height="16.027px" viewBox="0 0 16.646 16.027" enable-background="new 0 0 16.646 16.027" xml:space="preserve">
<g>
	<path fill-rule="evenodd" clip-rule="evenodd" fill="#FFFFFF" d="M10.821,16.026c0.942,0,1.798,0.003,2.653-0.001
		c0.983-0.005,1.286-0.301,1.292-1.289c0.008-1.534-0.003-3.066,0.004-4.6c0.004-0.856,0.188-0.998,1.006-1.179
		c0.321-0.071,0.72-0.344,0.836-0.626c0.102-0.248-0.04-0.754-0.253-0.946c-2.249-2.013-4.531-3.987-6.811-5.965
		c-0.42-0.366-0.877-0.365-1.3,0.003C5.992,3.391,3.731,5.355,1.503,7.354C1.284,7.552,1.135,8.023,1.21,8.297
		c0.075,0.271,0.452,0.605,0.734,0.646c0.777,0.113,0.977,0.541,0.968,1.238c-0.02,1.558-0.001,3.115-0.009,4.672
		C2.9,15.419,3.093,15.938,3.671,15.98c1.086,0.081,2.182,0.023,3.341,0.023c0-1.465,0.026-2.851-0.011-4.235
		c-0.019-0.67,0.249-0.904,0.888-0.875c0.621,0.03,1.245,0.005,1.868,0.007c1.027,0.002,1.062,0.036,1.063,1.042
		C10.822,13.277,10.821,14.612,10.821,16.026z"/>
	<path opacity="0.8" fill-rule="evenodd" clip-rule="evenodd" fill="#FFFFFF" d="M10.821,16.026c0-1.414,0.001-2.749,0-4.083
		c-0.001-1.005-0.037-1.039-1.063-1.042C9.134,10.9,8.51,10.924,7.889,10.895c-0.639-0.03-0.907,0.204-0.888,0.875
		c0.037,1.384,0.011,2.77,0.011,4.235c-1.159,0-2.255,0.058-3.341-0.023c-0.579-0.042-0.771-0.561-0.768-1.127
		c0.008-1.557-0.011-3.114,0.009-4.672c0.009-0.697-0.19-1.125-0.968-1.238C1.662,8.903,1.285,8.569,1.21,8.297
		C1.135,8.023,1.284,7.552,1.503,7.354c2.228-2,4.489-3.963,6.745-5.932c0.422-0.368,0.879-0.369,1.3-0.003
		c2.28,1.978,4.562,3.953,6.811,5.965c0.214,0.192,0.355,0.699,0.253,0.946c-0.116,0.282-0.515,0.555-0.836,0.626
		c-0.819,0.181-1.002,0.323-1.006,1.179c-0.007,1.534,0.003,3.066-0.004,4.6c-0.005,0.987-0.309,1.284-1.292,1.289
		C12.619,16.029,11.763,16.026,10.821,16.026z"/>
</g>
</svg>
