<svg width="24" height="24" viewBox="0 0 24 24" fill="none" xmlns="http://www.w3.org/2000/svg">
<circle cx="12" cy="12" r="12" fill="#0F51AA" fill-opacity="0.2"/>
<path fill-rule="evenodd" clip-rule="evenodd" d="M13.6933 17.6409C13.544 17.5548 13.452 17.3954 13.4521 17.223V13.316C12.3271 13.0886 11.5182 12.0999 11.5182 10.9522C11.5182 9.80444 12.3271 8.81573 13.4521 8.58837V7.57541C13.4521 7.40281 13.5442 7.24332 13.6937 7.15703C13.8431 7.07073 14.0273 7.07073 14.1768 7.15703C14.3263 7.24332 14.4183 7.40281 14.4183 7.57541V8.58837C15.5426 8.81657 16.3505 9.80501 16.3505 10.9522C16.3505 12.0993 15.5426 13.0878 14.4183 13.316V17.223C14.418 17.3954 14.3259 17.5546 14.1765 17.6408C14.0271 17.7269 13.8432 17.727 13.6938 17.6409H13.6933ZM12.9101 9.92912C12.42 10.418 12.3437 11.1851 12.7277 11.761C13.1118 12.337 13.8492 12.5613 14.489 12.2969C15.1287 12.0324 15.4925 11.3528 15.3577 10.6738C15.223 9.99477 14.6273 9.50555 13.9351 9.5054C13.5515 9.50548 13.1836 9.65771 12.9121 9.9287L12.9101 9.92912ZM8.86365 17.6409C8.71406 17.5549 8.62188 17.3955 8.622 17.223V16.21C7.49678 15.9831 6.6875 14.9943 6.6875 13.8464C6.6875 12.6985 7.49678 11.7098 8.622 11.4828V7.57539C8.62203 7.40279 8.71409 7.24331 8.86358 7.15701C9.01304 7.07071 9.19721 7.07071 9.34667 7.15701C9.49616 7.24331 9.58822 7.40279 9.58822 7.57539V11.4828C10.7134 11.7098 11.5227 12.6985 11.5227 13.8464C11.5227 14.9943 10.7134 15.9831 9.58822 16.21V17.223C9.58792 17.3954 9.49578 17.5546 9.34642 17.6407C9.19706 17.7269 9.01312 17.727 8.8637 17.6409H8.86365ZM8.08023 12.8236C7.59145 13.3119 7.51568 14.0775 7.89924 14.6522C8.2828 15.2268 9.01889 15.4506 9.65733 15.1865C10.2958 14.9225 10.6589 14.2442 10.5245 13.5665C10.3901 12.8888 9.79571 12.4003 9.10478 12.3999C8.72145 12.4 8.35385 12.5522 8.08273 12.8232L8.08023 12.8236Z" fill="#0F51AA"/>
</svg>
