<svg width="79" height="66" viewBox="0 0 79 66" fill="none" xmlns="http://www.w3.org/2000/svg">
<path d="M17.9425 64.8235C12.6578 64.8235 8.43008 62.8857 5.25927 59.0103C2.20589 55.0174 0.679199 50.3199 0.679199 44.9178C0.679199 40.4552 1.50126 36.2861 3.14539 32.4107C4.78952 28.5352 6.84468 25.0121 9.31087 21.8413C11.8945 18.6705 14.5956 15.9107 17.4141 13.5619C20.35 11.0958 23.0511 9.0406 25.5173 7.39647C27.9834 5.6349 29.9799 4.34309 31.5066 3.52103C33.1507 2.69896 33.914 2.28793 33.7966 2.28793L37.8482 7.74878C36.7913 8.21853 35.382 9.15803 33.6205 10.5673C31.8589 11.8591 30.0973 13.4445 28.3358 15.3235C26.6916 17.2025 25.2237 19.2577 23.9319 21.489C22.64 23.6029 21.9941 25.658 21.9941 27.6545C21.9941 28.8288 22.6988 30.0032 24.108 31.1776C25.5173 32.2345 27.0439 33.5263 28.6881 35.053C30.3322 36.4623 31.8589 38.2238 33.2681 40.3377C34.6774 42.3342 35.382 44.8004 35.382 47.7363C35.382 50.3199 34.8535 52.6687 33.7966 54.7826C32.8571 56.8964 31.5653 58.7167 29.9212 60.2434C28.3945 61.6527 26.5742 62.7683 24.4603 63.5904C22.3464 64.4124 20.1738 64.8235 17.9425 64.8235ZM61.277 65.1758C58.576 65.1758 56.1098 64.5886 53.8784 63.4142C51.6471 62.2398 49.7094 60.6544 48.0653 58.658C46.4212 56.6616 45.1293 54.3715 44.1898 51.7879C43.3678 49.0868 42.9567 46.2096 42.9567 43.1562C42.9567 37.0495 44.2486 31.4125 46.8322 26.2452C49.5333 20.9605 52.4692 16.4392 55.64 12.6812C59.398 8.21853 63.6845 4.16693 68.4994 0.526367L73.608 5.28259C72.551 5.98722 71.2592 7.10287 69.7325 8.62956C68.3233 10.1563 66.9727 11.9765 65.6809 14.0904C64.5066 16.0869 63.4496 18.2007 62.5101 20.432C61.688 22.6634 61.277 24.836 61.277 26.9498C61.277 28.3591 62.1578 29.5335 63.9194 30.473C65.6809 31.4125 67.6187 32.5868 69.7325 33.9961C71.8464 35.4053 73.7841 37.2256 75.5457 39.4569C77.3073 41.5708 78.188 44.5655 78.188 48.4409C78.188 50.7897 77.7183 52.9623 76.7788 54.9587C75.8393 56.9552 74.5475 58.7167 72.9033 60.2434C71.3767 61.7701 69.5564 63.0032 67.4425 63.9427C65.4461 64.7648 63.3909 65.1758 61.277 65.1758Z" fill="#0F51AA" fill-opacity="0.1"/>
</svg>
