<svg width="32" height="32" viewBox="0 0 32 32" fill="none" xmlns="http://www.w3.org/2000/svg">
<path d="M18.4299 25.1035C17.9835 24.5376 17.4017 24.1622 16.6978 23.9961C15.4993 23.7136 14.6133 23.05 14.0032 22.007C13.6425 21.3915 13.266 20.7841 12.8812 20.1824C12.4424 19.496 12.3701 18.7877 12.6684 18.0321C12.8804 17.4955 13.0732 16.9516 13.2785 16.402C13.1896 16.3483 13.1231 16.3027 13.0508 16.266C12.0434 15.7458 11.0336 15.232 10.0312 14.7036C9.85504 14.6108 9.72704 14.6116 9.55001 14.7044C8.23516 15.3924 6.91531 16.0698 5.59381 16.7448C5.04277 17.0265 4.46513 16.8515 4.28062 16.332C4.21579 16.1496 4.21246 15.929 4.24405 15.7352C4.40446 14.7443 4.58647 13.7567 4.76018 12.7682C4.83581 12.3391 4.89067 11.9051 4.99041 11.4809C5.04277 11.2578 4.96963 11.1316 4.81504 10.9851C3.76365 9.99012 2.72224 8.98457 1.67418 7.98635C1.3866 7.71196 1.2237 7.40908 1.35751 7.00686C1.49548 6.59406 1.81713 6.43284 2.22439 6.37585C3.69965 6.17067 5.17575 5.96874 6.64852 5.74646C6.7682 5.72855 6.90783 5.59176 6.96768 5.47452C7.6384 4.17178 8.295 2.86254 8.95326 1.55329C9.14109 1.18038 9.427 0.972756 9.86584 1.00288C10.2523 1.02894 10.4767 1.25529 10.638 1.57771C11.2804 2.86091 11.9337 4.14003 12.5704 5.42648C12.6826 5.65283 12.8189 5.74239 13.0798 5.77659C14.526 5.96304 15.9689 6.17718 17.4117 6.38399C17.7982 6.43936 18.0932 6.61848 18.2237 6.99872C18.3559 7.38302 18.2196 7.69242 17.9387 7.9603C16.869 8.98132 15.801 10.0031 14.7305 11.0225C14.649 11.0999 14.551 11.1593 14.4587 11.2285C15.0945 12.2691 15.6996 13.2584 16.3113 14.2582C16.9737 13.3243 17.5671 13.1281 18.6393 13.4676C18.9709 12.5085 19.8885 11.9426 21.0604 12.3945C21.2765 11.7504 21.6929 11.3083 22.3944 11.1805C23.0859 11.0551 23.676 11.2749 24.0433 11.8433C24.8412 13.0768 25.6067 14.3315 26.3481 15.5984C26.7803 16.3361 26.8418 17.1584 26.7204 17.993C26.629 18.6207 26.7046 19.2249 26.9615 19.8087C27.0296 19.9626 27.1052 20.0521 27.3047 20.0301C27.6347 19.9927 27.8865 20.1466 28.0552 20.421C28.8008 21.6276 29.5496 22.8318 30.2843 24.045C30.5644 24.5067 30.4281 24.9276 29.9228 25.2272C28.0187 26.3565 26.112 27.4818 24.2062 28.6078C23.3552 29.111 22.5049 29.615 21.6522 30.1149C21.0587 30.4634 20.6523 30.3665 20.2966 29.7901C19.6167 28.6876 18.9393 27.5836 18.2611 26.4795C17.8896 25.8729 17.9187 25.6205 18.4299 25.1035ZM13.9126 16.6886C13.6766 17.3156 13.4563 17.8733 13.2577 18.4384C13.1089 18.8617 13.1455 19.2835 13.3807 19.6711C13.8461 20.4381 14.3124 21.2059 14.7995 21.9606C15.2325 22.6307 15.855 23.0671 16.6404 23.2682C17.3519 23.4506 18.0093 23.7332 18.5512 24.2331C18.7307 24.3992 18.8936 24.5824 19.0715 24.7656C21.5375 23.309 23.9993 21.8548 26.4744 20.3933C26.0256 19.5774 25.8644 18.7486 26.0298 17.8652C26.1528 17.2065 26.0954 16.5518 25.758 15.9721C25.0241 14.7125 24.2553 13.4725 23.4815 12.2357C23.2671 11.8929 22.9055 11.7798 22.5033 11.853C22.111 11.9247 21.8699 12.1673 21.7561 12.5427C21.6688 12.8301 21.7453 13.0825 21.894 13.3259C22.2672 13.935 22.6429 14.5424 23.0152 15.1514C23.1291 15.3378 23.1482 15.5341 22.9438 15.6611C22.7302 15.7938 22.5481 15.7083 22.4226 15.5023C22.3744 15.4242 22.3262 15.346 22.278 15.2678C21.899 14.6507 21.525 14.0302 21.1402 13.4171C20.8268 12.9188 20.2459 12.7698 19.7721 13.054C19.31 13.3316 19.1795 13.8918 19.4704 14.3877C19.6616 14.7133 19.8644 15.0317 20.0622 15.3533C20.3024 15.745 20.5434 16.135 20.7803 16.5282C20.8925 16.7147 20.8643 16.8922 20.6731 17.0021C20.4869 17.1088 20.3124 17.0591 20.1902 16.8767C20.1337 16.792 20.0822 16.7041 20.0281 16.617C19.5843 15.8956 19.1471 15.1709 18.6958 14.4544C18.4299 14.0327 17.9544 13.8796 17.5115 14.0465C17.0643 14.2151 16.8216 14.6417 16.9197 15.1278C16.9488 15.2719 17.0252 15.4128 17.1025 15.5414C17.5671 16.3092 18.0384 17.0737 18.5088 17.8383C18.6302 18.0353 18.6169 18.221 18.4116 18.3382C18.2113 18.453 18.0326 18.3871 17.9146 18.1868C17.8888 18.1428 17.8605 18.1005 17.8339 18.0565C17.2621 17.1267 16.6895 16.1977 16.1176 15.2678C15.22 13.8079 14.3249 12.3464 13.4231 10.889C13.1472 10.4428 12.6842 10.2873 12.2213 10.4599C11.7849 10.6228 11.5422 11.0315 11.6395 11.5151C11.6802 11.7171 11.7908 11.9125 11.9013 12.0924C13.3242 14.4153 14.7521 16.7342 16.18 19.0539C16.3105 19.2656 16.426 19.4781 16.1625 19.6678C15.9647 19.8103 15.7785 19.7183 15.5807 19.3975C15.2641 18.8854 14.9491 18.3724 14.6332 17.8603C14.4055 17.4882 14.1769 17.1161 13.9126 16.6886ZM14.1154 10.6627C14.6341 10.1684 15.1377 9.68805 15.6406 9.20767C16.2415 8.63283 16.8449 8.06045 17.4416 7.48154C17.6552 7.27392 17.6054 7.12899 17.3153 7.06304C17.2546 7.0492 17.1923 7.04513 17.1308 7.03617C15.6356 6.82529 14.1404 6.61115 12.6435 6.40679C12.3701 6.36933 12.2071 6.24802 12.085 5.99968C11.4192 4.64891 10.7385 3.30465 10.0537 1.96365C9.99633 1.85047 9.87 1.77068 9.77525 1.67542C9.69047 1.76987 9.57993 1.85129 9.52425 1.95958C8.84521 3.29325 8.16866 4.62855 7.50791 5.97119C7.37659 6.23743 7.20455 6.37259 6.90534 6.41249C5.40847 6.61278 3.91325 6.82448 2.41887 7.04187C2.27924 7.06223 2.15125 7.15505 2.01827 7.21367C2.08642 7.32929 2.13296 7.46689 2.22688 7.55726C3.30486 8.59864 4.38368 9.6392 5.47662 10.6651C5.69604 10.8711 5.77084 11.073 5.71848 11.3645C5.45335 12.8211 5.19985 14.2802 4.95217 15.7401C4.9289 15.876 4.97545 16.0234 4.99041 16.1651C5.13419 16.1325 5.29294 16.1284 5.41927 16.0641C6.77901 15.3729 8.13542 14.6759 9.48685 13.97C9.70377 13.8568 9.88163 13.8584 10.0961 13.9708C11.0261 14.4601 11.9628 14.9364 12.8978 15.4168C12.9784 15.4584 13.0632 15.4925 13.2211 15.5642C12.9427 15.1091 12.7133 14.7353 12.4847 14.3616C12.0276 13.6134 11.5489 12.8757 11.1184 12.1128C10.6596 11.3002 10.9255 10.4257 11.7268 9.95674C12.5354 9.48287 13.4273 9.67746 13.96 10.4436C14.0057 10.5104 14.0523 10.5739 14.1154 10.6627ZM29.7408 24.4985C29.6942 24.4122 29.6685 24.3568 29.6369 24.3055C28.9321 23.1583 28.2223 22.0135 27.525 20.8623C27.4011 20.6571 27.2947 20.7027 27.1293 20.8004C24.3999 22.4158 21.6688 24.0295 18.9335 25.6351C18.7083 25.7679 18.6925 25.8753 18.8263 26.0887C19.5087 27.1781 20.1852 28.2716 20.8435 29.3756C21.0014 29.6402 21.1302 29.6402 21.3754 29.4912C22.3345 28.9083 23.3061 28.3457 24.2727 27.7749C26.0115 26.7482 27.7494 25.7223 29.4864 24.6931C29.5787 24.6386 29.6568 24.5636 29.7408 24.4985Z" fill="#1D1D1D" fill-opacity="0.75" stroke="#0F51AA" stroke-opacity="1" stroke-width="0.5"/>
<path d="M5.11969 24.9959C5.22359 24.3868 5.33413 23.7884 5.4189 23.1867C5.43469 23.0727 5.38233 22.9115 5.30088 22.8293C4.92022 22.4417 4.51961 22.0729 4.12482 21.6991C3.93616 21.5208 3.80318 21.3238 3.89294 21.0527C3.98436 20.7775 4.19048 20.6659 4.47639 20.6317C5.02993 20.5649 5.58347 20.4843 6.13285 20.3883C6.24089 20.3695 6.37055 20.2718 6.42291 20.1749C6.67973 19.7011 6.91744 19.2174 7.15597 18.7338C7.27649 18.4895 7.43357 18.3063 7.73694 18.3047C8.0403 18.3031 8.20237 18.4838 8.32289 18.7273C8.56225 19.2101 8.7958 19.6962 9.05512 20.1692C9.1108 20.271 9.25542 20.3679 9.37344 20.3883C9.9436 20.4876 10.5187 20.5576 11.0906 20.6431C11.3358 20.6797 11.5502 20.8059 11.5693 21.0502C11.5843 21.2391 11.5361 21.4891 11.4139 21.6226C11.0282 22.0452 10.5977 22.4295 10.1772 22.8211C10.0516 22.9375 10.0167 23.0426 10.0525 23.2176C10.1639 23.764 10.242 24.316 10.3376 24.8656C10.3799 25.1074 10.3201 25.3085 10.1165 25.4575C9.89955 25.6171 9.67514 25.5976 9.44658 25.4787C8.95289 25.2222 8.45338 24.9771 7.96633 24.7093C7.8001 24.6181 7.6771 24.6246 7.51502 24.7125C7.00803 24.9869 6.49688 25.254 5.97659 25.5039C5.56684 25.6985 5.11388 25.416 5.11969 24.9959ZM9.61863 24.7931C9.53801 24.3119 9.51141 23.8731 9.38425 23.4643C9.2147 22.918 9.38092 22.5484 9.81561 22.2023C10.1447 21.9401 10.4115 21.6039 10.7315 21.2741C10.1821 21.1976 9.65353 21.1186 9.12327 21.0535C8.83736 21.0185 8.63041 20.9248 8.50324 20.6382C8.27884 20.135 8.01038 19.6498 7.74026 19.1173C7.55575 19.4804 7.397 19.798 7.23327 20.1131C6.6814 21.174 7.0072 20.9305 5.80787 21.121C5.45713 21.1764 5.10556 21.2285 4.78059 21.2782C5.13964 21.6519 5.46212 22.0387 5.83946 22.366C6.14614 22.6314 6.2143 22.9025 6.1262 23.2795C6.01316 23.7632 5.95166 24.2582 5.86023 24.7964C6.41959 24.5098 6.92741 24.2606 7.42277 23.9895C7.64634 23.8666 7.83335 23.8633 8.05776 23.9862C8.55228 24.2582 9.05927 24.5065 9.61863 24.7931Z" fill="#0F51AA" fill-opacity="1"/>
<path d="M27.2192 5.24831C27.1701 5.32566 27.1028 5.48931 26.9864 5.60656C26.5958 5.99901 26.1794 6.36622 25.7938 6.76355C25.7065 6.85393 25.6541 7.0298 25.6716 7.15519C25.7414 7.66651 25.8478 8.17376 25.9334 8.68346C25.9783 8.95133 25.9866 9.21758 25.7223 9.39752C25.4655 9.57176 25.2194 9.50581 24.9659 9.36902C24.5038 9.12069 24.0384 8.87479 23.563 8.65252C23.4466 8.59878 23.2605 8.59634 23.1449 8.65007C22.6504 8.88131 22.17 9.14023 21.6863 9.39263C21.4394 9.52128 21.1943 9.56362 20.9607 9.38123C20.7438 9.21188 20.7031 8.99123 20.7587 8.72498C20.8626 8.22913 20.9341 7.72676 21.0297 7.22928C21.0712 7.01433 21.0388 6.85474 20.8568 6.69597C20.4629 6.35156 20.0988 5.97458 19.7173 5.61633C19.532 5.44209 19.4239 5.24424 19.5004 4.99102C19.5802 4.72803 19.783 4.60345 20.0514 4.56681C20.5634 4.49679 21.0746 4.41944 21.5882 4.35756C21.8292 4.32825 21.9955 4.2509 22.1019 4.00908C22.2972 3.5629 22.5407 3.13788 22.751 2.69739C22.8732 2.44173 23.0302 2.23655 23.3411 2.23248C23.6685 2.22841 23.8281 2.44824 23.9561 2.71042C24.1689 3.14928 24.4124 3.57511 24.6061 4.02292C24.7083 4.26067 24.8712 4.32744 25.0998 4.35675C25.6225 4.4227 26.1462 4.49109 26.6656 4.57659C27.0322 4.63602 27.2291 4.85912 27.2192 5.24831ZM21.4594 8.73801C21.8533 8.5369 22.1999 8.35859 22.549 8.18272C23.5081 7.70071 23.1873 7.70071 24.1448 8.17783C24.4872 8.34882 24.828 8.52306 25.2286 8.72661C25.1197 8.09478 25.0083 7.53949 24.9394 6.97932C24.9202 6.8238 24.9801 6.61374 25.084 6.49893C25.3782 6.17244 25.714 5.88258 26.0323 5.57806C26.1445 5.4714 26.2542 5.3623 26.3938 5.22714C25.7854 5.13676 25.246 5.0358 24.7016 4.9845C24.3891 4.95519 24.2213 4.81678 24.0974 4.55216C23.868 4.06363 23.6154 3.58569 23.3477 3.0532C23.0685 3.60931 22.8125 4.10516 22.5698 4.60671C22.4634 4.82736 22.3196 4.94542 22.0553 4.97392C21.4876 5.0358 20.9241 5.13595 20.3955 5.21493C20.7804 5.61714 21.1452 6.03076 21.5475 6.40774C21.7661 6.61211 21.8085 6.82055 21.7569 7.08842C21.6547 7.6144 21.5658 8.14282 21.4594 8.73801Z" fill="#0F51AA" fill-opacity="1"/>
<path d="M20.9159 26.1282C20.96 26.1641 21.0746 26.2202 21.137 26.3114C21.3207 26.5793 21.4869 26.8594 21.6539 27.1387C21.7678 27.3284 21.7662 27.514 21.5617 27.641C21.3506 27.7721 21.186 27.6777 21.0672 27.4928C20.8868 27.2103 20.704 26.9278 20.5411 26.6363C20.4006 26.3847 20.5668 26.1176 20.9159 26.1282Z" fill="#0F51AA" fill-opacity="1"/>
</svg>
