<svg width="19" height="19" viewBox="0 0 19 19" fill="none" xmlns="http://www.w3.org/2000/svg">
<path d="M11.0491 15.4084C10.7424 15.7187 10.725 15.8701 10.9484 16.234C11.3553 16.8965 11.7617 17.5589 12.1696 18.2204C12.3831 18.5662 12.6264 18.6244 12.983 18.4153C13.4946 18.1148 14.0048 17.8125 14.5154 17.511C15.6589 16.8354 16.8033 16.1603 17.9453 15.4827C18.2485 15.3029 18.3303 15.0504 18.1622 14.7734C17.7214 14.0455 17.2726 13.323 16.8248 12.599C16.723 12.4348 16.5724 12.342 16.3745 12.3645C16.2548 12.3782 16.2094 12.3244 16.1685 12.2316C16.0139 11.8813 15.969 11.5189 16.0239 11.1422C16.0967 10.6415 16.0598 10.1481 15.8005 9.70547C15.3557 8.94533 14.8964 8.19252 14.4177 7.45241C14.1972 7.11143 13.8427 6.97953 13.4283 7.05476C13.0074 7.13146 12.7576 7.39672 12.6279 7.78314C11.9248 7.51201 11.3742 7.85154 11.1753 8.42701C10.532 8.2233 10.1759 8.34152 9.77848 8.90136C9.41146 8.30097 9.04842 7.70742 8.66693 7.08358C8.72229 7.04206 8.78113 7.0064 8.83 6.95999C9.47229 6.34836 10.1136 5.73527 10.7549 5.12266C10.9234 4.96145 11.0057 4.7763 10.9259 4.54572C10.8471 4.31758 10.6706 4.21011 10.4387 4.17689C9.57253 4.05281 8.70733 3.92432 7.83963 3.81245C7.68255 3.79242 7.60077 3.7382 7.53394 3.60239C7.15196 2.83053 6.7605 2.06355 6.37452 1.29316C6.27778 1.0997 6.14314 0.963895 5.91125 0.948262C5.64795 0.930187 5.47641 1.05476 5.36371 1.2785C4.96876 2.06404 4.57431 2.84958 4.17237 3.6317C4.13647 3.70156 4.05269 3.78363 3.98088 3.79487C3.09673 3.92774 2.21108 4.04939 1.32594 4.172C1.08158 4.2062 0.888098 4.30293 0.805817 4.55012C0.72553 4.79145 0.823271 4.97367 0.995812 5.13781C1.62464 5.73673 2.24948 6.34005 2.88031 6.93703C2.97306 7.02496 3.01694 7.10068 2.98553 7.23453C2.92569 7.48905 2.89277 7.74943 2.84739 8.00688C2.74317 8.60044 2.63446 9.19252 2.53772 9.78705C2.51877 9.90332 2.52126 10.0357 2.55966 10.1451C2.67036 10.4568 3.01644 10.5618 3.34756 10.3928C4.14046 9.98783 4.93235 9.5809 5.72126 9.16858C5.82748 9.11289 5.90427 9.1124 6.00999 9.1681C6.61139 9.48515 7.21778 9.7934 7.82168 10.1056C7.86456 10.1275 7.90496 10.1554 7.95832 10.1871C7.83564 10.5169 7.71995 10.8432 7.59229 11.1652C7.41326 11.618 7.45665 12.0435 7.71995 12.4553C7.95084 12.8164 8.17674 13.1808 8.39316 13.5501C8.75919 14.1759 9.29128 14.5741 10.0099 14.7436C10.4322 14.8437 10.7813 15.0689 11.0491 15.4084ZM3.06282 15.344C3.05983 15.596 3.33111 15.766 3.57745 15.6478C3.88913 15.4978 4.19631 15.3376 4.5005 15.173C4.59774 15.1202 4.67155 15.1163 4.77128 15.171C5.06351 15.3317 5.36321 15.4788 5.65942 15.6327C5.79656 15.704 5.9312 15.7162 6.06136 15.62C6.18303 15.5301 6.21944 15.4099 6.194 15.2648C6.13666 14.9356 6.08978 14.6039 6.02296 14.2761C6.00151 14.171 6.02296 14.108 6.09776 14.0381C6.35009 13.8037 6.6084 13.5726 6.83979 13.319C6.91309 13.2389 6.94202 13.089 6.93304 12.9756C6.92157 12.8291 6.79241 12.7533 6.6458 12.7314C6.30222 12.6801 5.95713 12.6381 5.61554 12.5785C5.54473 12.5662 5.45796 12.5081 5.42455 12.447C5.26896 12.1632 5.12883 11.8716 4.98521 11.5819C4.91291 11.4358 4.81517 11.3274 4.63365 11.3283C4.45163 11.3293 4.35688 11.4392 4.28507 11.5858C4.14245 11.876 3.99983 12.1661 3.84524 12.4505C3.81383 12.5081 3.73603 12.5667 3.67121 12.5785C3.34158 12.6366 3.00996 12.6845 2.67735 12.7245C2.5058 12.745 2.38213 12.812 2.32728 12.9771C2.27292 13.1403 2.35321 13.258 2.46641 13.365C2.70328 13.5892 2.94364 13.8105 3.17203 14.043C3.2209 14.0929 3.25282 14.1896 3.24284 14.2575C3.19148 14.6195 3.12466 14.9781 3.06282 15.344ZM16.3226 3.49589C16.3291 3.26238 16.2109 3.12853 15.99 3.09238C15.6778 3.04157 15.3641 3.00005 15.0505 2.96048C14.9133 2.94338 14.8156 2.90283 14.7543 2.76018C14.6386 2.49198 14.492 2.23649 14.3643 1.97269C14.288 1.81538 14.1923 1.68348 13.9953 1.68593C13.8088 1.68837 13.7145 1.81148 13.6412 1.96487C13.5151 2.22916 13.3684 2.48417 13.2518 2.75188C13.1879 2.89746 13.0882 2.94387 12.9436 2.96096C12.6359 2.99809 12.3287 3.0445 12.0215 3.08651C11.8604 3.1085 11.7388 3.18324 11.6909 3.34103C11.645 3.49247 11.7099 3.61118 11.8211 3.71622C12.0499 3.93116 12.2684 4.15735 12.5047 4.36399C12.6139 4.45925 12.6334 4.555 12.6085 4.68397C12.5511 4.98246 12.5082 5.28387 12.4459 5.58138C12.4125 5.74113 12.4369 5.87352 12.5671 5.97513C12.7072 6.08456 12.8548 6.05916 13.0024 5.98197C13.2926 5.83004 13.5809 5.67518 13.8776 5.53644C13.9469 5.5042 14.0586 5.50517 14.1284 5.53791C14.4142 5.67078 14.6929 5.81832 14.9702 5.9678C15.1223 6.04939 15.2699 6.08944 15.424 5.9849C15.5826 5.87694 15.5781 5.71719 15.5506 5.55647C15.4993 5.25066 15.4355 4.94631 15.3936 4.63952C15.3831 4.56429 15.4145 4.45877 15.4669 4.40454C15.6983 4.16663 15.9481 3.94582 16.1825 3.71035C16.2523 3.64049 16.2932 3.54279 16.3226 3.49589ZM17.1314 10.4309C17.0965 10.0264 16.9988 9.63561 16.8038 9.2785C16.5874 8.88182 16.3435 8.49882 16.1102 8.11094C16.0388 7.99223 15.9501 7.89843 15.794 7.97855C15.6703 8.04206 15.6574 8.1637 15.7551 8.32442C15.9426 8.63268 16.1351 8.93849 16.3211 9.24821C16.5445 9.62047 16.6752 10.0235 16.718 10.4534C16.7365 10.642 16.8123 10.7328 16.9539 10.7152C17.1305 10.6937 17.1469 10.5706 17.1314 10.4309ZM2.11584 3.39526C2.55766 3.33175 3.04287 3.26629 3.52609 3.18617C3.5979 3.17445 3.68018 3.10361 3.71758 3.03815C3.84125 2.82076 3.94647 2.59311 4.05917 2.36985C4.11902 2.25163 4.12051 2.13732 3.99235 2.06942C3.85771 1.99858 3.75399 2.05574 3.68816 2.18471C3.60239 2.35325 3.52509 2.52667 3.42835 2.68886C3.39444 2.74553 3.31964 2.80268 3.25531 2.81343C2.85188 2.88134 2.44646 2.93898 2.04104 2.99467C1.9039 3.01324 1.81364 3.07332 1.82361 3.21451C1.83458 3.35813 1.93482 3.40796 2.11584 3.39526ZM11.4111 18.9463C11.6355 18.9483 11.7238 18.7846 11.6261 18.6214C11.3812 18.2135 11.1299 17.8095 10.8796 17.4045C10.8092 17.2907 10.7055 17.2389 10.5818 17.3103C10.4587 17.3816 10.4512 17.4944 10.5215 17.6102C10.7693 18.0162 11.0172 18.4226 11.2715 18.8247C11.3089 18.8843 11.3827 18.9224 11.4111 18.9463ZM15.6484 7.34983C15.5307 7.18129 15.4379 7.02545 15.3188 6.89208C15.2878 6.8574 15.1502 6.8657 15.1048 6.90381C15.053 6.94728 15.0111 7.06062 15.033 7.11778C15.0844 7.25114 15.1647 7.37914 15.2584 7.48905C15.2968 7.53449 15.41 7.55793 15.4689 7.53693C15.5347 7.51397 15.5776 7.42848 15.6484 7.34983ZM4.04222 1.58822C4.09159 1.62389 4.1634 1.7084 4.25166 1.73087C4.36436 1.7592 4.5384 1.53693 4.5384 1.38011C4.5384 1.2531 4.46709 1.17591 4.33345 1.17005C4.20728 1.16516 4.05169 1.3596 4.04222 1.58822ZM10.317 17.043C10.3709 16.9688 10.4542 16.9004 10.4716 16.8183C10.5006 16.6845 10.3086 16.4632 10.1874 16.4627C10.0513 16.4617 9.97995 16.5418 9.97197 16.6654C9.96399 16.8022 10.1555 17.0127 10.317 17.043Z" fill="#0F51AA"/>
<path d="M11.0491 15.4085C10.7813 15.0689 10.4322 14.8437 10.0099 14.7441C9.29078 14.5745 8.75919 14.1764 8.39316 13.5506C8.17674 13.1813 7.95084 12.8169 7.71995 12.4558C7.45665 12.044 7.41326 11.619 7.59229 11.1657C7.71945 10.8437 7.83514 10.5174 7.95832 10.1876C7.90496 10.1554 7.86506 10.128 7.82168 10.1061C7.21728 9.79389 6.61139 9.48564 6.00999 9.16859C5.90427 9.1129 5.82748 9.11338 5.72126 9.16908C4.93235 9.58187 4.14046 9.98832 3.34756 10.3933C3.01694 10.5623 2.67036 10.4573 2.55966 10.1456C2.52076 10.0362 2.51877 9.90381 2.53772 9.78754C2.63396 9.19301 2.74317 8.60044 2.84739 8.00737C2.89277 7.74992 2.92569 7.48954 2.98553 7.23502C3.01694 7.10117 2.97306 7.02545 2.88031 6.93752C2.24948 6.34054 1.62464 5.73722 0.995812 5.1383C0.823271 4.97367 0.72553 4.79194 0.805817 4.55061C0.888597 4.30293 1.08158 4.2062 1.32594 4.172C2.21108 4.0489 3.09673 3.92774 3.98038 3.79438C4.05219 3.78363 4.13597 3.70156 4.17187 3.63121C4.57431 2.84958 4.96826 2.06404 5.36321 1.2785C5.47591 1.05476 5.64745 0.930187 5.91076 0.948262C6.14264 0.963895 6.27728 1.0997 6.37402 1.29316C6.7595 2.06306 7.15146 2.83053 7.53344 3.60239C7.60077 3.7382 7.68255 3.79194 7.83913 3.81245C8.70683 3.92433 9.57253 4.05281 10.4382 4.17689C10.6701 4.21011 10.8471 4.31758 10.9254 4.54572C11.0047 4.7763 10.9229 4.96194 10.7544 5.12266C10.1126 5.73527 9.4718 6.34836 8.8295 6.95999C8.78063 7.0064 8.72179 7.04206 8.66643 7.08358C9.04792 7.70791 9.41096 8.30146 9.77798 8.90137C10.1754 8.34103 10.5315 8.2233 11.1748 8.42701C11.3737 7.85154 11.9243 7.51202 12.6274 7.78314C12.7571 7.39672 13.0069 7.13146 13.4278 7.05476C13.8427 6.97953 14.1967 7.11143 14.4172 7.45242C14.8959 8.19252 15.3552 8.94533 15.8 9.70547C16.0593 10.1481 16.0962 10.6415 16.0234 11.1422C15.9685 11.5189 16.0139 11.8813 16.168 12.2316C16.2089 12.3239 16.2543 12.3777 16.374 12.3645C16.5719 12.342 16.723 12.4343 16.8243 12.599C17.2716 13.323 17.7209 14.0455 18.1617 14.7734C18.3298 15.0504 18.248 15.3029 17.9448 15.4827C16.8023 16.1603 15.6584 16.8354 14.5149 17.511C14.0043 17.8129 13.4941 18.1153 12.9825 18.4153C12.6264 18.6244 12.3826 18.5662 12.1691 18.2204C11.7612 17.5589 11.3548 16.8965 10.9479 16.234C10.725 15.8701 10.7424 15.7187 11.0491 15.4085ZM8.33881 10.3596C8.19718 10.7358 8.06503 11.0704 7.94585 11.4094C7.85659 11.6635 7.87853 11.9165 8.01965 12.149C8.29891 12.6092 8.57867 13.0699 8.87089 13.5228C9.1307 13.9248 9.50421 14.1867 9.97546 14.3073C10.4023 14.4168 10.7968 14.5863 11.1219 14.8862C11.2296 14.9859 11.3274 15.0958 11.4341 15.2057C12.9137 14.3318 14.3907 13.4593 15.8758 12.5824C15.6065 12.0929 15.5098 11.5956 15.609 11.0655C15.6828 10.6703 15.6484 10.2775 15.4459 9.9297C15.0056 9.17396 14.5443 8.42994 14.0801 7.68788C13.9514 7.48222 13.7345 7.41431 13.4931 7.45828C13.2577 7.50127 13.1131 7.64685 13.0448 7.87205C12.9924 8.0445 13.0383 8.19594 13.1276 8.34201C13.3515 8.70742 13.5769 9.07186 13.8003 9.43727C13.8686 9.54914 13.8801 9.66688 13.7574 9.74309C13.6293 9.82271 13.52 9.77142 13.4447 9.64782C13.4158 9.60093 13.3869 9.55403 13.358 9.50713C13.1306 9.13683 12.9062 8.76458 12.6753 8.39672C12.4873 8.09775 12.1387 8.00835 11.8545 8.17885C11.5772 8.34543 11.4989 8.68153 11.6734 8.97904C11.7881 9.17445 11.9098 9.36546 12.0285 9.55842C12.1726 9.7934 12.3172 10.0274 12.4594 10.2634C12.5267 10.3752 12.5097 10.4817 12.395 10.5477C12.2833 10.6117 12.1786 10.5819 12.1053 10.4724C12.0714 10.4216 12.0405 10.3689 12.0081 10.3166C11.7418 9.88378 11.4795 9.449 11.2087 9.0191C11.0491 8.76605 10.7639 8.6742 10.4981 8.77435C10.2298 8.87547 10.0842 9.13146 10.143 9.42311C10.1605 9.50957 10.2063 9.59409 10.2527 9.67127C10.5315 10.1319 10.8142 10.5907 11.0965 11.0494C11.1693 11.1676 11.1613 11.279 11.0381 11.3493C10.918 11.4182 10.8107 11.3787 10.7399 11.2585C10.7245 11.2321 10.7075 11.2067 10.6916 11.1803C10.3485 10.6224 10.0049 10.065 9.66179 9.50713C9.12322 8.63121 8.58615 7.75432 8.04509 6.87987C7.87953 6.61216 7.60176 6.51885 7.324 6.62242C7.0622 6.72012 6.91658 6.96536 6.97493 7.25554C6.99936 7.3767 7.06569 7.49394 7.13201 7.6019C7.98574 8.99565 8.84247 10.387 9.69919 11.7787C9.77748 11.9058 9.8468 12.0333 9.68872 12.1471C9.57003 12.2326 9.45833 12.1774 9.33965 11.9849C9.14965 11.6776 8.96065 11.3699 8.77116 11.0626C8.63452 10.8393 8.49738 10.6161 8.33881 10.3596ZM8.46048 6.74406C8.77166 6.44753 9.07385 6.1593 9.37555 5.87108C9.73609 5.52618 10.0981 5.18275 10.4562 4.83541C10.5843 4.71084 10.5544 4.62389 10.3804 4.58432C10.344 4.57601 10.3066 4.57357 10.2697 4.56819C9.37256 4.44167 8.47544 4.31319 7.57733 4.19057C7.41326 4.1681 7.31552 4.09531 7.24222 3.94631C6.84278 3.13585 6.43436 2.32931 6.02346 1.52472C5.98905 1.45681 5.91325 1.40894 5.8564 1.35178C5.80553 1.40845 5.73921 1.4573 5.7058 1.52227C5.29838 2.32247 4.89246 3.12364 4.49601 3.92921C4.41722 4.08896 4.314 4.17005 4.13447 4.19399C3.23636 4.31416 2.33924 4.44118 1.44263 4.57161C1.35885 4.58383 1.28205 4.63952 1.20226 4.67469C1.24316 4.74406 1.27108 4.82662 1.32743 4.88085C1.97421 5.50566 2.62149 6.12999 3.27725 6.74553C3.4089 6.86912 3.45378 6.99028 3.42237 7.16517C3.26329 8.03913 3.11119 8.91456 2.96259 9.79047C2.94862 9.87206 2.97655 9.96048 2.98553 10.0455C3.0718 10.0259 3.16704 10.0235 3.24284 9.9849C4.05868 9.57015 4.87251 9.15198 5.68336 8.72843C5.81351 8.66053 5.92023 8.6615 6.04889 8.72892C6.60691 9.02252 7.16891 9.3083 7.72992 9.59653C7.77829 9.62144 7.82916 9.64196 7.92391 9.68495C7.75685 9.41187 7.61922 9.18764 7.48208 8.96341C7.20781 8.51446 6.92057 8.07186 6.66226 7.61412C6.38699 7.12657 6.54657 6.6019 7.02729 6.32052C7.5125 6.0362 8.04758 6.15295 8.36723 6.61265C8.39466 6.65271 8.42258 6.69081 8.46048 6.74406ZM17.8356 15.0455C17.8076 14.9937 17.7922 14.9605 17.7732 14.9297C17.3504 14.2414 16.9245 13.5545 16.5061 12.8638C16.4318 12.7406 16.368 12.768 16.2687 12.8266C14.6311 13.7958 12.9924 14.7641 11.3513 15.7275C11.2162 15.8071 11.2067 15.8716 11.287 15.9996C11.6964 16.6532 12.1023 17.3093 12.4973 17.9717C12.592 18.1305 12.6693 18.1305 12.8164 18.0411C13.3919 17.6913 13.9748 17.3537 14.5548 17.0113C15.598 16.3953 16.6407 15.7797 17.683 15.1622C17.7383 15.1295 17.7852 15.0846 17.8356 15.0455Z" fill="white"/>
<path d="M3.06282 15.3439C3.12516 14.9785 3.19148 14.6194 3.24235 14.2584C3.25182 14.19 3.2204 14.0933 3.17153 14.0439C2.94314 13.8114 2.70278 13.5901 2.46591 13.3659C2.35271 13.2589 2.27292 13.1407 2.32678 12.978C2.38163 12.8129 2.5053 12.7459 2.67685 12.7254C3.00897 12.6854 3.34108 12.637 3.67071 12.5794C3.73554 12.5681 3.81333 12.5095 3.84475 12.4514C3.99884 12.167 4.14146 11.8769 4.28458 11.5867C4.35689 11.4401 4.45113 11.3302 4.63315 11.3292C4.81517 11.3283 4.91241 11.4367 4.98472 11.5828C5.12834 11.8725 5.26846 12.1641 5.42405 12.4479C5.45746 12.509 5.54423 12.5671 5.61504 12.5794C5.95713 12.639 6.30222 12.681 6.64531 12.7323C6.79242 12.7542 6.92107 12.83 6.93254 12.9765C6.94152 13.0899 6.9126 13.2398 6.83929 13.3199C6.60791 13.5735 6.34959 13.8041 6.09726 14.0391C6.02196 14.1089 6.00102 14.1719 6.02246 14.277C6.08928 14.6048 6.13616 14.936 6.19351 15.2657C6.21894 15.4108 6.18303 15.5315 6.06086 15.6209C5.9307 15.7166 5.79606 15.7049 5.65893 15.6336C5.36271 15.4797 5.06301 15.3327 4.77079 15.1719C4.67105 15.1172 4.59725 15.1211 4.50001 15.1739C4.19581 15.3385 3.88913 15.4987 3.57696 15.6487C3.33111 15.7655 3.05933 15.596 3.06282 15.3439ZM5.76215 15.2222C5.71378 14.9335 5.69782 14.6702 5.62153 14.425C5.5198 14.0972 5.61953 13.8754 5.88034 13.6678C6.07781 13.5105 6.23789 13.3087 6.42988 13.1109C6.10025 13.0649 5.7831 13.0176 5.46494 12.9785C5.2934 12.9575 5.16923 12.9013 5.09293 12.7293C4.95829 12.4274 4.79722 12.1363 4.63515 11.8168C4.52444 12.0347 4.42919 12.2252 4.33095 12.4142C3.99983 13.0508 4.19531 12.9047 3.47573 13.019C3.26528 13.0522 3.05435 13.0835 2.85936 13.1133C3.07479 13.3375 3.26828 13.5696 3.49468 13.766C3.67869 13.9252 3.71958 14.0879 3.66672 14.3141C3.5989 14.6043 3.562 14.9013 3.50714 15.2242C3.84275 15.0522 4.14744 14.9028 4.44465 14.7401C4.5788 14.6663 4.691 14.6644 4.82564 14.7381C5.12235 14.9013 5.42654 15.0503 5.76215 15.2222Z" fill="white"/>
<path d="M16.3226 3.49579C16.2932 3.5422 16.2528 3.64039 16.183 3.71074C15.9486 3.94621 15.6988 4.16653 15.4674 4.40493C15.415 4.45915 15.3836 4.56467 15.3941 4.6399C15.436 4.94669 15.4998 5.25104 15.5512 5.55685C15.5781 5.71758 15.5831 5.87732 15.4245 5.98529C15.2704 6.08983 15.1228 6.05026 14.9707 5.96819C14.6934 5.81919 14.4142 5.67166 14.1289 5.53829C14.0591 5.50605 13.9474 5.50458 13.8781 5.53683C13.5814 5.67557 13.2931 5.83091 13.0029 5.98236C12.8548 6.05954 12.7077 6.08494 12.5676 5.97552C12.4374 5.8739 12.413 5.74152 12.4464 5.58177C12.5087 5.28426 12.5516 4.98284 12.609 4.68436C12.6339 4.55539 12.6145 4.45964 12.5052 4.36438C12.2689 4.15773 12.0505 3.93155 11.8216 3.7166C11.7104 3.61206 11.6455 3.49335 11.6914 3.34142C11.7393 3.18363 11.861 3.10888 12.022 3.0869C12.3292 3.04489 12.6359 2.99848 12.9441 2.96135C13.0887 2.94376 13.1884 2.89735 13.2523 2.75226C13.3694 2.48455 13.5156 2.22955 13.6417 1.96526C13.715 1.81186 13.8093 1.68876 13.9958 1.68631C14.1923 1.68387 14.288 1.81577 14.3648 1.97307C14.4925 2.23639 14.6386 2.49188 14.7548 2.76057C14.8161 2.90322 14.9138 2.94327 15.051 2.96086C15.3646 3.00043 15.6788 3.04147 15.9905 3.09276C16.2104 3.12842 16.3286 3.26228 16.3226 3.49579ZM12.8668 5.58959C13.1032 5.46892 13.3111 5.36194 13.5205 5.25642C14.096 4.96721 13.9035 4.96721 14.478 5.25348C14.6835 5.35607 14.8879 5.46062 15.1283 5.58275C15.0629 5.20366 14.9961 4.87048 14.9547 4.53438C14.9433 4.44108 14.9792 4.31504 15.0415 4.24616C15.218 4.05026 15.4195 3.87635 15.6105 3.69364C15.6778 3.62964 15.7436 3.56418 15.8274 3.48309C15.4624 3.42886 15.1387 3.36829 14.8121 3.33751C14.6246 3.31992 14.5239 3.23687 14.4496 3.07811C14.3119 2.78499 14.1603 2.49823 13.9998 2.17874C13.8322 2.5124 13.6786 2.80991 13.533 3.11084C13.4692 3.24323 13.3829 3.31406 13.2243 3.33116C12.8837 3.36829 12.5456 3.42837 12.2285 3.47576C12.4594 3.71709 12.6783 3.96526 12.9196 4.19144C13.0508 4.31406 13.0762 4.43912 13.0453 4.59984C12.984 4.91543 12.9306 5.23248 12.8668 5.58959Z" fill="white"/>
<path d="M17.1315 10.4308C17.147 10.571 17.13 10.6936 16.9535 10.7151C16.8114 10.7322 16.7361 10.6419 16.7176 10.4533C16.6752 10.0234 16.5446 9.62036 16.3207 9.24811C16.1347 8.93839 15.9427 8.63258 15.7547 8.32432C15.6569 8.1636 15.6699 8.04196 15.7936 7.97845C15.9501 7.89833 16.0384 7.99213 16.1097 8.11084C16.3431 8.49872 16.5865 8.88172 16.8034 9.2784C16.9989 9.63502 17.0971 10.0258 17.1315 10.4308Z" fill="white"/>
<path d="M2.11596 3.39513C1.93444 3.40783 1.83421 3.35752 1.82423 3.21487C1.81426 3.07369 1.90502 3.0136 2.04166 2.99504C2.44708 2.93934 2.8525 2.8817 3.25593 2.81379C3.32026 2.80305 3.39506 2.7454 3.42897 2.68922C3.52571 2.52703 3.60351 2.35361 3.68878 2.18507C3.75411 2.0561 3.85833 1.99894 3.99297 2.06978C4.12113 2.13719 4.11964 2.252 4.05979 2.37022C3.94709 2.59347 3.84187 2.82112 3.7182 3.03851C3.6808 3.10398 3.59852 3.17481 3.52671 3.18654C3.04349 3.26616 2.55778 3.33163 2.11596 3.39513Z" fill="white"/>
<path d="M11.4112 18.9462C11.3833 18.9223 11.3095 18.8847 11.2716 18.8246C11.0173 18.4226 10.7699 18.0161 10.5216 17.6101C10.4513 17.4949 10.4583 17.3815 10.5819 17.3102C10.7056 17.2389 10.8093 17.2906 10.8796 17.4045C11.13 17.8095 11.3813 18.2135 11.6262 18.6214C11.7239 18.7845 11.6351 18.9482 11.4112 18.9462Z" fill="white"/>
<path d="M15.6484 7.34968C15.5776 7.42834 15.5347 7.51383 15.4689 7.53728C15.4101 7.55828 15.2969 7.53483 15.2585 7.4894C15.1652 7.37948 15.0844 7.25149 15.0331 7.11813C15.0111 7.06048 15.053 6.94763 15.1049 6.90415C15.1503 6.86605 15.2874 6.85774 15.3188 6.89243C15.438 7.02531 15.5312 7.18114 15.6484 7.34968Z" fill="white"/>
<path d="M4.04224 1.58808C4.05171 1.35945 4.2073 1.16502 4.33346 1.1704C4.46661 1.17577 4.53842 1.25296 4.53842 1.38046C4.53792 1.53728 4.36438 1.75955 4.25168 1.73122C4.16292 1.70826 4.09161 1.62374 4.04224 1.58808Z" fill="white"/>
<path d="M10.3171 17.043C10.155 17.0127 9.9635 16.8021 9.97247 16.6653C9.98045 16.5417 10.0518 16.4616 10.1879 16.4626C10.3086 16.4636 10.5006 16.6844 10.4721 16.8182C10.4542 16.8998 10.3709 16.9682 10.3171 17.043Z" fill="white"/>
<path d="M12.5407 16.0229C12.5671 16.0444 12.6359 16.0781 12.6733 16.1328C12.7836 16.2935 12.8833 16.4616 12.9835 16.6291C13.0518 16.743 13.0508 16.8543 12.9282 16.9306C12.8015 17.0092 12.7028 16.9525 12.6315 16.8416C12.5232 16.6721 12.4135 16.5026 12.3158 16.3277C12.2315 16.1768 12.3313 16.0165 12.5407 16.0229Z" fill="white"/>
</svg>
