<svg width="18" height="18" viewBox="0 0 18 18" fill="none" xmlns="http://www.w3.org/2000/svg">
<g clip-path="url(#clip0_3_5213)">
<path d="M10.2718 14.4622C9.96508 14.7724 9.94762 14.9238 10.171 15.2878C10.5779 15.9502 10.9844 16.6126 11.3923 17.2741C11.6057 17.62 11.8491 17.6781 12.2056 17.469C12.7173 17.1686 13.2274 16.8662 13.7381 16.5647C14.8815 15.8891 16.026 15.214 17.1679 14.5364C17.4711 14.3566 17.5529 14.1041 17.3849 13.8271C16.944 13.0992 16.4952 12.3767 16.0474 11.6527C15.9457 11.4885 15.7951 11.3957 15.5971 11.4182C15.4774 11.4319 15.4321 11.3781 15.3912 11.2853C15.2366 10.935 15.1917 10.5726 15.2465 10.1959C15.3194 9.69518 15.2825 9.20178 15.0231 8.75918C14.5783 7.99904 14.119 7.24623 13.6403 6.50612C13.4199 6.16514 13.0653 6.03324 12.6509 6.10847C12.2301 6.18517 11.9802 6.45043 11.8506 6.83685C11.1474 6.56572 10.5969 6.90525 10.3979 7.48072C9.75463 7.27701 9.39858 7.39523 9.00114 7.95507C8.63411 7.35468 8.27108 6.76113 7.88959 6.13729C7.94494 6.09577 8.00379 6.06011 8.05266 6.0137C8.69495 5.40207 9.33625 4.78898 9.97754 4.17637C10.1461 4.01516 10.2284 3.83001 10.1486 3.59943C10.0698 3.37129 9.89327 3.26382 9.66138 3.2306C8.79518 3.10652 7.92998 2.97804 7.06229 2.86616C6.9052 2.84614 6.82342 2.79191 6.7566 2.6561C6.37461 1.88424 5.98315 1.11726 5.59718 0.346868C5.50044 0.153414 5.36579 0.0176058 5.13391 0.00197313C4.87061 -0.0161021 4.69907 0.10847 4.58637 0.332213C4.19141 1.11775 3.79696 1.90329 3.39503 2.68541C3.35913 2.75527 3.27535 2.83734 3.20354 2.84858C2.31939 2.98146 1.43374 3.1031 0.548592 3.22572C0.304241 3.25991 0.110755 3.35664 0.0284733 3.60383C-0.0518134 3.84516 0.045927 4.02738 0.218469 4.19152C0.847298 4.79044 1.47214 5.39377 2.10296 5.99074C2.19572 6.07867 2.2396 6.15439 2.20818 6.28825C2.14834 6.54276 2.11543 6.80315 2.07005 7.0606C1.96583 7.65415 1.85712 8.24623 1.76037 8.84076C1.74142 8.95703 1.74392 9.08942 1.78231 9.19885C1.89302 9.51052 2.2391 9.61555 2.57022 9.44653C3.36311 9.04154 4.15501 8.63461 4.94392 8.2223C5.05013 8.1666 5.12693 8.16612 5.23265 8.22181C5.83405 8.53886 6.44044 8.84711 7.04433 9.15928C7.08722 9.18126 7.12761 9.20911 7.18097 9.24086C7.0583 9.57061 6.94261 9.89694 6.81494 10.2189C6.63592 10.6717 6.67931 11.0972 6.94261 11.5091C7.17349 11.8701 7.39939 12.2345 7.61582 12.6038C7.98184 13.2296 8.51393 13.6278 9.23252 13.7973C9.6549 13.8974 10.004 14.1226 10.2718 14.4622ZM2.28548 14.3977C2.28249 14.6498 2.55377 14.8198 2.80011 14.7015C3.11178 14.5516 3.41897 14.3913 3.72316 14.2267C3.8204 14.1739 3.8942 14.17 3.99394 14.2247C4.28616 14.3855 4.58587 14.5325 4.88208 14.6864C5.01922 14.7577 5.15386 14.7699 5.28401 14.6737C5.40569 14.5838 5.44209 14.4636 5.41666 14.3185C5.35931 13.9893 5.31244 13.6576 5.24561 13.3298C5.22417 13.2247 5.24561 13.1617 5.32042 13.0919C5.57274 12.8574 5.83106 12.6263 6.06244 12.3728C6.13575 12.2926 6.16467 12.1427 6.1557 12.0293C6.14423 11.8828 6.01507 11.8071 5.86846 11.7851C5.52487 11.7338 5.17979 11.6918 4.8382 11.6322C4.76738 11.62 4.68061 11.5618 4.6472 11.5008C4.49162 11.2169 4.35149 10.9253 4.20787 10.6356C4.13556 10.4895 4.03782 10.3811 3.8563 10.382C3.67429 10.383 3.57954 10.4929 3.50773 10.6395C3.36511 10.9297 3.22249 11.2199 3.0679 11.5042C3.03648 11.5618 2.95869 11.6204 2.89386 11.6322C2.56424 11.6903 2.23262 11.7382 1.9 11.7782C1.72846 11.7987 1.60479 11.8657 1.54993 12.0308C1.49558 12.194 1.57586 12.3117 1.68906 12.4187C1.92593 12.6429 2.16629 12.8642 2.39469 13.0967C2.44356 13.1466 2.47547 13.2433 2.4655 13.3112C2.41414 13.6732 2.34731 14.0318 2.28548 14.3977ZM15.5453 2.5496C15.5517 2.31609 15.4335 2.18224 15.2126 2.14609C14.9005 2.09528 14.5868 2.05376 14.2731 2.01419C14.136 1.99709 14.0383 1.95654 13.9769 1.81389C13.8612 1.5457 13.7146 1.2902 13.587 1.0264C13.5107 0.869096 13.4149 0.737195 13.2179 0.739638C13.0314 0.742081 12.9372 0.865188 12.8639 1.01858C12.7377 1.28287 12.5911 1.53788 12.4744 1.80559C12.4106 1.95117 12.3108 1.99758 12.1662 2.01467C11.8585 2.0518 11.5514 2.09821 11.2442 2.14022C11.0831 2.16221 10.9614 2.23695 10.9136 2.39474C10.8677 2.54618 10.9325 2.66489 11.0437 2.76993C11.2726 2.98487 11.491 3.21106 11.7274 3.4177C11.8366 3.51296 11.8561 3.60871 11.8311 3.73768C11.7738 4.03617 11.7309 4.33759 11.6686 4.63509C11.6351 4.79484 11.6596 4.92723 11.7897 5.02884C11.9299 5.13827 12.0775 5.11287 12.2251 5.03568C12.5153 4.88375 12.8035 4.72889 13.1002 4.59015C13.1696 4.55791 13.2813 4.55889 13.3511 4.59162C13.6368 4.72449 13.9156 4.87203 14.1928 5.02151C14.3449 5.1031 14.4925 5.14316 14.6466 5.03861C14.8052 4.93065 14.8007 4.7709 14.7733 4.61018C14.7219 4.30437 14.6581 4.00002 14.6162 3.69323C14.6057 3.618 14.6372 3.51248 14.6895 3.45825C14.9209 3.22034 15.1707 2.99953 15.4051 2.76406C15.4749 2.69421 15.5158 2.5965 15.5453 2.5496ZM16.3541 9.48463C16.3192 9.08014 16.2215 8.68932 16.0265 8.33221C15.81 7.93553 15.5662 7.55254 15.3328 7.16465C15.2615 7.04594 15.1727 6.95214 15.0167 7.03226C14.893 7.09577 14.88 7.21741 14.9778 7.37813C15.1653 7.68639 15.3578 7.9922 15.5438 8.30192C15.7672 8.67418 15.8978 9.0772 15.9407 9.5071C15.9592 9.69567 16.035 9.78654 16.1766 9.76895C16.3531 9.74745 16.3696 9.62435 16.3541 9.48463ZM1.33849 2.44897C1.78032 2.38546 2.26553 2.32 2.74875 2.23988C2.82056 2.22816 2.90284 2.15732 2.94024 2.09186C3.06391 1.87447 3.16913 1.64682 3.28183 1.42357C3.34167 1.30534 3.34317 1.19103 3.21501 1.12313C3.08037 1.05229 2.97664 1.10945 2.91082 1.23842C2.82504 1.40696 2.74775 1.58038 2.65101 1.74257C2.6171 1.79924 2.5423 1.85639 2.47797 1.86714C2.07454 1.93505 1.66911 1.99269 1.26369 2.04838C1.12656 2.06695 1.0363 2.12703 1.04627 2.26822C1.05724 2.41184 1.15747 2.46167 1.33849 2.44897ZM10.6338 18C10.8582 18.002 10.9465 17.8383 10.8487 17.6752C10.6039 17.2672 10.3525 16.8632 10.1022 16.4583C10.0319 16.3444 9.92817 16.2926 9.8045 16.364C9.68133 16.4353 9.67385 16.5481 9.74416 16.6639C9.992 17.0699 10.2398 17.4763 10.4942 17.8784C10.5316 17.938 10.6054 17.9761 10.6338 18ZM14.871 6.40354C14.7534 6.235 14.6606 6.07916 14.5414 5.94579C14.5105 5.91111 14.3729 5.91941 14.3275 5.95752C14.2756 6.001 14.2337 6.11433 14.2557 6.17149C14.307 6.30486 14.3873 6.43285 14.4811 6.54276C14.5195 6.5882 14.6327 6.61165 14.6915 6.59064C14.7573 6.56768 14.8002 6.48219 14.871 6.40354ZM3.26488 0.641934C3.31424 0.677596 3.38605 0.76211 3.47432 0.784582C3.58702 0.812916 3.76106 0.590639 3.76106 0.433825C3.76106 0.30681 3.68975 0.229623 3.5561 0.223761C3.42994 0.218876 3.27435 0.413307 3.26488 0.641934ZM9.53971 16.0967C9.59356 16.0225 9.67684 15.9541 9.69429 15.872C9.72322 15.7382 9.53123 15.5169 9.41005 15.5164C9.27391 15.5154 9.2026 15.5955 9.19462 15.7191C9.18664 15.8559 9.37814 16.0665 9.53971 16.0967Z" fill="white"/>
<path d="M10.2718 14.4622C10.004 14.1226 9.6549 13.8974 9.23252 13.7978C8.51343 13.6283 7.98184 13.2301 7.61582 12.6043C7.39939 12.235 7.17349 11.8706 6.94261 11.5095C6.6793 11.0977 6.63592 10.6727 6.81494 10.2194C6.94211 9.89743 7.0578 9.5711 7.18097 9.24135C7.12761 9.20911 7.08772 9.18175 7.04433 9.15977C6.43994 8.8476 5.83405 8.53935 5.23265 8.2223C5.12693 8.16661 5.05013 8.1671 4.94391 8.22279C4.15501 8.63559 3.36311 9.04203 2.57022 9.44702C2.2396 9.61604 1.89302 9.51101 1.78231 9.19934C1.74342 9.08991 1.74142 8.95752 1.76037 8.84125C1.85662 8.24672 1.96583 7.65415 2.07005 7.06109C2.11543 6.80364 2.14834 6.54325 2.20818 6.28874C2.2396 6.15488 2.19572 6.07916 2.10296 5.99123C1.47214 5.39426 0.847298 4.79093 0.218469 4.19201C0.045927 4.02738 -0.0518134 3.84565 0.0284733 3.60432C0.111253 3.35664 0.304241 3.25991 0.548592 3.22572C1.43374 3.10261 2.31939 2.98146 3.20304 2.84809C3.27485 2.83734 3.35863 2.75527 3.39453 2.68492C3.79696 1.90329 4.19092 1.11775 4.58587 0.332213C4.69857 0.10847 4.87011 -0.0161021 5.13341 0.00197313C5.3653 0.0176058 5.49994 0.153414 5.59668 0.346868C5.98216 1.11678 6.37411 1.88424 6.7561 2.6561C6.82342 2.79191 6.9052 2.84565 7.06179 2.86617C7.92948 2.97804 8.79518 3.10652 9.66088 3.2306C9.89277 3.26382 10.0698 3.37129 10.1481 3.59943C10.2274 3.83001 10.1456 4.01565 9.97704 4.17638C9.33525 4.78898 8.69445 5.40207 8.05216 6.0137C8.00329 6.06011 7.94444 6.09577 7.88909 6.13729C8.27058 6.76162 8.63361 7.35517 9.00064 7.95508C9.39808 7.39474 9.75414 7.27701 10.3974 7.48072C10.5964 6.90525 11.1469 6.56573 11.8501 6.83685C11.9797 6.45044 12.2296 6.18517 12.6504 6.10847C13.0653 6.03324 13.4194 6.16514 13.6398 6.50613C14.1185 7.24623 14.5778 7.99904 15.0226 8.75918C15.282 9.20178 15.3189 9.69518 15.246 10.1959C15.1912 10.5726 15.2366 10.935 15.3907 11.2853C15.4316 11.3776 15.4769 11.4314 15.5966 11.4182C15.7946 11.3957 15.9457 11.4881 16.0469 11.6527C16.4942 12.3767 16.9435 13.0992 17.3844 13.8271C17.5524 14.1041 17.4706 14.3566 17.1674 14.5364C16.025 15.214 14.881 15.8891 13.7376 16.5648C13.2269 16.8667 12.7168 17.1691 12.2051 17.469C11.8491 17.6781 11.6052 17.62 11.3918 17.2741C10.9839 16.6126 10.5774 15.9502 10.1705 15.2878C9.94762 14.9238 9.96508 14.7724 10.2718 14.4622ZM7.56146 9.41331C7.41984 9.78947 7.28769 10.1241 7.16851 10.4631C7.07924 10.7172 7.10118 10.9702 7.24231 11.2028C7.52157 11.6629 7.80132 12.1236 8.09355 12.5765C8.35336 12.9785 8.72686 13.2404 9.19811 13.361C9.62498 13.4705 10.0194 13.64 10.3446 13.9399C10.4523 14.0396 10.55 14.1495 10.6567 14.2594C12.1363 13.3855 13.6134 12.513 15.0984 11.6361C14.8292 11.1466 14.7324 10.6493 14.8316 10.1192C14.9055 9.72401 14.871 9.33124 14.6686 8.98341C14.2282 8.22767 13.767 7.48366 13.3027 6.74159C13.1741 6.53593 12.9571 6.46802 12.7158 6.51199C12.4804 6.55498 12.3358 6.70056 12.2675 6.92577C12.2151 7.09821 12.261 7.24965 12.3502 7.39572C12.5741 7.76113 12.7995 8.12557 13.023 8.49098C13.0913 8.60285 13.1027 8.72059 12.9801 8.7968C12.8519 8.87643 12.7427 8.82513 12.6674 8.70154C12.6385 8.65464 12.6096 8.60774 12.5806 8.56084C12.3532 8.19054 12.1288 7.81829 11.8979 7.45044C11.7099 7.15146 11.3614 7.06206 11.0771 7.23256C10.7999 7.39914 10.7216 7.73524 10.8961 8.03275C11.0108 8.22816 11.1325 8.41917 11.2512 8.61214C11.3953 8.84711 11.5399 9.08112 11.682 9.31707C11.7493 9.42894 11.7324 9.53544 11.6177 9.60139C11.506 9.66538 11.4013 9.63559 11.328 9.52616C11.294 9.47535 11.2631 9.42259 11.2307 9.37032C10.9644 8.93749 10.7021 8.50271 10.4313 8.07281C10.2718 7.81976 9.98652 7.72792 9.72072 7.82806C9.45244 7.92919 9.30682 8.18517 9.36567 8.47682C9.38312 8.56328 9.429 8.6478 9.47538 8.72498C9.75414 9.18566 10.0369 9.64438 10.3191 10.1031C10.3919 10.2213 10.384 10.3327 10.2608 10.4031C10.1406 10.4719 10.0334 10.4324 9.96258 10.3122C9.94712 10.2858 9.93017 10.2604 9.91421 10.234C9.57112 9.67613 9.22754 9.11873 8.88445 8.56084C8.34588 7.68493 7.8088 6.80803 7.26774 5.93358C7.10218 5.66587 6.82442 5.57257 6.54666 5.67613C6.28485 5.77384 6.13924 6.01907 6.19758 6.30925C6.22202 6.43041 6.28834 6.54765 6.35467 6.65561C7.2084 8.04936 8.06512 9.44067 8.92185 10.8325C9.00014 10.9595 9.06946 11.087 8.91138 11.2008C8.79269 11.2863 8.68099 11.2311 8.5623 11.0386C8.37231 10.7313 8.18331 10.4236 7.99381 10.1163C7.85718 9.89304 7.72004 9.66978 7.56146 9.41331ZM7.68314 5.79777C7.99431 5.50124 8.29651 5.21301 8.59821 4.92479C8.95875 4.57989 9.32079 4.23646 9.67884 3.88913C9.807 3.76455 9.77708 3.6776 9.60304 3.63803C9.56663 3.62972 9.52923 3.62728 9.49233 3.62191C8.59521 3.49538 7.6981 3.3669 6.79998 3.24428C6.63592 3.22181 6.53818 3.14902 6.46487 3.00002C6.06544 2.18957 5.65702 1.38302 5.24611 0.578427C5.2117 0.510522 5.1359 0.462647 5.07906 0.405491C5.02819 0.462159 4.96187 0.511011 4.92846 0.575984C4.52104 1.37618 4.11512 2.17735 3.71867 2.98292C3.63988 3.14267 3.53665 3.22376 3.35713 3.2477C2.45902 3.36788 1.5619 3.49489 0.665282 3.62533C0.581504 3.63754 0.504708 3.69323 0.42492 3.7284C0.465812 3.79777 0.493737 3.88033 0.550088 3.93456C1.19687 4.55938 1.84415 5.1837 2.49991 5.79924C2.63156 5.92283 2.67644 6.04399 2.64502 6.21888C2.48594 7.09284 2.33385 7.96827 2.18524 8.84418C2.17128 8.92577 2.19921 9.01419 2.20818 9.09919C2.29445 9.07965 2.3897 9.07721 2.4655 9.03861C3.28133 8.62386 4.09517 8.20569 4.90602 7.78214C5.03617 7.71424 5.14289 7.71521 5.27154 7.78263C5.82956 8.07623 6.39157 8.36201 6.95258 8.65024C7.00095 8.67516 7.05182 8.69567 7.14656 8.73866C6.97951 8.46558 6.84187 8.24135 6.70474 8.01712C6.43047 7.56817 6.14323 7.12557 5.88491 6.66783C5.60965 6.18028 5.76922 5.65561 6.24995 5.37423C6.73516 5.08991 7.27023 5.20666 7.58989 5.66636C7.61731 5.70642 7.64524 5.74452 7.68314 5.79777ZM17.0582 14.0992C17.0303 14.0474 17.0148 14.0142 16.9959 13.9834C16.573 13.2951 16.1472 12.6082 15.7288 11.9175C15.6545 11.7944 15.5906 11.8217 15.4914 11.8803C13.8537 12.8496 12.2151 13.8178 10.574 14.7812C10.4388 14.8608 10.4293 14.9253 10.5096 15.0533C10.919 15.7069 11.325 16.363 11.7199 17.0254C11.8147 17.1842 11.892 17.1842 12.0391 17.0948C12.6145 16.745 13.1975 16.4074 13.7774 16.065C14.8207 15.449 15.8634 14.8334 16.9056 14.2159C16.961 14.1832 17.0079 14.1383 17.0582 14.0992Z" fill="#0090FF"/>
<path d="M2.28646 14.3975C2.34879 14.0321 2.41511 13.673 2.46598 13.312C2.47545 13.2436 2.44404 13.1469 2.39517 13.0975C2.16677 12.865 1.92641 12.6437 1.68954 12.4195C1.57634 12.3125 1.49655 12.1943 1.55041 12.0316C1.60527 11.8665 1.72894 11.7995 1.90048 11.779C2.2326 11.739 2.56472 11.6906 2.89434 11.6329C2.95917 11.6217 3.03696 11.5631 3.06838 11.5049C3.22247 11.2206 3.36509 10.9304 3.50821 10.6403C3.58052 10.4937 3.67477 10.3838 3.85678 10.3828C4.0388 10.3818 4.13604 10.4903 4.20835 10.6364C4.35197 10.9261 4.4921 11.2177 4.64768 11.5015C4.68109 11.5626 4.76786 11.6207 4.83868 11.6329C5.18077 11.6925 5.52585 11.7346 5.86894 11.7858C6.01605 11.8078 6.14471 11.8836 6.15618 12.0301C6.16515 12.1434 6.13623 12.2934 6.06292 12.3735C5.83154 12.6271 5.57322 12.8577 5.32089 13.0926C5.24559 13.1625 5.22465 13.2255 5.24609 13.3305C5.31292 13.6583 5.35979 13.9896 5.41714 14.3193C5.44257 14.4644 5.40667 14.5851 5.28449 14.6745C5.15434 14.7702 5.01969 14.7585 4.88256 14.6872C4.58635 14.5333 4.28664 14.3862 3.99442 14.2255C3.89468 14.1708 3.82088 14.1747 3.72364 14.2275C3.41945 14.3921 3.11276 14.5523 2.80059 14.7023C2.55474 14.8191 2.28296 14.6496 2.28646 14.3975ZM4.98579 14.2758C4.93741 13.9871 4.92146 13.7238 4.84516 13.4786C4.74343 13.1508 4.84316 12.929 5.10397 12.7214C5.30145 12.5641 5.46152 12.3623 5.65351 12.1645C5.32389 12.1185 5.00673 12.0711 4.68857 12.0321C4.51703 12.0111 4.39286 11.9549 4.31656 11.7829C4.18192 11.481 4.02085 11.1899 3.85878 10.8704C3.74807 11.0882 3.65283 11.2788 3.55459 11.4678C3.22347 12.1044 3.41895 11.9583 2.69936 12.0726C2.48892 12.1058 2.27798 12.1371 2.083 12.1669C2.29842 12.3911 2.49191 12.6232 2.71831 12.8196C2.90232 12.9788 2.94321 13.1415 2.89035 13.3677C2.82253 13.6579 2.78563 13.9549 2.73078 14.2778C3.06638 14.1058 3.37107 13.9563 3.66828 13.7937C3.80243 13.7199 3.91463 13.7179 4.04927 13.7917C4.34598 13.9549 4.65018 14.1039 4.98579 14.2758Z" fill="#0090FF"/>
<path d="M15.5445 2.5495C15.5151 2.59591 15.4747 2.6941 15.4049 2.76445C15.1705 2.99992 14.9207 3.22024 14.6893 3.45864C14.6369 3.51286 14.6055 3.61838 14.616 3.69361C14.6579 4.0004 14.7217 4.30475 14.7731 4.61057C14.8 4.77129 14.805 4.93104 14.6464 5.039C14.4923 5.14354 14.3447 5.10397 14.1926 5.0219C13.9154 4.8729 13.6361 4.72537 13.3509 4.592C13.281 4.55976 13.1693 4.55829 13.1 4.59054C12.8033 4.72928 12.5151 4.88463 12.2248 5.03607C12.0767 5.11325 11.9296 5.13866 11.7895 5.02923C11.6593 4.92762 11.6349 4.79523 11.6683 4.63548C11.7307 4.33797 11.7735 4.03656 11.8309 3.73807C11.8558 3.6091 11.8364 3.51335 11.7272 3.41809C11.4908 3.21145 11.2724 2.98526 11.0435 2.77031C10.9323 2.66577 10.8675 2.54706 10.9133 2.39513C10.9612 2.23734 11.0829 2.16259 11.244 2.14061C11.5511 2.0986 11.8578 2.05219 12.166 2.01506C12.3106 1.99747 12.4104 1.95106 12.4742 1.80597C12.5914 1.53826 12.7375 1.28326 12.8636 1.01897C12.937 0.865573 13.0312 0.742466 13.2177 0.740024C13.4142 0.737581 13.5099 0.869481 13.5867 1.02678C13.7144 1.2901 13.8605 1.54559 13.9767 1.81428C14.038 1.95693 14.1358 1.99699 14.2729 2.01457C14.5866 2.05414 14.9007 2.09518 15.2124 2.14647C15.4323 2.18213 15.5505 2.31599 15.5445 2.5495ZM12.0887 4.6433C12.3251 4.52263 12.533 4.41565 12.7425 4.31013C13.3179 4.02092 13.1255 4.02092 13.6999 4.30719C13.9054 4.40978 14.1098 4.51433 14.3502 4.63646C14.2849 4.25737 14.218 3.9242 14.1767 3.58809C14.1652 3.49479 14.2011 3.36875 14.2634 3.29987C14.44 3.10397 14.6414 2.93006 14.8324 2.74735C14.8997 2.68336 14.9656 2.61789 15.0493 2.5368C14.6843 2.48257 14.3607 2.422 14.034 2.39122C13.8465 2.37363 13.7458 2.29059 13.6715 2.13182C13.5339 1.8387 13.3823 1.55194 13.2217 1.23245C13.0541 1.56611 12.9005 1.86362 12.7549 2.16455C12.6911 2.29694 12.6048 2.36777 12.4463 2.38487C12.1057 2.422 11.7676 2.48209 11.4504 2.52947C11.6813 2.7708 11.9002 3.01897 12.1416 3.24515C12.2727 3.36777 12.2981 3.49283 12.2672 3.65356C12.2059 3.96914 12.1525 4.28619 12.0887 4.6433Z" fill="#0090FF"/>
<path d="M16.3537 9.48465C16.3691 9.62486 16.3522 9.74748 16.1756 9.76897C16.0335 9.78607 15.9582 9.69569 15.9398 9.50712C15.8974 9.07723 15.7667 8.6742 15.5428 8.30195C15.3568 7.99222 15.1648 7.68641 14.9768 7.37815C14.8791 7.21743 14.8921 7.09579 15.0157 7.03228C15.1723 6.95217 15.2606 7.04596 15.3319 7.16467C15.5653 7.55256 15.8086 7.93556 16.0255 8.33223C16.221 8.68885 16.3193 9.07967 16.3537 9.48465Z" fill="#0090FF"/>
<path d="M1.33935 2.44884C1.15783 2.46155 1.0576 2.41123 1.04762 2.26858C1.03765 2.1274 1.12841 2.06731 1.26504 2.04875C1.67047 1.99305 2.07589 1.93541 2.47932 1.86751C2.54365 1.85676 2.61845 1.79911 2.65236 1.74293C2.7491 1.58074 2.8269 1.40732 2.91217 1.23878C2.9775 1.10981 3.08172 1.05265 3.21636 1.12349C3.34452 1.19091 3.34302 1.30571 3.28318 1.42393C3.17048 1.64718 3.06526 1.87483 2.94159 2.09222C2.90419 2.15769 2.82191 2.22852 2.7501 2.24025C2.26688 2.31987 1.78117 2.38534 1.33935 2.44884Z" fill="#0090FF"/>
<path d="M10.6336 18C10.6057 17.9761 10.5319 17.9385 10.494 17.8784C10.2397 17.4763 9.99235 17.0699 9.74401 16.6639C9.6737 16.5486 9.68068 16.4353 9.80435 16.364C9.92802 16.2926 10.0317 16.3444 10.1021 16.4582C10.3524 16.8632 10.6037 17.2672 10.8486 17.6751C10.9463 17.8383 10.8576 18.002 10.6336 18Z" fill="#0090FF"/>
<path d="M14.8713 6.40352C14.8005 6.48217 14.7576 6.56766 14.6918 6.59111C14.633 6.61212 14.5198 6.58867 14.4814 6.54323C14.3881 6.43332 14.3073 6.30532 14.256 6.17196C14.234 6.11431 14.2759 6.00147 14.3278 5.95799C14.3732 5.91988 14.5103 5.91158 14.5417 5.94626C14.6609 6.07914 14.7541 6.23498 14.8713 6.40352Z" fill="#0090FF"/>
<path d="M3.26562 0.641914C3.2751 0.413287 3.43069 0.218856 3.55685 0.22423C3.69 0.229604 3.76181 0.30679 3.76181 0.434293C3.76131 0.591108 3.58777 0.813385 3.47507 0.785051C3.3863 0.76209 3.31499 0.677576 3.26562 0.641914Z" fill="#0090FF"/>
<path d="M9.5402 16.0967C9.37813 16.0664 9.18664 15.8559 9.19562 15.7191C9.2036 15.5955 9.27491 15.5154 9.41104 15.5164C9.53172 15.5173 9.72371 15.7382 9.69529 15.872C9.67734 15.9536 9.59406 16.022 9.5402 16.0967Z" fill="#0090FF"/>
<path d="M11.7626 15.0766C11.7891 15.0981 11.8579 15.1318 11.8953 15.1865C12.0055 15.3472 12.1052 15.5153 12.2054 15.6829C12.2738 15.7967 12.2728 15.9081 12.1501 15.9843C12.0234 16.0629 11.9247 16.0063 11.8534 15.8954C11.7452 15.7258 11.6355 15.5563 11.5377 15.3814C11.4534 15.2305 11.5532 15.0702 11.7626 15.0766Z" fill="#0090FF"/>
</g>
<defs>
<clipPath id="clip0_3_5213">
<rect width="17.4706" height="18" fill="white"/>
</clipPath>
</defs>
</svg>
