<svg width="18" height="19" viewBox="0 0 18 19" fill="none" xmlns="http://www.w3.org/2000/svg">
<path d="M9.6972 18.9951C9.53858 18.8916 9.48307 18.7453 9.49893 18.5589C9.51122 18.396 9.5017 18.231 9.5017 18.0831C6.14414 17.6072 4.24429 15.7066 3.75971 12.3462C3.58959 12.3462 3.3929 12.349 3.19622 12.3462C2.9801 12.3427 2.84964 12.2174 2.8536 12.0242C2.85717 11.8403 2.98526 11.7201 3.19027 11.7165C3.38854 11.713 3.58444 11.7165 3.79778 11.7165C3.91198 10.1851 4.47825 8.86139 5.56082 7.77962C6.6434 6.69784 7.95676 6.13395 9.5017 6.01657C9.5017 5.82028 9.5017 5.62557 9.5017 5.43087C9.50408 5.1977 9.62384 5.06446 9.8241 5.06842C10.0144 5.07239 10.129 5.20365 10.1326 5.42532C10.1354 5.61011 10.1354 5.7945 10.1374 5.98048C10.1374 5.98603 10.1433 5.99198 10.1576 6.02014C11.2854 6.10738 12.3414 6.44484 13.3006 7.13919C13.3006 6.90483 13.3078 6.67285 13.2978 6.44127C13.2925 6.36617 13.3043 6.29083 13.3323 6.22092C13.3602 6.15101 13.4036 6.08833 13.4592 6.03758C14.0509 5.45413 14.6388 4.86685 15.2231 4.27573C15.342 4.15439 15.4689 4.07309 15.6426 4.14725C15.8084 4.21783 15.835 4.3594 15.8338 4.52278C15.829 5.01569 15.8338 5.50859 15.8338 6.02053C16.3394 6.02053 16.8251 6.02331 17.3117 6.02053C17.4794 6.02053 17.6321 6.03481 17.7082 6.21127C17.7875 6.39567 17.69 6.52217 17.5655 6.64549C16.9807 7.22709 16.3979 7.81015 15.8171 8.39466C15.7077 8.5049 15.5919 8.5624 15.4333 8.55566C15.1977 8.54614 14.9614 8.55328 14.7163 8.55328C15.4051 9.49944 15.7473 10.5535 15.8365 11.7209C16.0348 11.7209 16.2303 11.7209 16.4262 11.7209C16.6483 11.7233 16.7795 11.8399 16.7831 12.0282C16.7875 12.2265 16.6534 12.3486 16.4207 12.3518C16.243 12.3542 16.0638 12.3538 15.8869 12.3554C15.8687 12.3593 15.8511 12.3656 15.8346 12.374C15.7231 13.8876 15.1549 15.2113 14.0719 16.2927C12.9889 17.3741 11.6756 17.9383 10.135 18.0518C10.135 18.225 10.1251 18.3952 10.1378 18.5637C10.1516 18.7513 10.0981 18.8972 9.93949 18.9999L9.6972 18.9951ZM9.4787 14.8413C9.48465 14.8294 9.49536 14.8179 9.49536 14.806C9.49774 14.6347 9.49774 14.463 9.50012 14.2905C9.50369 14.0581 9.62384 13.9249 9.82449 13.9297C10.0148 13.9344 10.1286 14.0657 10.1314 14.2865C10.1334 14.4701 10.1314 14.6534 10.1314 14.8374C11.488 14.7624 12.6011 13.4693 12.6079 12.3431C12.4306 12.3431 12.2533 12.3451 12.0761 12.3431C11.8445 12.3403 11.7109 12.2182 11.7164 12.0179C11.7216 11.8276 11.8524 11.7149 12.0757 11.7126C12.2581 11.7102 12.4401 11.7126 12.6344 11.7126C12.5975 11.3065 12.4679 10.9591 12.2918 10.6244C12.1947 10.4393 12.2522 10.2564 12.4223 10.1704C12.5833 10.0883 12.7593 10.1418 12.8521 10.329C12.9631 10.5452 13.0581 10.7692 13.1365 10.9992C13.211 11.228 13.2503 11.4683 13.3046 11.7023H15.1743C15.1743 11.6598 15.1743 11.6281 15.1743 11.5964C15.1088 10.7261 14.8286 9.88554 14.3586 9.15008C14.1897 8.88043 14.1948 8.79001 14.4082 8.54574C14.2875 8.55175 14.1667 8.55095 14.0461 8.54336C13.8391 8.51878 13.6952 8.5969 13.5485 8.74521C12.4262 9.87973 11.2949 11.0055 10.1663 12.1337C10.1214 12.1819 10.0737 12.2274 10.0236 12.2701C9.96322 12.3227 9.88509 12.3502 9.80513 12.3471C9.72517 12.344 9.6494 12.3105 9.59331 12.2535C9.53621 12.1974 9.50272 12.1215 9.4997 12.0416C9.49668 11.9616 9.52435 11.8834 9.57705 11.8232C9.6158 11.7783 9.65697 11.7355 9.70037 11.6951C10.857 10.5388 12.0132 9.38206 13.169 8.22494C13.2217 8.1718 13.2879 8.10597 13.2951 8.03816C13.3117 7.84465 13.301 7.64836 13.301 7.43938C13.0631 7.64955 12.9647 7.65708 12.7129 7.49926C12.6733 7.47467 12.6336 7.44929 12.596 7.4255C11.8541 6.97467 11.0128 6.7132 10.1461 6.66413V8.5505C10.2214 8.55789 10.2961 8.57115 10.3693 8.59015C10.7592 8.72339 11.1529 8.84831 11.534 9.00336C11.7128 9.07632 11.7541 9.26468 11.6748 9.42171C11.5955 9.57875 11.4131 9.6418 11.2386 9.5613C11.1426 9.51808 11.053 9.46057 10.9558 9.42092C10.6973 9.31504 10.436 9.21709 10.1362 9.21987C10.1362 9.42211 10.139 9.60611 10.1362 9.7901C10.1322 9.99552 10.0125 10.1244 9.82925 10.1288C9.63613 10.1331 9.50964 10.0023 9.50607 9.78654C9.5025 9.59778 9.50607 9.40863 9.50607 9.21868C8.16098 9.30354 7.04748 10.5396 7.01139 11.7134H7.2862C7.38494 11.7134 7.48447 11.7134 7.58282 11.7134C7.78823 11.7189 7.91671 11.8371 7.92067 12.0207C7.92503 12.2138 7.79417 12.3399 7.57845 12.3435C7.38851 12.347 7.19856 12.3435 7.00783 12.3435C7.06453 13.6176 8.24426 14.7779 9.4787 14.8413V14.8413ZM4.44256 12.3522C4.57303 15.1015 6.86546 17.2928 9.48981 17.3982V15.521C7.68314 15.217 6.62687 14.1608 6.321 12.3526L4.44256 12.3522ZM10.1382 17.405C13.2281 17.2174 15.1493 14.5748 15.1541 12.3542H13.2867C13.1943 13.1841 12.8664 13.9007 12.2787 14.4924C11.691 15.084 10.9606 15.4076 10.1374 15.5075L10.1382 17.405ZM6.33726 11.7074C6.4368 10.8747 6.76077 10.1549 7.35163 9.56606C7.94248 8.97719 8.66301 8.654 9.48703 8.55526V6.67166C6.50222 6.83028 4.49411 9.37334 4.45525 11.7078L6.33726 11.7074ZM15.1981 5.20405C14.773 5.62795 14.3856 6.01379 13.9997 6.40162C13.9657 6.43092 13.9426 6.47091 13.9343 6.51503C13.9288 6.81442 13.9311 7.11421 13.9311 7.47269C14.3653 7.03649 14.7587 6.63994 15.1493 6.24339C15.1785 6.20945 15.1949 6.16639 15.1957 6.12165C15.2005 5.83138 15.1989 5.54309 15.1989 5.20405H15.1981ZM16.651 6.64747C16.4329 6.64747 16.2727 6.66572 16.1189 6.64391C15.7806 6.59513 15.5379 6.71568 15.3155 6.97264C15.0379 7.29305 14.7207 7.57817 14.3812 7.91484C14.7286 7.91484 15.0228 7.91484 15.3167 7.91246C15.3617 7.90823 15.4038 7.8883 15.4356 7.85615C15.8286 7.46833 16.2196 7.07812 16.6518 6.64747H16.651Z" fill="#0F51AA"/>
<path d="M0.00158774 2.96796C0.125707 2.61385 0.332308 2.34062 0.715372 2.24545C0.78544 2.22802 0.857307 2.21884 0.929508 2.21809C1.33822 2.21571 1.74692 2.21571 2.15563 2.21809C2.39355 2.21809 2.52799 2.33032 2.53116 2.5274C2.53473 2.73202 2.39752 2.8482 2.1477 2.849C1.77851 2.849 1.40933 2.849 1.04015 2.849C0.748684 2.849 0.632892 2.96558 0.632892 3.25784C0.632892 7.31266 0.632892 11.3673 0.632892 15.4219C0.632892 15.713 0.749473 15.8292 1.04133 15.8296C2.14928 15.8296 3.25684 15.8272 4.36439 15.8347C4.46631 15.8347 4.60232 15.8716 4.66022 15.9426C4.71811 16.0136 4.73953 16.1634 4.71732 16.2654C4.68679 16.4057 4.5587 16.4636 4.41118 16.4636C3.23741 16.4636 2.06363 16.47 0.89025 16.4577C0.507979 16.4537 0.23912 16.2372 0.0769326 15.8918C0.0495708 15.8327 0.025379 15.7728 0 15.7118L0.00158774 2.96796Z" fill="#0F51AA"/>
<path d="M4.41595 1.26723C4.43459 1.05746 4.42785 0.87584 4.46989 0.705721C4.57577 0.276658 4.9394 0.00383328 5.38194 0.00105746C5.79713 -0.00132182 6.21231 0.00105746 6.62789 0.00105746C7.19535 0.00105746 7.59666 0.404346 7.60022 0.971011C7.60022 1.06182 7.60022 1.15302 7.60022 1.26723C7.81713 1.26723 8.01938 1.26723 8.22161 1.26723C8.77678 1.2708 9.17927 1.67409 9.18324 2.22806C9.18324 2.43229 9.18324 2.6369 9.18324 2.84112C9.17888 3.38439 8.77559 3.7964 8.23668 3.7972C6.75994 3.79984 5.2832 3.79984 3.80646 3.7972C3.26557 3.7972 2.85753 3.38677 2.85475 2.84786C2.85475 2.63016 2.85197 2.41166 2.85475 2.19515C2.85745 1.94879 2.95696 1.71338 3.13176 1.53977C3.30656 1.36615 3.54264 1.26826 3.78902 1.26723C3.99562 1.26525 4.20499 1.26723 4.41595 1.26723ZM6.01919 3.16669C6.7306 3.16669 7.4416 3.16669 8.15301 3.16669C8.43059 3.16669 8.54638 3.04772 8.54955 2.76737C8.54955 2.61589 8.54955 2.4644 8.54955 2.31292C8.54678 2.01234 8.43337 1.90012 8.12724 1.89972C7.40288 1.89972 6.67838 1.89972 5.95376 1.89972C5.26218 1.89972 4.57101 1.89972 3.87943 1.89972C3.60185 1.89972 3.48645 2.01869 3.48288 2.29865C3.48288 2.45013 3.48288 2.60161 3.48288 2.75309C3.48526 3.05407 3.59828 3.16629 3.90481 3.16669C4.60987 3.16722 5.31466 3.16722 6.01919 3.16669V3.16669ZM5.06748 1.25097H6.96575C6.96575 1.14272 6.9713 1.05032 6.96575 0.958718C6.95108 0.762824 6.83251 0.638704 6.63463 0.635135C6.21945 0.628394 5.80188 0.627601 5.38829 0.635135C5.20191 0.6391 5.08453 0.764014 5.07105 0.949202C5.06232 1.04715 5.06748 1.14549 5.06748 1.25097V1.25097Z" fill="#0F51AA"/>
<path d="M12.0312 4.38282C12.0312 4.80474 12.0312 5.22627 12.0312 5.6482C12.0312 5.88097 11.9099 6.0158 11.714 6.01381C11.5181 6.01183 11.4027 5.8778 11.4023 5.64066C11.4023 4.85629 11.4023 4.07219 11.4023 3.28835C11.4023 2.95644 11.2952 2.84937 10.9661 2.84858C10.5969 2.84858 10.2277 2.84858 9.85891 2.84858C9.63804 2.84858 9.50678 2.72962 9.50202 2.53927C9.49845 2.341 9.63169 2.21926 9.86486 2.21807C10.28 2.21807 10.6952 2.21411 11.1104 2.21807C11.3535 2.22145 11.5856 2.31942 11.7576 2.49119C11.9296 2.66296 12.0279 2.89501 12.0316 3.13806C12.0352 3.55284 12.0312 3.96763 12.0312 4.38282Z" fill="#0F51AA"/>
<path d="M6.16455 5.69792C5.38613 5.69792 4.60771 5.6999 3.82929 5.69792C3.5517 5.69792 3.38436 5.44096 3.53069 5.23198C3.56548 5.1871 3.60913 5.14986 3.65893 5.12257C3.70873 5.09528 3.76362 5.07853 3.82017 5.07336C5.3897 5.06384 6.95962 5.06583 8.52955 5.06781C8.73337 5.06781 8.86186 5.19391 8.86463 5.37751C8.86701 5.56984 8.73576 5.69475 8.51924 5.69713C7.73408 5.69911 6.94932 5.69792 6.16455 5.69792Z" fill="#0F51AA"/>
<path d="M2.22442 5.0665C2.3299 5.0665 2.43578 5.06214 2.54166 5.0665C2.72764 5.07641 2.85057 5.20648 2.84938 5.38374C2.85059 5.4234 2.84396 5.46291 2.82984 5.49999C2.81573 5.53707 2.79443 5.571 2.76715 5.59982C2.73988 5.62864 2.70718 5.65179 2.67093 5.66792C2.63468 5.68406 2.5956 5.69286 2.55594 5.69384C2.33189 5.70256 2.10705 5.70216 1.88181 5.69384C1.84215 5.69337 1.80297 5.68507 1.76652 5.66942C1.73008 5.65376 1.69709 5.63105 1.66945 5.60261C1.64181 5.57416 1.62007 5.54052 1.60547 5.50364C1.59088 5.46676 1.58372 5.42736 1.5844 5.3877C1.58225 5.34649 1.58848 5.30527 1.60271 5.26653C1.61695 5.2278 1.63888 5.19235 1.6672 5.16233C1.69552 5.1323 1.72963 5.10834 1.76747 5.09187C1.80531 5.0754 1.84609 5.06677 1.88735 5.0665C1.99997 5.06135 2.11259 5.0665 2.22442 5.0665Z" fill="#0F51AA"/>
<path d="M2.21604 8.547C2.11056 8.547 2.00507 8.55096 1.8988 8.547C1.71044 8.53827 1.58632 8.41336 1.58434 8.2365C1.58234 8.19528 1.58879 8.15409 1.60329 8.11546C1.6178 8.07682 1.64005 8.04156 1.66869 8.01185C1.69733 7.98213 1.73174 7.95859 1.76981 7.94267C1.80788 7.92675 1.84881 7.91878 1.89008 7.91926C2.10765 7.91265 2.32535 7.91265 2.54319 7.91926C2.58437 7.91895 2.62519 7.92703 2.66314 7.94302C2.70109 7.95901 2.73539 7.98257 2.76393 8.01226C2.79247 8.04196 2.81465 8.07715 2.82913 8.11571C2.84361 8.15426 2.85008 8.19536 2.84814 8.2365C2.84536 8.41257 2.72045 8.53748 2.5309 8.54581C2.4274 8.55057 2.32152 8.547 2.21604 8.547Z" fill="#0F51AA"/>
<path d="M4.10646 8.54652C4.00098 8.54652 3.8951 8.55128 3.78922 8.54652C3.74797 8.54629 3.7072 8.53775 3.66933 8.52139C3.63147 8.50503 3.5973 8.48119 3.56886 8.45131C3.54042 8.42143 3.51831 8.38612 3.50385 8.34749C3.48938 8.30887 3.48286 8.26772 3.48467 8.22651C3.48367 8.18681 3.49057 8.1473 3.50496 8.11029C3.51936 8.07328 3.54096 8.0395 3.56852 8.0109C3.59608 7.98231 3.62905 7.95948 3.6655 7.94374C3.70196 7.92799 3.74119 7.91964 3.7809 7.91918C4.00494 7.91125 4.22979 7.91086 4.45502 7.91918C4.49476 7.91985 4.53396 7.9284 4.57036 7.94433C4.60676 7.96026 4.63964 7.98326 4.66708 8.012C4.69452 8.04073 4.71599 8.07463 4.73024 8.11173C4.74448 8.14882 4.75121 8.18838 4.75005 8.2281C4.75243 8.40535 4.63109 8.53661 4.44392 8.54533C4.3313 8.55128 4.21868 8.54652 4.10646 8.54652Z" fill="#0F51AA"/>
</svg>
