<svg width="18" height="18" viewBox="0 0 18 18" fill="none" xmlns="http://www.w3.org/2000/svg">
<path d="M15.4501 18H0V0.243781C0.0681451 0.0473832 0.217484 0.000276794 0.409958 0.000276794C3.76888 0.00341722 7.12781 0.00341722 10.4867 0.000276794C10.5644 -0.00224605 10.6417 0.012503 10.7129 0.043459C10.7842 0.074415 10.8477 0.120806 10.8989 0.179281C12.355 1.71447 13.8127 3.24844 15.2717 4.78121C15.4715 4.99174 15.7546 5.15698 15.694 5.53166C16.2921 5.14901 16.6405 5.18234 16.9373 5.25844C17.9356 5.51499 18.3325 6.68721 17.6807 7.48295C17.0732 8.22397 16.4483 8.94977 15.8223 9.6763C15.7308 9.7786 15.683 9.91274 15.6893 10.0499C15.6925 12.5572 15.6939 15.0644 15.6937 17.5717C15.694 17.7688 15.6556 17.9275 15.4501 18ZM15.1315 5.59398H14.8973C13.511 5.59398 12.1243 5.59398 10.7372 5.59398C10.3747 5.59398 10.3142 5.53492 10.3142 5.17945C10.3142 3.71528 10.3142 2.251 10.3142 0.786592V0.57425H0.587208V17.4152H15.1191V10.534C15.0546 10.6036 15.0104 10.6492 14.9676 10.6974C13.7222 12.1468 12.4767 13.5954 11.2313 15.0432C11.1791 15.1091 11.1172 15.1667 11.0478 15.2142C10.0489 15.8307 9.0488 16.4452 8.04764 17.0579C7.90954 17.1427 7.77796 17.1517 7.64892 17.0416C7.51988 16.9314 7.56664 16.8086 7.62029 16.6814C8.06287 15.6284 8.50182 14.5743 8.94767 13.5231C9.00002 13.402 9.07001 13.2893 9.15536 13.1886C9.71829 12.5204 10.2866 11.857 10.8532 11.1917C12.2521 9.54899 13.6502 7.9063 15.0474 6.26362C15.0939 6.20374 15.1219 6.13156 15.1278 6.05599C15.1402 5.91213 15.1315 5.76719 15.1315 5.59398V5.59398ZM14.8415 7.36591L9.64144 13.46L10.9445 14.5721L16.1431 8.48016L14.8415 7.36591ZM10.9 5.03776H14.7712L10.9 0.979365V5.03776ZM16.5023 8.0388C16.7684 7.73261 17.0236 7.45215 17.2635 7.15973C17.5571 6.80208 17.4941 6.29949 17.1294 5.98207C16.7854 5.68276 16.2617 5.69979 15.9572 6.03533C15.6991 6.32015 15.4573 6.62018 15.1982 6.92564L16.5023 8.0388ZM8.44419 16.1766L10.503 14.9037C10.1203 14.5775 9.7491 14.2583 9.36487 13.9296C9.05605 14.683 8.76099 15.4037 8.44419 16.1766Z" fill="#1D1D1D" fill-opacity="0.75"/>
<path d="M7.83325 3.74503C7.92532 3.98165 8.00361 4.19544 8.09423 4.4038C8.10752 4.42953 8.12602 4.45222 8.14854 4.47044C8.17107 4.48865 8.19713 4.50199 8.22509 4.5096C8.38965 4.5433 8.5582 4.55635 8.72457 4.58425C8.89095 4.61215 8.98048 4.70963 8.98121 4.8803C8.98121 5.12742 8.98121 5.37419 8.98121 5.62132C8.98121 5.79271 8.88805 5.89055 8.7253 5.91917C8.56255 5.9478 8.39037 5.95939 8.22617 5.99491C8.1961 6.00436 8.1682 6.01967 8.14406 6.03994C8.11992 6.06021 8.10003 6.08505 8.08553 6.11303C8.01847 6.25363 7.9873 6.41343 7.90756 6.5446C7.81694 6.69389 7.83144 6.80079 7.94852 6.92109C8.02335 7.00757 8.09179 7.09936 8.15331 7.19576C8.29649 7.39614 8.28852 7.48564 8.10982 7.66682C7.96121 7.81684 7.81211 7.96601 7.66253 8.11433C7.50775 8.26833 7.39865 8.27812 7.21922 8.14622C7.06952 8.03751 6.92489 7.91975 6.79658 7.8201C6.55915 7.91214 6.33986 7.9933 6.12455 8.08353C6.10321 8.09445 6.08444 8.10979 6.0695 8.12854C6.05456 8.14729 6.04379 8.169 6.03792 8.19224C6.00747 8.35131 5.98971 8.51329 5.9676 8.67381C5.94005 8.87057 5.84291 8.96587 5.6479 8.97022C5.41881 8.97529 5.18925 8.97529 4.9592 8.97022C4.76455 8.96587 4.63805 8.87093 4.64131 8.67526C4.64819 8.27667 4.51082 8.0444 4.0976 7.92482C3.87504 7.86068 3.7431 7.85561 3.56476 7.99403C3.1316 8.33066 3.12508 8.32232 2.74122 7.93895C2.639 7.83677 2.53932 7.73132 2.43348 7.63312C2.29755 7.50702 2.29719 7.37476 2.40122 7.23235C2.49691 7.10118 2.60167 6.97544 2.68576 6.83702C2.71865 6.77435 2.72618 6.70144 2.70678 6.63338C2.64477 6.45172 2.57215 6.27386 2.4893 6.10071C2.47482 6.07505 2.45527 6.0526 2.43184 6.03472C2.40841 6.01685 2.38159 6.00392 2.35301 5.99672C2.18808 5.96374 2.01953 5.94889 1.8528 5.92425C1.66648 5.89707 1.56862 5.79815 1.56282 5.61552C1.55666 5.37491 1.55774 5.13358 1.56282 4.89298C1.56644 4.71977 1.65706 4.61215 1.83214 4.58461C2.02787 4.55417 2.2671 4.58461 2.40702 4.47989C2.53823 4.38169 2.54657 4.13312 2.64045 3.96897C2.72563 3.81968 2.71802 3.71133 2.6042 3.58741C2.51877 3.48619 2.43949 3.37995 2.36678 3.26926C2.27508 3.13989 2.27145 3.01198 2.38745 2.89422C2.56941 2.70966 2.75246 2.5263 2.93659 2.34416C3.04533 2.23545 3.16604 2.24632 3.28167 2.3235C3.42158 2.41735 3.5586 2.51628 3.68836 2.62354C3.77137 2.69202 3.83516 2.6855 3.92687 2.63803C4.0717 2.56212 4.22341 2.50012 4.37996 2.45287C4.5003 2.41663 4.5612 2.36626 4.5641 2.23545C4.5734 2.08547 4.59302 1.93631 4.62282 1.78903C4.65182 1.62379 4.75621 1.53538 4.92404 1.53538C5.15892 1.53248 5.39392 1.53248 5.62905 1.53538C5.80594 1.53791 5.90743 1.63321 5.93316 1.80678C5.95817 1.9731 5.97412 2.14124 6.00566 2.30611C6.01325 2.33118 6.02596 2.35439 6.043 2.37429C6.06003 2.39419 6.08101 2.41033 6.10461 2.4217C6.31376 2.5112 6.52726 2.5902 6.77048 2.68514C6.89662 2.59237 7.04995 2.47932 7.20545 2.36699C7.40553 2.22204 7.49543 2.22929 7.67666 2.40612C7.83071 2.55867 7.98513 2.71086 8.13628 2.86668C8.28743 3.02249 8.29287 3.14569 8.16637 3.316C8.05509 3.46348 7.93873 3.60915 7.83325 3.74503ZM7.43453 2.92538C7.30404 3.02503 7.18515 3.11634 7.06589 3.20657C6.86943 3.35477 6.77591 3.34535 6.55481 3.22976C6.32747 3.10895 6.09058 3.00702 5.84653 2.92502C5.61237 2.8482 5.53154 2.78007 5.50182 2.52968C5.48297 2.37133 5.45615 2.21407 5.43367 2.06333H5.14623C5.11832 2.25321 5.08824 2.43112 5.06685 2.61013C5.04547 2.78913 4.94288 2.8616 4.78448 2.91813C4.50892 3.01634 4.23885 3.12931 3.97544 3.25657C3.84495 3.31962 3.74201 3.33267 3.62674 3.24208C3.48175 3.12721 3.33133 3.0185 3.19467 2.91596L2.9645 3.11163C3.06926 3.2486 3.15806 3.37035 3.25448 3.48703C3.38135 3.64176 3.37663 3.78851 3.28529 3.96824C3.15347 4.22973 3.04069 4.50039 2.94783 4.77811C2.90107 4.91689 2.8351 4.99842 2.69663 5.02234C2.55817 5.04625 2.41028 5.06184 2.26892 5.09119C2.22542 5.10025 2.16416 5.13322 2.15292 5.16873C2.0942 5.35317 2.15292 5.43253 2.34612 5.45391C2.42985 5.46333 2.51286 5.47963 2.59659 5.49014C2.83582 5.51949 2.89056 5.59015 2.96378 5.81626C3.04711 6.08458 3.15284 6.34543 3.27986 6.59606C3.36214 6.75441 3.36648 6.87108 3.25521 7.00516C3.14393 7.13923 3.0457 7.27837 2.96124 7.38889L3.15408 7.62805C3.28493 7.5284 3.41107 7.43709 3.53177 7.33816C3.68945 7.21025 3.8377 7.22547 4.01387 7.31678C4.25769 7.44445 4.51139 7.5523 4.77252 7.63928C4.95376 7.69835 5.04583 7.79473 5.06903 7.97664C5.09114 8.14767 5.12086 8.31798 5.1466 8.48394C5.43658 8.51292 5.43657 8.51292 5.4692 8.24659C5.47898 8.16905 5.49348 8.09223 5.50218 8.01432C5.52901 7.77517 5.59534 7.7132 5.81608 7.62986C6.09555 7.52405 6.36886 7.40049 6.6389 7.27185C6.76649 7.21098 6.87414 7.19938 6.98941 7.29069C7.1344 7.4052 7.28229 7.51391 7.41206 7.61247L7.64223 7.41679C7.54255 7.2849 7.45229 7.15735 7.35225 7.03704C7.22285 6.87978 7.23662 6.73375 7.32833 6.5562C7.46334 6.30931 7.57266 6.04923 7.65455 5.78003C7.70929 5.58472 7.81476 5.5137 7.9902 5.49014C8.14462 5.46913 8.29867 5.4463 8.45236 5.42419V5.13431C8.29033 5.10858 8.1428 5.07307 7.9931 5.06365C7.79012 5.0506 7.70965 4.93284 7.64476 4.75673C7.54182 4.47663 7.41786 4.20341 7.28809 3.93454C7.22284 3.79902 7.2156 3.68887 7.31455 3.56965C7.42764 3.43195 7.53204 3.28592 7.63788 3.14497L7.43453 2.92538Z" fill="#1D1D1D" fill-opacity="0.75"/>
<path d="M5.08413 10.3762C5.98234 10.3762 6.88079 10.3762 7.77949 10.3762C7.98791 10.3762 8.08759 10.4505 8.10571 10.6107C8.12601 10.79 8.04445 10.9005 7.86539 10.9281C7.80525 10.9351 7.74466 10.9375 7.68416 10.9353H2.45728C2.15788 10.9353 2.03609 10.8563 2.03138 10.6618C2.02666 10.4603 2.15353 10.3755 2.46127 10.3755L5.08413 10.3762Z" fill="#0090FF"/>
<path d="M4.88188 12.21C5.71291 12.21 6.54406 12.21 7.37534 12.21C7.61167 12.21 7.72911 12.2966 7.73382 12.4695C7.73854 12.6423 7.60116 12.7543 7.37135 12.7546C5.70397 12.7546 4.03587 12.7546 2.36704 12.7546C2.15209 12.7546 2.0361 12.6597 2.03139 12.4876C2.02667 12.3093 2.14484 12.2104 2.37139 12.2104C3.20822 12.2096 4.04505 12.2095 4.88188 12.21Z" fill="#1D1D1D" fill-opacity="0.75"/>
<path d="M4.46614 14.604C3.76113 14.604 3.05648 14.604 2.35183 14.604C2.15392 14.604 2.04736 14.5181 2.03104 14.3612C2.01328 14.1858 2.13217 14.0619 2.33009 14.0605C2.79369 14.0579 3.25766 14.0605 3.72126 14.0605C4.67312 14.0605 5.62485 14.0605 6.57646 14.0605C6.81316 14.0605 6.91211 14.1445 6.90921 14.3384C6.90632 14.5214 6.80845 14.6044 6.58009 14.6047C5.87544 14.604 5.17079 14.604 4.46614 14.604Z" fill="#1D1D1D" fill-opacity="0.75"/>
<path d="M5.29231 6.89691C4.38395 6.8951 3.66697 6.1664 3.66407 5.24239C3.66117 4.32707 4.40316 3.57264 5.30608 3.57373C6.209 3.57482 6.94736 4.3249 6.94446 5.2442C6.94556 5.46145 6.90359 5.67677 6.82097 5.87771C6.73834 6.07866 6.6167 6.26124 6.46308 6.41491C6.30946 6.56859 6.1269 6.69031 5.92594 6.77304C5.72499 6.85577 5.50963 6.89787 5.29231 6.89691V6.89691ZM4.22337 5.24094C4.22808 5.88847 4.69024 6.3762 5.30137 6.37801C5.89256 6.37801 6.3935 5.86564 6.39096 5.26014C6.38843 4.64413 5.89909 4.14662 5.29883 4.14915C4.68335 4.15169 4.21938 4.62276 4.22337 5.24094Z" fill="#1D1D1D" fill-opacity="0.75"/>
</svg>
