<svg width="19" height="20" viewBox="0 0 19 20" fill="none" xmlns="http://www.w3.org/2000/svg">
<path fill-rule="evenodd" clip-rule="evenodd" d="M13.2035 19.8784C12.922 19.7161 12.7486 19.4158 12.7489 19.0909V11.7282C10.6289 11.2998 9.10461 9.43658 9.10461 7.27375C9.10461 5.11091 10.6289 3.24774 12.7489 2.81929V0.910396C12.7489 0.585141 12.9224 0.284599 13.2041 0.121971C13.4858 -0.0406569 13.8328 -0.0406569 14.1145 0.121971C14.3962 0.284599 14.5696 0.585141 14.5696 0.910396V2.81929C16.6882 3.24932 18.2108 5.11198 18.2108 7.27375C18.2108 9.43551 16.6882 11.2982 14.5696 11.7282V19.0909C14.5691 19.4158 14.3955 19.7158 14.114 19.8782C13.8325 20.0405 13.4859 20.0406 13.2043 19.8784H13.2035ZM11.7281 5.34561C10.8047 6.26697 10.6607 7.71244 11.3845 8.79778C12.1082 9.88311 13.4979 10.3059 14.7035 9.80753C15.9091 9.30915 16.5946 8.02845 16.3407 6.74888C16.0867 5.46933 14.9642 4.54741 13.6597 4.54713C12.9368 4.54727 12.2436 4.83415 11.732 5.34482L11.7281 5.34561ZM4.10086 19.8784C3.81897 19.7164 3.64525 19.416 3.64549 19.0908V17.182C1.52505 16.7543 0 14.8911 0 12.7279C0 10.5647 1.52505 8.70146 3.64549 8.27381V0.910396C3.64554 0.585141 3.81901 0.284598 4.10072 0.121971C4.38238 -0.0406569 4.72943 -0.0406569 5.01109 0.121971C5.2928 0.284598 5.46628 0.585141 5.46628 0.910396V8.2738C7.58672 8.70144 9.11177 10.5647 9.11177 12.7279C9.11177 14.891 7.58672 16.7543 5.46628 17.1819V19.0908C5.46571 19.4158 5.29209 19.7158 5.01062 19.8781C4.72915 20.0405 4.38252 20.0406 4.10096 19.8784H4.10086ZM2.62632 10.8002C1.70524 11.7204 1.56245 13.1631 2.28526 14.246C3.00807 15.3289 4.39518 15.7505 5.59831 15.2529C6.80147 14.7553 7.48563 13.4772 7.23239 12.2C6.97914 10.9229 5.85907 10.0025 4.55705 10.0017C3.83467 10.0018 3.14195 10.2887 2.63103 10.7994L2.62632 10.8002Z" fill="#0F51AA" fill-opacity="1"/>
</svg>
