<svg width="32" height="32" viewBox="0 0 32 32" fill="none" xmlns="http://www.w3.org/2000/svg">
<path d="M18.09 25.1035C17.6437 24.5376 17.0619 24.1622 16.3579 23.9961C15.1594 23.7136 14.2734 23.05 13.6634 22.007C13.3027 21.3915 12.9262 20.7841 12.5414 20.1824C12.1025 19.496 12.0302 18.7877 12.3286 18.0321C12.5405 17.4955 12.7333 16.9516 12.9386 16.402C12.8497 16.3483 12.7832 16.3027 12.7109 16.266C11.7036 15.7458 10.6937 15.232 9.69139 14.7036C9.51519 14.6108 9.3872 14.6116 9.21017 14.7044C7.89531 15.3924 6.57547 16.0698 5.25397 16.7448C4.70292 17.0265 4.12528 16.8515 3.94077 16.332C3.87594 16.1496 3.87262 15.929 3.9042 15.7352C4.06461 14.7443 4.24663 13.7567 4.42034 12.7682C4.49597 12.3391 4.55083 11.9051 4.65056 11.4809C4.70292 11.2578 4.62978 11.1316 4.47519 10.9851C3.42381 9.99012 2.38239 8.98457 1.33433 7.98635C1.04676 7.71196 0.883858 7.40908 1.01767 7.00686C1.15564 6.59406 1.47729 6.43284 1.88454 6.37585C3.35981 6.17067 4.8359 5.96874 6.30868 5.74646C6.42836 5.72855 6.56799 5.59176 6.62783 5.47452C7.29856 4.17178 7.95515 2.86254 8.61341 1.55329C8.80125 1.18038 9.08716 0.972756 9.526 1.00288C9.91248 1.02894 10.1369 1.25529 10.2981 1.57771C10.9406 2.86091 11.5939 4.14003 12.2305 5.42648C12.3427 5.65283 12.479 5.74239 12.74 5.77659C14.1862 5.96304 15.629 6.17718 17.0719 6.38399C17.4584 6.43936 17.7534 6.61848 17.8839 6.99872C18.016 7.38302 17.8797 7.69242 17.5988 7.9603C16.5291 8.98132 15.4611 10.0031 14.3906 11.0225C14.3092 11.0999 14.2111 11.1593 14.1188 11.2285C14.7547 12.2691 15.3597 13.2584 15.9715 14.2582C16.6339 13.3243 17.2273 13.1281 18.2995 13.4676C18.6311 12.5085 19.5487 11.9426 20.7206 12.3945C20.9367 11.7504 21.353 11.3083 22.0545 11.1805C22.746 11.0551 23.3361 11.2749 23.7035 11.8433C24.5014 13.0768 25.2669 14.3315 26.0082 15.5984C26.4404 16.3361 26.5019 17.1584 26.3806 17.993C26.2892 18.6207 26.3648 19.2249 26.6216 19.8087C26.6898 19.9626 26.7654 20.0521 26.9649 20.0301C27.2948 19.9927 27.5467 20.1466 27.7154 20.421C28.4609 21.6276 29.2098 22.8318 29.9445 24.045C30.2246 24.5067 30.0883 24.9276 29.5829 25.2272C27.6788 26.3565 25.7722 27.4818 23.8664 28.6078C23.0153 29.111 22.1651 29.615 21.3123 30.1149C20.7189 30.4634 20.3125 30.3665 19.9567 29.7901C19.2769 28.6876 18.5995 27.5836 17.9213 26.4795C17.5498 25.8729 17.5789 25.6205 18.09 25.1035ZM13.5728 16.6886C13.3368 17.3156 13.1165 17.8733 12.9179 18.4384C12.7691 18.8617 12.8057 19.2835 13.0409 19.6711C13.5063 20.4381 13.9726 21.2059 14.4596 21.9606C14.8926 22.6307 15.5152 23.0671 16.3006 23.2682C17.012 23.4506 17.6695 23.7332 18.2114 24.2331C18.3909 24.3992 18.5538 24.5824 18.7316 24.7656C21.1976 23.309 23.6594 21.8548 26.1346 20.3933C25.6858 19.5774 25.5245 18.7486 25.6899 17.8652C25.8129 17.2065 25.7556 16.5518 25.4181 15.9721C24.6842 14.7125 23.9154 13.4725 23.1417 12.2357C22.9272 11.8929 22.5657 11.7798 22.1634 11.853C21.7711 11.9247 21.5301 12.1673 21.4162 12.5427C21.3289 12.8301 21.4054 13.0825 21.5542 13.3259C21.9274 13.935 22.303 14.5424 22.6754 15.1514C22.7893 15.3378 22.8084 15.5341 22.6039 15.6611C22.3903 15.7938 22.2083 15.7083 22.0828 15.5023C22.0346 15.4242 21.9864 15.346 21.9382 15.2678C21.5592 14.6507 21.1852 14.0302 20.8003 13.4171C20.487 12.9188 19.906 12.7698 19.4323 13.054C18.9702 13.3316 18.8397 13.8918 19.1306 14.3877C19.3218 14.7133 19.5246 15.0317 19.7224 15.3533C19.9626 15.7449 20.2036 16.135 20.4405 16.5282C20.5527 16.7147 20.5244 16.8922 20.3332 17.0021C20.1471 17.1087 19.9725 17.0591 19.8504 16.8767C19.7938 16.792 19.7423 16.7041 19.6883 16.617C19.2445 15.8956 18.8073 15.1709 18.356 14.4544C18.09 14.0327 17.6146 13.8796 17.1716 14.0465C16.7245 14.2151 16.4818 14.6417 16.5798 15.1278C16.6089 15.2719 16.6854 15.4128 16.7627 15.5414C17.2273 16.3092 17.6985 17.0737 18.169 17.8383C18.2903 18.0353 18.277 18.221 18.0717 18.3382C17.8714 18.453 17.6927 18.3871 17.5747 18.1868C17.5489 18.1428 17.5207 18.1005 17.4941 18.0565C16.9223 17.1267 16.3496 16.1977 15.7778 15.2678C14.8802 13.8079 13.985 12.3464 13.0833 10.889C12.8073 10.4428 12.3444 10.2873 11.8814 10.4599C11.4451 10.6228 11.2024 11.0315 11.2996 11.5151C11.3404 11.7171 11.4509 11.9125 11.5614 12.0924C12.9844 14.4153 14.4122 16.7342 15.8401 19.0539C15.9706 19.2656 16.0861 19.4781 15.8227 19.6678C15.6249 19.8103 15.4387 19.7183 15.2409 19.3975C14.9242 18.8854 14.6092 18.3724 14.2934 17.8603C14.0657 17.4882 13.8371 17.1161 13.5728 16.6886ZM13.7756 10.6627C14.2942 10.1684 14.7979 9.68805 15.3007 9.20767C15.9016 8.63283 16.505 8.06045 17.1018 7.48154C17.3154 7.27392 17.2655 7.12899 16.9755 7.06304C16.9148 7.0492 16.8525 7.04513 16.7909 7.03617C15.2957 6.82529 13.8005 6.61115 12.3037 6.40679C12.0302 6.36933 11.8673 6.24802 11.7451 5.99968C11.0794 4.64891 10.3987 3.30465 9.71383 1.96365C9.65649 1.85047 9.53015 1.77068 9.4354 1.67542C9.35063 1.76987 9.24009 1.85129 9.1844 1.95958C8.50537 3.29325 7.82882 4.62855 7.16807 5.97119C7.03675 6.23743 6.8647 6.37259 6.5655 6.41249C5.06862 6.61278 3.57341 6.82448 2.07903 7.04187C1.9394 7.06223 1.8114 7.15505 1.67842 7.21367C1.74658 7.32929 1.79312 7.46689 1.88704 7.55726C2.96502 8.59864 4.04383 9.6392 5.13678 10.6651C5.3562 10.8711 5.431 11.073 5.37864 11.3645C5.1135 12.8211 4.86001 14.2802 4.61233 15.7401C4.58906 15.876 4.6356 16.0234 4.65056 16.1651C4.79435 16.1325 4.95309 16.1284 5.07943 16.0641C6.43916 15.3729 7.79558 14.6759 9.147 13.97C9.36393 13.8568 9.54179 13.8584 9.75622 13.9708C10.6863 14.4601 11.623 14.9364 12.558 15.4168C12.6386 15.4583 12.7234 15.4925 12.8813 15.5642C12.6029 15.1091 12.3735 14.7353 12.1449 14.3616C11.6878 13.6134 11.209 12.8757 10.7785 12.1128C10.3197 11.3002 10.5857 10.4257 11.3869 9.95674C12.1956 9.48287 13.0874 9.67747 13.6202 10.4436C13.6659 10.5104 13.7124 10.5739 13.7756 10.6627ZM29.4009 24.4985C29.3544 24.4122 29.3286 24.3568 29.297 24.3055C28.5922 23.1583 27.8824 22.0135 27.1851 20.8623C27.0613 20.6571 26.9549 20.7027 26.7895 20.8004C24.0601 22.4158 21.3289 24.0295 18.5937 25.6351C18.3684 25.7679 18.3527 25.8753 18.4865 26.0887C19.1688 27.1781 19.8454 28.2716 20.5036 29.3756C20.6615 29.6402 20.7904 29.6402 21.0356 29.4912C21.9947 28.9083 22.9663 28.3457 23.9329 27.7749C25.6716 26.7482 27.4095 25.7223 29.1466 24.6931C29.2389 24.6386 29.317 24.5636 29.4009 24.4985Z" fill="white" stroke="white" stroke-width="0.5"/>
<path d="M4.77961 24.9959C4.8835 24.3868 4.99404 23.7884 5.07881 23.1867C5.09461 23.0727 5.04224 22.9115 4.96079 22.8293C4.58013 22.4417 4.17953 22.0729 3.78474 21.6991C3.59607 21.5208 3.46309 21.3238 3.55285 21.0527C3.64427 20.7775 3.8504 20.6659 4.13631 20.6317C4.68984 20.5649 5.24338 20.4843 5.79276 20.3883C5.90081 20.3695 6.03046 20.2718 6.08282 20.1749C6.33965 19.7011 6.57735 19.2174 6.81589 18.7338C6.9364 18.4895 7.09348 18.3063 7.39685 18.3047C7.70021 18.3031 7.86229 18.4838 7.9828 18.7273C8.22217 19.2101 8.45572 19.6962 8.71503 20.1692C8.77072 20.271 8.91533 20.3679 9.03335 20.3883C9.60351 20.4876 10.1787 20.5576 10.7505 20.6431C10.9957 20.6797 11.2101 20.8059 11.2292 21.0502C11.2442 21.2391 11.196 21.4891 11.0738 21.6226C10.6881 22.0452 10.2576 22.4295 9.83706 22.8211C9.71156 22.9375 9.67665 23.0426 9.71239 23.2176C9.82376 23.764 9.90189 24.316 9.99747 24.8656C10.0399 25.1074 9.98002 25.3085 9.77639 25.4575C9.55946 25.6171 9.33506 25.5976 9.10649 25.4787C8.6128 25.2222 8.11329 24.9771 7.62624 24.7093C7.46002 24.6181 7.33701 24.6246 7.17494 24.7125C6.66794 24.9869 6.1568 25.254 5.63651 25.5039C5.22676 25.6985 4.77379 25.416 4.77961 24.9959ZM9.27854 24.7931C9.19792 24.3119 9.17132 23.8731 9.04416 23.4643C8.87461 22.918 9.04083 22.5484 9.47552 22.2023C9.80465 21.9401 10.0714 21.6039 10.3914 21.2741C9.84205 21.1976 9.31345 21.1186 8.78318 21.0535C8.49727 21.0185 8.29032 20.9248 8.16316 20.6382C7.93875 20.135 7.67029 19.6498 7.40017 19.1173C7.21566 19.4804 7.05692 19.798 6.89318 20.1131C6.34131 21.174 6.66711 20.9305 5.46778 21.121C5.11705 21.1764 4.76548 21.2285 4.4405 21.2782C4.79955 21.6519 5.12203 22.0387 5.49937 22.366C5.80606 22.6314 5.87421 22.9025 5.78611 23.2795C5.67308 23.7632 5.61157 24.2582 5.52015 24.7964C6.0795 24.5098 6.58732 24.2606 7.08268 23.9895C7.30626 23.8666 7.49326 23.8633 7.71767 23.9863C8.21219 24.2582 8.71919 24.5065 9.27854 24.7931Z" fill="white"/>
<path d="M26.8793 5.24831C26.8303 5.32566 26.763 5.48931 26.6466 5.60656C26.256 5.99901 25.8396 6.36622 25.4539 6.76355C25.3666 6.85393 25.3143 7.0298 25.3317 7.15519C25.4016 7.66651 25.5079 8.17376 25.5935 8.68346C25.6384 8.95133 25.6467 9.21758 25.3824 9.39752C25.1256 9.57176 24.8796 9.50581 24.6261 9.36902C24.164 9.12069 23.6986 8.8748 23.2231 8.65252C23.1068 8.59878 22.9206 8.59634 22.8051 8.65007C22.3106 8.88131 21.8302 9.14023 21.3464 9.39263C21.0996 9.52128 20.8544 9.56362 20.6209 9.38123C20.4039 9.21188 20.3632 8.99123 20.4189 8.72498C20.5228 8.22913 20.5943 7.72676 20.6898 7.22928C20.7314 7.01433 20.699 6.85474 20.517 6.69597C20.123 6.35156 19.759 5.97458 19.3775 5.61633C19.1921 5.44209 19.0841 5.24424 19.1606 4.99102C19.2403 4.72803 19.4431 4.60345 19.7116 4.56681C20.2236 4.49679 20.7347 4.41944 21.2484 4.35756C21.4894 4.32825 21.6556 4.2509 21.762 4.00908C21.9573 3.5629 22.2009 3.13788 22.4111 2.69739C22.5333 2.44173 22.6904 2.23655 23.0012 2.23248C23.3287 2.22841 23.4883 2.44824 23.6163 2.71042C23.829 3.14928 24.0726 3.57511 24.2662 4.02292C24.3685 4.26067 24.5314 4.32744 24.7599 4.35675C25.2827 4.4227 25.8063 4.49109 26.3258 4.57659C26.6923 4.63602 26.8893 4.85912 26.8793 5.24831ZM21.1195 8.73801C21.5135 8.5369 21.8601 8.35859 22.2092 8.18272C23.1683 7.70071 22.8475 7.70071 23.8049 8.17783C24.1474 8.34882 24.4881 8.52306 24.8887 8.72661C24.7799 8.09478 24.6685 7.53949 24.5995 6.97932C24.5804 6.8238 24.6402 6.61374 24.7441 6.49893C25.0383 6.17244 25.3741 5.88258 25.6925 5.57806C25.8047 5.4714 25.9144 5.3623 26.054 5.22714C25.4456 5.13676 24.9062 5.0358 24.3618 4.9845C24.0493 4.95519 23.8814 4.81678 23.7576 4.55216C23.5282 4.06363 23.2755 3.58569 23.0079 3.0532C22.7286 3.60931 22.4726 4.10516 22.2299 4.60671C22.1236 4.82736 21.9798 4.94542 21.7155 4.97392C21.1478 5.0358 20.5843 5.13595 20.0557 5.21493C20.4405 5.61714 20.8054 6.03076 21.2076 6.40774C21.4262 6.61211 21.4686 6.82055 21.4171 7.08842C21.3149 7.6144 21.2259 8.14282 21.1195 8.73801Z" fill="white"/>
<path d="M20.5761 26.1292C20.6201 26.165 20.7348 26.2212 20.7971 26.3124C20.9808 26.5803 21.147 26.8604 21.3141 27.1396C21.428 27.3294 21.4263 27.515 21.2219 27.642C21.0107 27.7731 20.8462 27.6787 20.7273 27.4938C20.547 27.2113 20.3641 26.9288 20.2012 26.6373C20.0608 26.3857 20.227 26.1186 20.5761 26.1292Z" fill="#1D1D1D" fill-opacity="0.75"/>
</svg>
