<svg width="24" height="16" viewBox="0 0 24 16" fill="none" xmlns="http://www.w3.org/2000/svg">
<g clip-path="url(#clip0_31_2125)">
<path d="M11.9692 4.13278C11.8142 4.13278 11.7029 4.14864 11.5977 4.12912C11.3482 4.08397 11.2088 3.91681 11.2172 3.66301C11.2255 3.42447 11.3643 3.25304 11.6024 3.23596C11.8902 3.21399 12.1792 3.21399 12.4669 3.23596C12.7218 3.25365 12.866 3.43179 12.8678 3.68315C12.8758 4.87972 12.8758 6.07629 12.8678 7.27287C12.8683 7.33425 12.8566 7.3951 12.8333 7.4517C12.81 7.5083 12.7757 7.55946 12.7323 7.60206C12.689 7.64466 12.6376 7.67779 12.5813 7.69945C12.5249 7.7211 12.4649 7.73081 12.4047 7.72799C12.1582 7.72067 11.9764 7.53276 11.974 7.2448C11.9668 6.32968 11.9704 5.41883 11.9698 4.50615L11.9692 4.13278Z" fill="#1D1D1D" fill-opacity="0.75"/>
<path d="M20.3413 11.2683C20.6715 11.2683 20.9396 11.2628 21.2064 11.2683C21.5229 11.2763 21.7161 11.463 21.7119 11.7418C21.7072 12.0096 21.5271 12.1841 21.216 12.1877C20.6494 12.1951 20.0822 12.2042 19.5169 12.1816C19.0484 12.1627 18.8635 11.7649 19.134 11.3702C19.5037 10.8309 19.8974 10.3087 20.2707 9.7712C20.4042 9.58268 20.5185 9.3807 20.6117 9.16844C20.7218 8.91159 20.6189 8.67732 20.3933 8.58825C20.338 8.56478 20.2787 8.55286 20.2188 8.55318C20.1589 8.5535 20.0997 8.56606 20.0447 8.59012C19.9896 8.61418 19.9398 8.64924 19.8983 8.69325C19.8568 8.73725 19.8243 8.7893 19.8028 8.84631C19.7825 8.89207 19.7717 8.94271 19.7508 8.98846C19.6461 9.2209 19.4708 9.33011 19.2237 9.26361C18.9599 9.19284 18.8647 8.99761 18.8994 8.72979C18.9748 8.12581 19.612 7.59198 20.242 7.62127C21.0287 7.65787 21.8573 8.42047 21.4816 9.39417C21.3285 9.79255 21.0784 10.1549 20.8564 10.5234C20.7122 10.7638 20.5393 10.9846 20.3413 11.2683Z" fill="#1D1D1D" fill-opacity="0.75"/>
<path d="M4.8082 11.7937C5.40647 12.6356 5.07085 13.508 4.51445 13.8679C3.696 14.3981 2.59696 13.9039 2.4462 12.9272C2.43169 12.8072 2.44064 12.6855 2.47252 12.5691C2.52577 12.3562 2.68911 12.2158 2.88773 12.2598C3.03551 12.2927 3.17609 12.4349 3.28139 12.5648C3.35139 12.649 3.33763 12.7991 3.38669 12.9077C3.48301 13.1194 3.68105 13.2274 3.87549 13.1383C4.02027 13.0718 4.19018 12.8833 4.19915 12.7393C4.20813 12.5953 4.04121 12.4343 3.92813 12.2982C3.88685 12.2494 3.77856 12.2592 3.70078 12.2421C3.46147 12.1902 3.33524 12.0334 3.33345 11.7937C3.33165 11.5539 3.47703 11.4038 3.70258 11.3422C3.75942 11.3263 3.82224 11.3379 3.88206 11.3202C4.09206 11.2531 4.22428 11.1134 4.22368 10.8798C4.22308 10.6461 4.09984 10.4979 3.88206 10.4423C3.66429 10.3868 3.49797 10.4869 3.38669 10.6821C3.37837 10.7005 3.37138 10.7194 3.36576 10.7388C3.20303 11.1138 2.98584 11.2403 2.71423 11.1183C2.45876 11.0042 2.39116 10.7157 2.53474 10.3575C2.60447 10.1835 2.70839 10.026 2.8401 9.89446C2.97182 9.76298 3.12854 9.66038 3.30061 9.593C3.47268 9.52561 3.65646 9.49486 3.84063 9.50265C4.02479 9.51043 4.20545 9.55658 4.37147 9.63825C4.5369 9.72084 4.68408 9.83695 4.80405 9.97948C4.92402 10.122 5.01425 10.288 5.06923 10.4672C5.12421 10.6465 5.14278 10.8353 5.12383 11.0221C5.10487 11.209 5.04877 11.3899 4.95896 11.5539C4.91349 11.6308 4.86264 11.7058 4.8082 11.7937Z" fill="#1D1D1D" fill-opacity="0.75"/>
<path d="M6.9928 16.0001H0.400391V8.68701C0.400707 8.31878 0.544246 7.96573 0.799525 7.7053C1.0548 7.44487 1.40097 7.29834 1.76207 7.29785H5.63172C5.99282 7.29834 6.33899 7.44487 6.59427 7.7053C6.84955 7.96573 6.99309 8.31878 6.9934 8.68701L6.9928 16.0001ZM1.23738 15.1459H6.15522V8.68701C6.15522 8.54521 6.10002 8.40921 6.00175 8.30889C5.90348 8.20857 5.77018 8.15213 5.63112 8.15197H1.76147C1.62242 8.15213 1.48912 8.20857 1.39085 8.30889C1.29258 8.40921 1.23738 8.54521 1.23738 8.68701V15.1459Z" fill="#1D1D1D" fill-opacity="0.75"/>
<path d="M23.5995 16H17.0059V6.84387C17.0063 6.47565 17.15 6.12265 17.4054 5.86234C17.6608 5.60202 18.007 5.45565 18.3681 5.45532H22.2378C22.5989 5.45565 22.9451 5.60202 23.2005 5.86234C23.4559 6.12265 23.5996 6.47565 23.6001 6.84387L23.5995 16ZM17.8434 15.1459H22.7619V6.84387C22.7617 6.70207 22.7064 6.56614 22.608 6.46593C22.5096 6.36572 22.3762 6.30944 22.2372 6.30944H18.3681C18.2291 6.3096 18.0959 6.36594 17.9975 6.46611C17.8992 6.56628 17.8438 6.70212 17.8434 6.84387V15.1459Z" fill="#1D1D1D" fill-opacity="0.75"/>
<path d="M13.9696 0H10.1C9.73897 0.000484258 9.3929 0.146931 9.13763 0.407229C8.88237 0.667527 8.73876 1.02043 8.73828 1.38855V6.30946H9.57587V1.38855C9.57603 1.24686 9.63129 1.11101 9.72954 1.01082C9.8278 0.910633 9.96101 0.854276 10.1 0.854114H13.9696C14.1086 0.854275 14.2419 0.910614 14.3402 1.01079C14.4386 1.11096 14.494 1.2468 14.4943 1.38855V15.1459H9.57587V8.15191H8.73828V16H15.3319V1.38855C15.3314 1.02032 15.1877 0.667332 14.9323 0.407016C14.6769 0.146701 14.3307 0.000322825 13.9696 0V0Z" fill="#1D1D1D" fill-opacity="0.75"/>
</g>
<defs>
<clipPath id="clip0_31_2125">
<rect width="23.2" height="16" fill="white" transform="translate(0.400391)"/>
</clipPath>
</defs>
</svg>
