<svg width="19" height="18" viewBox="0 0 19 18" fill="none" xmlns="http://www.w3.org/2000/svg">
<path d="M10.9817 14.4622C10.7139 14.1227 10.3649 13.8975 9.94248 13.7978C9.22339 13.6283 8.69181 13.2302 8.32578 12.6044C8.10935 12.2351 7.88345 11.8706 7.65257 11.5096C7.38927 11.0978 7.34588 10.6728 7.52491 10.2194C7.65207 9.89749 7.76776 9.57116 7.89093 9.24141C7.83757 9.20917 7.79768 9.18181 7.7543 9.15983C7.1499 8.84766 6.54401 8.53941 5.94261 8.22236C5.83689 8.16667 5.76009 8.16716 5.65388 8.22285C4.86497 8.63565 4.07308 9.0421 3.28018 9.44708C2.94956 9.61611 2.60298 9.51107 2.49228 9.1994C2.45338 9.08997 2.45138 8.95758 2.47033 8.84131C2.56658 8.24678 2.67579 7.65421 2.78001 7.06115C2.82539 6.8037 2.8583 6.54332 2.91814 6.2888C2.94956 6.15494 2.90568 6.07922 2.81292 5.99129C2.1821 5.39432 1.55726 4.79099 0.92843 4.19207C0.755888 4.02744 0.658148 3.84571 0.738434 3.60438C0.821214 3.3567 1.0142 3.25997 1.25855 3.22578C2.1437 3.10267 3.02935 2.98152 3.913 2.84815C3.98481 2.8374 4.06859 2.75533 4.10449 2.68499C4.50692 1.90335 4.90088 1.11781 5.29583 0.332274C5.40853 0.108532 5.58007 -0.0160411 5.84337 0.00203416C6.07526 0.0176668 6.2099 0.153475 6.30664 0.346929C6.69212 1.11684 7.08408 1.8843 7.46606 2.65616C7.53338 2.79197 7.61517 2.84571 7.77175 2.86623C8.63944 2.9781 9.50514 3.10658 10.3708 3.23066C10.6027 3.26388 10.7798 3.37136 10.8581 3.59949C10.9373 3.83008 10.8556 4.01571 10.687 4.17644C10.0452 4.78904 9.40441 5.40213 8.76212 6.01376C8.71325 6.06017 8.6544 6.09583 8.59905 6.13736C8.98054 6.76168 9.34357 7.35524 9.7106 7.95514C10.108 7.39481 10.4641 7.27707 11.1074 7.48079C11.3064 6.90531 11.8569 6.56579 12.56 6.83692C12.6897 6.4505 12.9395 6.18523 13.3604 6.10853C13.7753 6.0333 14.1294 6.1652 14.3498 6.50619C14.8285 7.2463 15.2878 7.9991 15.7326 8.75924C15.9919 9.20184 16.0288 9.69525 15.956 10.196C15.9012 10.5726 15.9465 10.9351 16.1006 11.2854C16.1415 11.3777 16.1869 11.4314 16.3066 11.4183C16.5045 11.3958 16.6556 11.4881 16.7569 11.6527C17.2042 12.3767 17.6535 13.0993 18.0943 13.8271C18.2624 14.1041 18.1806 14.3567 17.8774 14.5365C16.7349 15.2141 15.591 15.8892 14.4475 16.5648C13.9369 16.8667 13.4267 17.1691 12.9151 17.4691C12.559 17.6782 12.3152 17.62 12.1017 17.2741C11.6938 16.6127 11.2874 15.9503 10.8805 15.2878C10.6576 14.9239 10.675 14.7724 10.9817 14.4622ZM8.27142 9.41337C8.1298 9.78953 7.99765 10.1242 7.87847 10.4632C7.7892 10.7172 7.81114 10.9703 7.95227 11.2028C8.23153 11.663 8.51128 12.1237 8.80351 12.5765C9.06332 12.9786 9.43683 13.2404 9.90807 13.3611C10.3349 13.4705 10.7294 13.64 11.0545 13.94C11.1622 14.0397 11.26 14.1496 11.3667 14.2595C12.8463 13.3855 14.3233 12.513 15.8084 11.6361C15.5391 11.1466 15.4424 10.6493 15.5416 10.1193C15.6154 9.72407 15.581 9.3313 15.3785 8.98347C14.9382 8.22773 14.4769 7.48372 14.0127 6.74165C13.884 6.53599 13.6671 6.46808 13.4257 6.51205C13.1904 6.55504 13.0457 6.70062 12.9774 6.92583C12.9251 7.09827 12.9709 7.24972 13.0602 7.39578C13.2841 7.7612 13.5095 8.12563 13.7329 8.49104C13.8012 8.60291 13.8127 8.72065 13.69 8.79686C13.5619 8.87649 13.4527 8.82519 13.3774 8.7016C13.3484 8.6547 13.3195 8.6078 13.2906 8.5609C13.0632 8.19061 12.8388 7.81835 12.6079 7.4505C12.4199 7.15152 12.0713 7.06212 11.7871 7.23262C11.5098 7.3992 11.4315 7.7353 11.6061 8.03281C11.7208 8.22822 11.8424 8.41923 11.9611 8.6122C12.1052 8.84717 12.2499 9.08118 12.392 9.31713C12.4593 9.429 12.4423 9.5355 12.3276 9.60145C12.2159 9.66545 12.1112 9.63565 12.0379 9.52622C12.004 9.47541 11.9731 9.42265 11.9407 9.37038C11.6744 8.93755 11.4121 8.50277 11.1413 8.07287C10.9817 7.81982 10.6965 7.72798 10.4307 7.82812C10.1624 7.92925 10.0168 8.18523 10.0756 8.47688C10.0931 8.56335 10.139 8.64786 10.1853 8.72505C10.4641 9.18572 10.7468 9.64444 11.0291 10.1032C11.1019 10.2214 11.0939 10.3328 10.9708 10.4031C10.8506 10.472 10.7434 10.4324 10.6725 10.3122C10.6571 10.2859 10.6401 10.2605 10.6242 10.2341C10.2811 9.67619 9.9375 9.11879 9.59441 8.5609C9.05584 7.68499 8.51876 6.80809 7.9777 5.93364C7.81214 5.66593 7.53438 5.57263 7.25662 5.67619C6.99481 5.7739 6.8492 6.01913 6.90755 6.30931C6.93198 6.43047 6.9983 6.54771 7.06463 6.65568C7.91836 8.04942 8.77508 9.44073 9.63181 10.8325C9.7101 10.9595 9.77942 11.087 9.62134 11.2009C9.50265 11.2864 9.39095 11.2312 9.27226 11.0387C9.08227 10.7314 8.89327 10.4236 8.70377 10.1164C8.56714 9.8931 8.43 9.66984 8.27142 9.41337ZM8.3931 5.79783C8.70427 5.5013 9.00647 5.21308 9.30817 4.92485C9.66871 4.57995 10.0307 4.23652 10.3888 3.88919C10.517 3.76461 10.487 3.67766 10.313 3.63809C10.2766 3.62978 10.2392 3.62734 10.2023 3.62197C9.30518 3.49544 8.40806 3.36696 7.50994 3.24434C7.34588 3.22187 7.24814 3.14908 7.17484 3.00008C6.7754 2.18963 6.36698 1.38308 5.95607 0.578488C5.92166 0.510583 5.84587 0.462708 5.78902 0.405552C5.73815 0.46222 5.67183 0.511072 5.63842 0.576045C5.231 1.37624 4.82508 2.17741 4.42863 2.98298C4.34984 3.14273 4.24661 3.22382 4.06709 3.24776C3.16898 3.36794 2.27186 3.49495 1.37524 3.62539C1.29147 3.6376 1.21467 3.69329 1.13488 3.72846C1.17577 3.79783 1.2037 3.88039 1.26005 3.93462C1.90683 4.55944 2.55411 5.18376 3.20987 5.7993C3.34152 5.92289 3.3864 6.04405 3.35498 6.21894C3.19591 7.0929 3.04381 7.96833 2.8952 8.84424C2.88124 8.92583 2.90917 9.01425 2.91814 9.09925C3.00441 9.07971 3.09966 9.07727 3.17546 9.03868C3.99129 8.62392 4.80513 8.20575 5.61598 7.7822C5.74613 7.7143 5.85285 7.71527 5.98151 7.78269C6.53952 8.07629 7.10153 8.36208 7.66254 8.6503C7.71091 8.67522 7.76178 8.69573 7.85652 8.73872C7.68947 8.46564 7.55183 8.24141 7.4147 8.01718C7.14043 7.56823 6.85319 7.12563 6.59488 6.66789C6.31961 6.18035 6.47918 5.65567 6.95991 5.37429C7.44512 5.08997 7.9802 5.20673 8.29985 5.66642C8.32727 5.70648 8.3552 5.74459 8.3931 5.79783ZM17.7682 14.0993C17.7403 14.0475 17.7248 14.0142 17.7059 13.9835C17.283 13.2951 16.8571 12.6083 16.4387 11.9175C16.3644 11.7944 16.3006 11.8218 16.2014 11.8804C14.5637 12.8496 12.9251 13.8179 11.2839 14.7812C11.1488 14.8609 11.1393 14.9253 11.2196 15.0533C11.629 15.707 12.0349 16.3631 12.4299 17.0255C12.5246 17.1843 12.6019 17.1843 12.749 17.0949C13.3245 16.7451 13.9074 16.4075 14.4874 16.0651C15.5306 15.449 16.5734 14.8335 17.6156 14.216C17.671 14.1833 17.7178 14.1383 17.7682 14.0993Z" fill="#808080"/>
<path d="M2.99544 14.3977C3.05777 14.0322 3.1241 13.6732 3.17496 13.3122C3.18444 13.2438 3.15302 13.147 3.10415 13.0977C2.87576 12.8652 2.6354 12.6439 2.39853 12.4196C2.28533 12.3127 2.20554 12.1944 2.2594 12.0318C2.31425 11.8666 2.43792 11.7997 2.60947 11.7792C2.94158 11.7391 3.2737 11.6908 3.60333 11.6331C3.66815 11.6219 3.74595 11.5633 3.77736 11.5051C3.93145 11.2208 4.07407 10.9306 4.21719 10.6405C4.2895 10.4939 4.38375 10.384 4.56577 10.383C4.74778 10.382 4.84503 10.4905 4.91733 10.6365C5.06095 10.9262 5.20108 11.2179 5.35667 11.5017C5.39008 11.5628 5.47685 11.6209 5.54766 11.6331C5.88975 11.6927 6.23483 11.7347 6.57792 11.786C6.72503 11.808 6.85369 11.8837 6.86516 12.0303C6.87414 12.1436 6.84521 12.2936 6.77191 12.3737C6.54052 12.6273 6.28221 12.8578 6.02988 13.0928C5.95458 13.1627 5.93363 13.2257 5.95508 13.3307C6.0219 13.6585 6.06878 13.9897 6.12612 14.3195C6.15156 14.4646 6.11565 14.5853 5.99348 14.6747C5.86332 14.7704 5.72868 14.7587 5.59154 14.6874C5.29533 14.5335 4.99563 14.3864 4.7034 14.2257C4.60367 14.171 4.52986 14.1749 4.43262 14.2277C4.12843 14.3923 3.82174 14.5525 3.50957 14.7025C3.26373 14.8193 2.99195 14.6497 2.99544 14.3977ZM5.69477 14.276C5.6464 13.9873 5.63044 13.724 5.55414 13.4788C5.45241 13.151 5.55215 12.9292 5.81296 12.7215C6.01043 12.5642 6.17051 12.3625 6.3625 12.1646C6.03287 12.1187 5.71571 12.0713 5.39756 12.0322C5.22601 12.0112 5.10184 11.9551 5.02555 11.7831C4.8909 11.4812 4.72983 11.19 4.56776 10.8705C4.45706 11.0884 4.36181 11.2789 4.26357 11.468C3.93245 12.1045 4.12793 11.9585 3.40834 12.0728C3.1979 12.106 2.98696 12.1373 2.79198 12.1671C3.00741 12.3913 3.20089 12.6234 3.42729 12.8197C3.6113 12.979 3.6522 13.1417 3.59934 13.3679C3.53152 13.658 3.49461 13.9551 3.43976 14.278C3.77537 14.106 4.08006 13.9565 4.37727 13.7938C4.51141 13.7201 4.62361 13.7181 4.75826 13.7919C5.05497 13.9551 5.35916 14.1041 5.69477 14.276Z" fill="#808080"/>
<path d="M16.2555 2.54956C16.226 2.59597 16.1856 2.69416 16.1158 2.76451C15.8815 2.99998 15.6316 3.2203 15.4002 3.4587C15.3479 3.51292 15.3165 3.61844 15.3269 3.69368C15.3688 4.00047 15.4326 4.30481 15.484 4.61063C15.5109 4.77135 15.5159 4.9311 15.3573 5.03906C15.2033 5.1436 15.0556 5.10403 14.9036 5.02196C14.6263 4.87296 14.347 4.72543 14.0618 4.59206C13.992 4.55982 13.8803 4.55836 13.811 4.5906C13.5142 4.72934 13.226 4.88469 12.9358 5.03613C12.7877 5.11331 12.6406 5.13872 12.5004 5.02929C12.3703 4.92768 12.3458 4.79529 12.3793 4.63554C12.4416 4.33803 12.4845 4.03662 12.5418 3.73813C12.5668 3.60916 12.5473 3.51341 12.4381 3.41815C12.2017 3.21151 11.9833 2.98532 11.7544 2.77037C11.6432 2.66583 11.5784 2.54712 11.6243 2.39519C11.6721 2.2374 11.7938 2.16265 11.9549 2.14067C12.2621 2.09866 12.5688 2.05225 12.8769 2.01512C13.0216 1.99753 13.1213 1.95113 13.1851 1.80603C13.3023 1.53833 13.4484 1.28332 13.5746 1.01903C13.6479 0.865634 13.7421 0.742527 13.9286 0.740085C14.1251 0.737642 14.2209 0.869542 14.2977 1.02685C14.4253 1.29016 14.5714 1.54565 14.6876 1.81434C14.749 1.95699 14.8467 1.99705 14.9838 2.01463C15.2975 2.0542 15.6117 2.09524 15.9233 2.14653C16.1433 2.18219 16.2614 2.31605 16.2555 2.54956ZM12.7996 4.64336C13.036 4.52269 13.244 4.41571 13.4534 4.31019C14.0289 4.02098 13.8364 4.02098 14.4109 4.30726C14.6163 4.40985 14.8208 4.51439 15.0611 4.63652C14.9958 4.25743 14.929 3.92426 14.8876 3.58815C14.8761 3.49485 14.912 3.36881 14.9744 3.29993C15.1509 3.10403 15.3524 2.93012 15.5434 2.74741C15.6107 2.68342 15.6765 2.61795 15.7603 2.53686C15.3952 2.48263 15.0716 2.42206 14.745 2.39128C14.5575 2.37369 14.4567 2.29065 14.3824 2.13188C14.2448 1.83877 14.0932 1.552 13.9326 1.23251C13.7651 1.56617 13.6115 1.86368 13.4659 2.16461C13.402 2.297 13.3158 2.36783 13.1572 2.38493C12.8166 2.42206 12.4785 2.48215 12.1613 2.52953C12.3922 2.77086 12.6111 3.01903 12.8525 3.24521C12.9837 3.36783 13.0091 3.49289 12.9782 3.65362C12.9168 3.9692 12.8635 4.28625 12.7996 4.64336Z" fill="#808080"/>
<path d="M17.0641 9.48459C17.0796 9.6248 17.0626 9.74741 16.8861 9.76891C16.744 9.78601 16.6687 9.69563 16.6502 9.50706C16.6078 9.07717 16.4772 8.67414 16.2533 8.30188C16.0673 7.99216 15.8753 7.68635 15.6873 7.37809C15.5895 7.21737 15.6025 7.09573 15.7262 7.03222C15.8828 6.9521 15.971 7.0459 16.0423 7.16461C16.2757 7.5525 16.5191 7.93549 16.736 8.33217C16.9315 8.68879 17.0297 9.07961 17.0641 9.48459Z" fill="#808080"/>
<path d="M2.04833 2.44897C1.86681 2.46167 1.76658 2.41135 1.75661 2.2687C1.74663 2.12752 1.83739 2.06743 1.97403 2.04887C2.37945 1.99318 2.78488 1.93553 3.1883 1.86763C3.25263 1.85688 3.32743 1.79923 3.36134 1.74305C3.45809 1.58087 3.53588 1.40744 3.62115 1.2389C3.68648 1.10993 3.7907 1.05278 3.92535 1.12361C4.0535 1.19103 4.05201 1.30583 3.99217 1.42405C3.87947 1.64731 3.77425 1.87496 3.65058 2.09235C3.61317 2.15781 3.53089 2.22864 3.45908 2.24037C2.97587 2.32 2.49016 2.38546 2.04833 2.44897Z" fill="#808080"/>
<path d="M11.3436 18C11.3157 17.9761 11.2419 17.9385 11.204 17.8784C10.9497 17.4763 10.7023 17.0699 10.454 16.6639C10.3837 16.5486 10.3906 16.4353 10.5143 16.364C10.638 16.2926 10.7417 16.3444 10.812 16.4582C11.0624 16.8632 11.3137 17.2672 11.5585 17.6751C11.6563 17.8383 11.5675 18.002 11.3436 18Z" fill="#808080"/>
<path d="M15.5808 6.40352C15.51 6.48217 15.4671 6.56766 15.4013 6.59111C15.3424 6.61212 15.2292 6.58867 15.1908 6.54323C15.0976 6.43332 15.0168 6.30532 14.9654 6.17196C14.9435 6.11431 14.9854 6.00147 15.0372 5.95799C15.0826 5.91988 15.2198 5.91158 15.2512 5.94626C15.3704 6.07914 15.4636 6.23498 15.5808 6.40352Z" fill="#808080"/>
<path d="M3.9751 0.641914C3.98457 0.413287 4.14016 0.218856 4.26632 0.22423C4.39947 0.229604 4.47128 0.30679 4.47128 0.434293C4.47078 0.591108 4.29724 0.813385 4.18454 0.785051C4.09578 0.76209 4.02447 0.677576 3.9751 0.641914Z" fill="#808080"/>
<path d="M10.2497 16.0967C10.0876 16.0664 9.89611 15.8559 9.90509 15.7191C9.91307 15.5955 9.98438 15.5154 10.1205 15.5164C10.2412 15.5173 10.4332 15.7382 10.4048 15.872C10.3868 15.9536 10.3035 16.022 10.2497 16.0967Z" fill="#808080"/>
<path d="M12.4731 15.0767C12.4995 15.0982 12.5683 15.1319 12.6057 15.1866C12.7159 15.3473 12.8157 15.5154 12.9159 15.6829C12.9842 15.7967 12.9832 15.9081 12.8605 15.9843C12.7339 16.063 12.6351 16.0063 12.5638 15.8954C12.4556 15.7259 12.3459 15.5564 12.2482 15.3815C12.1639 15.2305 12.2636 15.0703 12.4731 15.0767Z" fill="#808080"/>
</svg>
