<svg width="17" height="19" viewBox="0 0 17 19" fill="none" xmlns="http://www.w3.org/2000/svg">
<g clip-path="url(#clip0_31_2187)">
<path d="M16.0204 4.63957C13.6761 4.51772 12.1549 2.88427 11.8948 0.960817H5.10706C4.66284 3.1688 3.30899 4.40744 1.00076 4.65115C1.00076 4.65115 0.977129 4.66882 0.976507 4.68466C0.91429 6.77323 0.862657 8.8691 1.66711 10.8559C2.03046 11.7534 2.52694 12.5996 2.9581 13.4709C3.02841 13.6129 3.14848 13.7889 3.11178 13.9102C3.06387 14.0668 2.89464 14.2757 2.75341 14.2952C2.59414 14.3172 2.32349 14.1996 2.24758 14.0643C1.7623 13.1973 1.25649 12.3328 0.87261 11.4213C0.247336 9.93776 0.017135 8.36463 0.00158087 6.76226C-0.0040186 6.09206 -0.00215211 5.42187 0.00158087 4.75594C0.00593602 4.04797 0.343149 3.7141 1.05926 3.69521C2.61467 3.65378 3.89133 2.48337 4.13709 0.872469C4.22543 0.293665 4.53403 0.00792047 5.13255 0.00609267C7.3686 -0.00203089 9.60446 -0.00203089 11.8401 0.00609267C12.4336 0.00609267 12.7615 0.302808 12.8356 0.876128C13.0639 2.62229 14.554 3.70496 16.0409 3.7013C16.5605 3.7013 16.9394 4.03396 16.9618 4.54452C17.0862 7.39346 16.8964 10.1894 15.5065 12.7891C14.0332 15.5436 11.8681 17.5743 8.98872 18.8818C8.67079 19.0262 8.36657 19.0494 8.03682 18.9025C6.43667 18.2016 4.99009 17.2042 3.77685 15.9652C3.49688 15.6789 3.52363 15.3371 3.83907 15.1799C4.09727 15.0507 4.27895 15.1799 4.47369 15.3426C5.18109 15.9323 5.8779 16.5392 6.6245 17.0778C7.10294 17.4226 7.66851 17.6493 8.18303 17.9484C8.41012 18.0806 8.59613 18.0477 8.81762 17.9423C11.7729 16.5349 13.8756 14.344 15.1258 11.3695C15.7062 9.99059 16.0081 8.51452 16.0148 7.02303C16.0242 6.23281 16.0204 5.44441 16.0204 4.63957Z" fill="#0F51AA"/>
<path d="M8.47513 13.7219C7.67876 13.7219 6.8824 13.7219 6.08603 13.7219C5.13038 13.7219 4.45969 13.0736 4.45534 12.1463C4.45036 11.2324 4.45534 10.324 4.45534 9.41256C4.45534 8.78684 4.73719 8.32075 5.28967 8.02709C5.46201 7.9357 5.48563 7.83029 5.49123 7.66823C5.51301 7.02241 5.46573 6.36196 5.59203 5.73502C5.86889 4.35808 7.25757 3.36924 8.63504 3.48074C10.2166 3.60259 11.39 4.72547 11.4796 6.21513C11.5088 6.70254 11.4995 7.18629 11.497 7.67249C11.497 7.83821 11.5331 7.93997 11.7004 8.02953C12.2529 8.32563 12.5341 8.79293 12.5323 9.41743C12.5323 10.3313 12.5354 11.2398 12.5323 12.1512C12.5291 13.0627 11.8578 13.7201 10.9302 13.7243C10.1095 13.725 9.29203 13.7219 8.47513 13.7219ZM8.48011 12.808C9.2659 12.808 10.0517 12.8111 10.8369 12.808C11.3539 12.808 11.5965 12.5643 11.5978 12.061C11.6009 11.2209 11.5978 10.3813 11.5978 9.54112C11.5978 8.99277 11.3688 8.76126 10.8126 8.76004C9.26218 8.75679 7.71174 8.75679 6.16131 8.76004C5.61816 8.76004 5.38671 8.99217 5.38485 9.51918C5.38485 10.3486 5.38485 11.1782 5.38485 12.008C5.38485 12.5893 5.61258 12.8074 6.21608 12.8086C6.97139 12.8082 7.72605 12.8076 8.48011 12.8068V12.808ZM10.5482 7.82237C10.5482 7.31486 10.555 6.83962 10.5482 6.36501C10.5375 5.9009 10.3637 5.45462 10.0559 5.10152C9.74815 4.74842 9.3254 4.51015 8.85903 4.42693C7.88161 4.26486 6.90853 4.79675 6.56945 5.69786C6.30814 6.39243 6.48671 7.11075 6.42885 7.82237H10.5482Z" fill="#0F51AA"/>
</g>
<defs>
<clipPath id="clip0_31_2187">
<rect width="17" height="19" fill="white"/>
</clipPath>
</defs>
</svg>
