<svg width="21" height="20" viewBox="0 0 21 20" fill="none" xmlns="http://www.w3.org/2000/svg">
<path d="M5.25729 20C5.04206 19.8572 4.97005 19.7156 5.0666 19.5635C5.11407 19.4887 5.21103 19.4332 5.29752 19.3998C5.36752 19.3728 5.45563 19.3901 5.53609 19.3901C9.54355 19.3901 13.5509 19.3901 17.5581 19.3901C18.4564 19.3901 19.1673 19.0566 19.6448 18.2773C19.8474 17.9439 19.9534 17.5608 19.951 17.1706C19.9562 15.4512 19.9534 13.7313 19.9534 12.0119C19.9534 11.9853 19.9478 11.9592 19.9421 11.9037H13.7676C13.4437 11.9037 13.3979 11.9371 13.2848 12.2412C13.2044 12.4536 13.1295 12.6676 13.0434 12.878C12.8825 13.2779 12.5888 13.496 12.1511 13.4964C10.9 13.498 9.64895 13.498 8.39806 13.4964C7.96036 13.4964 7.66748 13.2759 7.50737 12.8752C7.42087 12.6588 7.34403 12.4379 7.26156 12.2195C7.15777 11.9443 7.10064 11.9041 6.80133 11.9041H0.611507C0.606277 11.9805 0.599438 12.038 0.599438 12.096C0.599438 13.7618 0.599438 15.4278 0.599438 17.0942C0.601852 18.2206 1.31554 19.1294 2.39974 19.3338C2.78273 19.4058 3.18544 19.374 3.57929 19.3885C3.72653 19.3933 3.87377 19.3921 4.02182 19.3885C4.19039 19.3849 4.3493 19.3986 4.41326 19.5897C4.47964 19.7884 4.36338 19.9026 4.21211 19.9984H2.52687C2.32813 19.9473 2.12457 19.9079 1.93106 19.8431C1.36818 19.6579 0.878283 19.2995 0.531444 18.819C0.184604 18.3386 -0.00141001 17.7607 8.04793e-06 17.1682C8.04793e-06 15.3479 8.04793e-06 13.5274 8.04793e-06 11.7065C8.04793e-06 11.3847 0.0949513 11.291 0.418402 11.2902C0.797773 11.2902 1.17755 11.2902 1.57824 11.2902C1.51387 10.8424 1.45393 10.4208 1.39197 9.99957C1.20852 8.76477 1.02507 7.52956 0.841624 6.29396C0.673462 5.15826 0.50892 4.02095 0.33231 2.88606C0.238975 2.2826 0.462655 1.968 1.06732 1.89156C1.14778 1.88151 1.22542 1.86582 1.30467 1.85133C2.39934 1.67593 3.4936 1.49932 4.58867 1.32834C4.6993 1.31104 4.7347 1.26438 4.73068 1.15776C4.72464 0.996844 4.72585 0.835923 4.73068 0.675002C4.74355 0.297642 5.01631 0.00838706 5.39166 0.00557095C6.47546 -0.0020728 7.55967 0.00114562 8.64387 0.00355943C8.85347 0.00355943 8.99065 0.137526 8.98583 0.316551C8.981 0.495575 8.84583 0.607818 8.62697 0.60822C7.60955 0.60822 6.59253 0.611841 5.57551 0.606208C5.40373 0.606208 5.3293 0.637588 5.32971 0.836325C5.33587 4.25616 5.33735 7.67573 5.33413 11.095V11.2873H5.53247C5.96735 11.2873 6.40265 11.2873 6.83753 11.2873C7.33035 11.2873 7.64214 11.5034 7.81754 11.964C7.90323 12.1885 7.98611 12.4138 8.06777 12.6399C8.12973 12.8125 8.24599 12.8917 8.43226 12.8913C9.65687 12.8884 10.8815 12.8884 12.1061 12.8913C12.2996 12.8913 12.4211 12.8149 12.4863 12.633C12.5734 12.3882 12.6651 12.1446 12.7614 11.9025C12.9224 11.4965 13.2313 11.2954 13.6606 11.2889C14.1687 11.2809 14.6768 11.2889 15.2171 11.2889V11.0689C15.2171 7.66273 15.2184 4.25657 15.2211 0.850406C15.2211 0.649255 15.1547 0.605806 14.9685 0.606208C13.309 0.612243 11.6495 0.610231 9.98957 0.609427C9.73612 0.609427 9.61945 0.536208 9.5921 0.365229C9.55911 0.161262 9.69106 0.00798476 9.91756 0.00315713C10.2796 -0.0024751 10.6417 0.00114562 11.0014 0.00114562H15.0167C15.5679 0.00114562 15.8213 0.25701 15.8213 0.81259C15.8213 1.30219 15.8234 1.29535 16.2771 1.36978C17.4036 1.55081 18.53 1.73534 19.6565 1.92335C20.056 1.99053 20.2829 2.2814 20.2326 2.68008C20.1429 3.38893 20.0351 4.09578 19.9268 4.80222C19.8918 5.02872 19.7414 5.13412 19.5523 5.0951C19.3805 5.05929 19.2952 4.89918 19.3274 4.68716C19.4272 4.03382 19.5201 3.37888 19.6255 2.72634C19.6525 2.561 19.5809 2.51755 19.4409 2.49582C18.662 2.37513 17.8843 2.24841 17.1075 2.1241L15.8326 1.92013V11.2914H16.1186C16.8078 11.2914 17.4973 11.2877 18.1865 11.2946C18.3257 11.2946 18.3679 11.2447 18.3876 11.116C18.629 9.44345 18.8731 7.77135 19.1198 6.09965C19.1258 6.05942 19.1363 6.0212 19.1456 5.98217C19.1894 5.79752 19.3282 5.6897 19.4863 5.71665C19.6581 5.74562 19.7679 5.89689 19.7434 6.08758C19.6895 6.47781 19.6271 6.86684 19.5692 7.25667C19.3882 8.47913 19.2075 9.70159 19.0273 10.9241C19.0108 11.0359 18.9967 11.1481 18.977 11.2914C19.3696 11.2914 19.7482 11.2982 20.1264 11.2885C20.3086 11.2841 20.4526 11.3324 20.5544 11.4865V17.5504C20.5379 17.578 20.5245 17.6072 20.5142 17.6377C20.2941 18.748 19.6416 19.4842 18.5807 19.86C18.4009 19.924 18.2094 19.9541 18.0235 20H5.25729ZM4.7174 1.92375L3.9482 2.04685C2.99957 2.19892 2.05135 2.35341 1.10191 2.50065C0.949441 2.52439 0.903578 2.58393 0.927314 2.73801C1.05283 3.54905 1.1687 4.3617 1.28939 5.17395C1.58092 7.15435 1.87246 9.13529 2.16399 11.1168C2.1829 11.2459 2.22595 11.2958 2.36514 11.2946C3.10095 11.2881 3.83636 11.2918 4.57217 11.291C4.61723 11.291 4.66229 11.2833 4.71821 11.2785L4.7174 1.92375Z" fill="white"/>
<path d="M11.6825 3.97965C12.378 3.97965 13.0734 3.97965 13.7689 3.97965C14.0062 3.97965 14.1341 4.08707 14.1337 4.27977C14.1333 4.47247 14.0046 4.57948 13.7672 4.57989C12.3696 4.57989 10.9722 4.57989 9.57485 4.57989C9.34433 4.57989 9.20272 4.46241 9.20313 4.27816C9.20353 4.0939 9.34433 3.97965 9.57646 3.97965C10.2786 3.97911 10.9806 3.97911 11.6825 3.97965Z" fill="white"/>
<path d="M11.6816 6.30894C10.9659 6.30894 10.2507 6.30894 9.53536 6.30894C9.34306 6.30894 9.21352 6.19469 9.20789 6.02733C9.20248 5.95635 9.22279 5.88578 9.26512 5.82854C9.30744 5.77129 9.36895 5.73119 9.43841 5.71555C9.48434 5.70637 9.53133 5.70366 9.57801 5.7075H13.7704C14.0061 5.7075 14.1357 5.81773 14.1325 6.01003C14.1293 6.20233 14.0049 6.30894 13.7656 6.30935C13.0724 6.31055 12.3768 6.30935 11.6816 6.30894Z" fill="white"/>
<path d="M11.6601 2.85325C10.9581 2.85325 10.2561 2.85325 9.55405 2.85325C9.27525 2.85325 9.1087 2.60744 9.25594 2.40267C9.29052 2.36067 9.33336 2.32622 9.3818 2.30144C9.43024 2.27667 9.48325 2.2621 9.53755 2.25865C10.9617 2.2494 12.3863 2.251 13.8104 2.25302C14.0148 2.25302 14.1351 2.37371 14.1343 2.55394C14.1335 2.73417 14.0108 2.85245 13.8068 2.85325C13.0911 2.85486 12.3754 2.85325 11.6601 2.85325Z" fill="white"/>
<path d="M11.6781 8.03631C10.976 8.03631 10.274 8.03631 9.57208 8.03631C9.34075 8.03631 9.20035 7.91844 9.20317 7.73419C9.20598 7.54993 9.3488 7.43487 9.57932 7.43487C10.9769 7.43487 12.3744 7.4342 13.7717 7.43286C13.9358 7.43286 14.0678 7.48154 14.1197 7.64286C14.164 7.78045 14.1314 7.91723 13.9938 7.98844C13.9152 8.0227 13.83 8.03866 13.7444 8.03511C13.0556 8.03752 12.3669 8.03631 11.6781 8.03631Z" fill="white"/>
<path d="M11.6809 9.16135C12.3829 9.16135 13.0849 9.16135 13.787 9.16135C14.0481 9.16135 14.2058 9.36774 14.1136 9.58176C14.0493 9.73061 13.9217 9.76642 13.768 9.76642C12.5982 9.76347 11.4281 9.76347 10.258 9.76642C10.0238 9.76642 9.79008 9.76843 9.55594 9.76642C9.33951 9.7636 9.20312 9.64573 9.20312 9.46751C9.20312 9.28929 9.34393 9.16417 9.55474 9.16337C10.2624 9.16015 10.972 9.16135 11.6809 9.16135Z" fill="white"/>
<path d="M7.27593 5.70713C7.45617 5.70713 7.63801 5.70311 7.81703 5.70713C7.99606 5.71115 8.13002 5.83707 8.13405 6.00161C8.13476 6.04185 8.12733 6.08182 8.11219 6.1191C8.09705 6.15639 8.07451 6.19023 8.04594 6.21857C8.01737 6.24691 7.98336 6.26918 7.94596 6.28402C7.90855 6.29887 7.86853 6.30599 7.8283 6.30495C7.45415 6.31112 7.08015 6.31112 6.70627 6.30495C6.66769 6.30614 6.62928 6.29938 6.59341 6.28509C6.55755 6.27081 6.52501 6.2493 6.49781 6.22191C6.47061 6.19452 6.44933 6.16183 6.43529 6.12587C6.42126 6.08991 6.41476 6.05145 6.41621 6.01288C6.4134 5.83908 6.53127 5.71357 6.71513 5.70753C6.89898 5.7015 7.08927 5.70753 7.27593 5.70713Z" fill="white"/>
<path d="M7.27348 2.85265C7.09325 2.85265 6.91141 2.85627 6.73279 2.85265C6.53445 2.84742 6.41095 2.72431 6.41618 2.54368C6.41939 2.37069 6.53687 2.25523 6.72796 2.25322C7.08842 2.24893 7.44902 2.24893 7.80975 2.25322C8.00648 2.25563 8.13883 2.38718 8.13159 2.55937C8.12636 2.72351 7.99682 2.84702 7.81257 2.85225C7.62831 2.85748 7.45371 2.85265 7.27348 2.85265Z" fill="white"/>
<path d="M7.28097 3.97953C7.4612 3.97953 7.64304 3.97591 7.82166 3.97953C8.00029 3.98315 8.13425 4.1131 8.13465 4.27724C8.13435 4.31748 8.12602 4.35726 8.11014 4.39425C8.09427 4.43123 8.07118 4.46468 8.04222 4.49263C8.01326 4.52058 7.97901 4.54247 7.94148 4.55702C7.90396 4.57156 7.86391 4.57848 7.82368 4.57735C7.45624 4.58272 7.08907 4.58272 6.72217 4.57735C6.5347 4.57494 6.41682 4.45264 6.41602 4.27925C6.41522 4.10586 6.53309 3.98476 6.72016 3.97953C6.90723 3.9743 7.0939 3.97993 7.28097 3.97953Z" fill="white"/>
<path d="M7.27395 8.03566C7.08728 8.03566 6.89981 8.04008 6.71314 8.03566C6.53452 8.03043 6.42228 7.91738 6.41624 7.75123C6.41021 7.57623 6.52446 7.44226 6.70751 7.43824C7.08125 7.431 7.45539 7.4318 7.82913 7.43824C7.86944 7.43802 7.90938 7.44586 7.94662 7.46129C7.98386 7.47672 8.01763 7.49944 8.04597 7.52811C8.0743 7.55678 8.09662 7.59083 8.11161 7.62825C8.1266 7.66566 8.13397 7.7057 8.13327 7.746C8.12884 7.91175 8.00172 8.03164 7.81505 8.03646C7.63482 8.03928 7.45418 8.03566 7.27395 8.03566Z" fill="white"/>
<path d="M7.27229 9.76417C7.08562 9.76417 6.89855 9.7694 6.71188 9.76417C6.52521 9.75894 6.42142 9.64348 6.41619 9.47813C6.41096 9.30353 6.52481 9.16957 6.70906 9.16554C7.08294 9.15803 7.45681 9.15803 7.83068 9.16554C7.87096 9.1657 7.91081 9.17387 7.9479 9.18958C7.98499 9.2053 8.01857 9.22825 8.0467 9.25708C8.07482 9.28592 8.09692 9.32007 8.11171 9.35754C8.12649 9.39501 8.13367 9.43505 8.13281 9.47532C8.13081 9.55314 8.09823 9.62705 8.04214 9.68104C7.98604 9.73502 7.91094 9.76475 7.8331 9.76377C7.64764 9.7698 7.45936 9.76417 7.27229 9.76417Z" fill="white"/>
<path d="M10.2722 14.3819H13.6234C14.0257 14.3819 14.2337 14.581 14.2377 14.9797C14.2426 15.4214 14.2426 15.863 14.2377 16.3045C14.2329 16.6907 14.0213 16.9031 13.6387 16.9035C11.3979 16.9054 9.15692 16.9054 6.91583 16.9035C6.53043 16.9035 6.31721 16.6931 6.31238 16.3093C6.30675 15.8668 6.30795 15.4262 6.31238 14.9845C6.316 14.5822 6.52158 14.3811 6.92146 14.3811C8.03825 14.3803 9.15518 14.3805 10.2722 14.3819ZM13.6113 14.9962H6.94077V16.2779H13.6097L13.6113 14.9962Z" fill="white"/>
<path d="M10.2768 18.473C9.54814 18.473 8.81957 18.473 8.09113 18.473C8.01826 18.476 7.94546 18.4656 7.8763 18.4425C7.7359 18.3861 7.67515 18.2711 7.69808 18.1206C7.70364 18.0565 7.73184 17.9965 7.77762 17.9513C7.82339 17.9061 7.88376 17.8787 7.94791 17.874C8.00778 17.8679 8.06798 17.8656 8.12814 17.8672H12.4195C12.4465 17.8672 12.473 17.8672 12.5 17.8672C12.7341 17.8732 12.8644 17.9858 12.8592 18.1765C12.854 18.356 12.7196 18.471 12.5028 18.473C12.2155 18.4759 11.9279 18.473 11.6406 18.473H10.2768Z" fill="white"/>
</svg>
