<svg width="18" height="18" viewBox="0 0 18 18" fill="none" xmlns="http://www.w3.org/2000/svg">
<path fill-rule="evenodd" clip-rule="evenodd" d="M5.81348 0.5H12.1885C15.122 0.5 17.501 2.87894 17.501 5.8125V12.1875C17.501 15.1211 15.122 17.5 12.1885 17.5H5.81348C2.87991 17.5 0.500977 15.1211 0.500977 12.1875V5.8125C0.500977 2.87894 2.87991 0.5 5.81348 0.5ZM12.1885 15.9062C14.2391 15.9062 15.9072 14.2381 15.9072 12.1875V5.8125C15.9072 3.76187 14.2391 2.09375 12.1885 2.09375H5.81348C3.76285 2.09375 2.09473 3.76187 2.09473 5.8125V12.1875C2.09473 14.2381 3.76285 15.9062 5.81348 15.9062H12.1885ZM4.75098 9C4.75098 6.65294 6.65391 4.75 9.00098 4.75C11.348 4.75 13.251 6.65294 13.251 9C13.251 11.3471 11.348 13.25 9.00098 13.25C6.65391 13.25 4.75098 11.3471 4.75098 9ZM6.34473 9C6.34473 10.4641 7.53685 11.6562 9.00098 11.6562C10.4651 11.6562 11.6572 10.4641 11.6572 9C11.6572 7.53481 10.4651 6.34375 9.00098 6.34375C7.53685 6.34375 6.34473 7.53481 6.34473 9ZM13.6051 5.4585C14.1919 5.4585 14.6676 4.9828 14.6676 4.396C14.6676 3.80919 14.1919 3.3335 13.6051 3.3335C13.0183 3.3335 12.5426 3.80919 12.5426 4.396C12.5426 4.9828 13.0183 5.4585 13.6051 5.4585Z" fill="white" fill-opacity="0.7"/>
</svg>
