<svg width="22" height="20" viewBox="0 0 22 20" fill="none" xmlns="http://www.w3.org/2000/svg">
<path d="M21.071 17.5008H2.64244V0.786551C2.64244 0.668694 2.54601 0.572266 2.42815 0.572266H0.928153C0.810296 0.572266 0.713867 0.668694 0.713867 0.786551V19.2151C0.713867 19.333 0.810296 19.4294 0.928153 19.4294H21.071C21.1889 19.4294 21.2853 19.333 21.2853 19.2151V17.7151C21.2853 17.5973 21.1889 17.5008 21.071 17.5008ZM5.47637 13.3678C5.5594 13.4508 5.69333 13.4508 5.77905 13.3678L9.48351 9.68209L12.9014 13.1214C12.9844 13.2044 13.121 13.2044 13.204 13.1214L20.5808 5.74727C20.6639 5.66423 20.6639 5.52762 20.5808 5.44459L19.5201 4.38387C19.4798 4.34399 19.4255 4.32162 19.3688 4.32162C19.3121 4.32162 19.2577 4.34399 19.2174 4.38387L13.0567 10.5419L9.64423 7.10798C9.60395 7.0681 9.54956 7.04573 9.49289 7.04573C9.43621 7.04573 9.38182 7.0681 9.34155 7.10798L4.41833 12.0017C4.37845 12.042 4.35608 12.0964 4.35608 12.1531C4.35608 12.2097 4.37845 12.2641 4.41833 12.3044L5.47637 13.3678Z" fill="#0F51AA"/>
</svg>
