<svg width="100" height="2" viewBox="0 0 100 2" fill="none" xmlns="http://www.w3.org/2000/svg">
<g clip-path="url(#clip0_140_12222)">
<rect width="100" height="2" fill="#f7fbff"/>
<path d="M99.2642 -1H96.1893V1H99.2642V-1ZM90.0396 -1H83.8899V1H90.0396V-1ZM77.7402 -1H71.5906V1H77.7402V-1ZM65.4409 -1H59.2912V1H65.4409V-1ZM53.1415 -1H46.9918V1H53.1415V-1ZM40.8421 -1H34.6924V1H40.8421V-1ZM28.5427 -1H22.3931V1H28.5427V-1ZM16.2434 -1H10.0937V1H16.2434V-1ZM3.94398 -1H0.869141V1H3.94398V-1ZM99.2642 -2H96.1893V2H99.2642V-2ZM90.0396 -2H83.8899V2H90.0396V-2ZM77.7402 -2H71.5906V2H77.7402V-2ZM65.4409 -2H59.2912V2H65.4409V-2ZM53.1415 -2H46.9918V2H53.1415V-2ZM40.8421 -2H34.6924V2H40.8421V-2ZM28.5427 -2H22.3931V2H28.5427V-2ZM16.2434 -2H10.0937V2H16.2434V-2ZM3.94398 -2H0.869141V2H3.94398V-2Z" fill="#0F51AA"/>
</g>
<defs>
<clipPath id="clip0_140_12222">
<rect width="100" height="2" fill="#f7fbff"/>
</clipPath>
</defs>
</svg>
