<svg width="13" height="18" viewBox="0 0 13 18" fill="none" xmlns="http://www.w3.org/2000/svg">
<path d="M6.52718 4.65625C7.07972 4.65625 7.60962 4.87574 8.00032 5.26644C8.39102 5.65715 8.61051 6.18705 8.61051 6.73958C8.61051 7.01317 8.55663 7.28408 8.45193 7.53684C8.34723 7.7896 8.19378 8.01927 8.00032 8.21272C7.80687 8.40618 7.5772 8.55964 7.32444 8.66433C7.07168 8.76903 6.80077 8.82292 6.52718 8.82292C5.97465 8.82292 5.44474 8.60342 5.05404 8.21272C4.66334 7.82202 4.44385 7.29212 4.44385 6.73958C4.44385 6.18705 4.66334 5.65715 5.05404 5.26644C5.44474 4.87574 5.97465 4.65625 6.52718 4.65625ZM6.52718 0.90625C8.07428 0.90625 9.55801 1.52083 10.652 2.61479C11.7459 3.70876 12.3605 5.19249 12.3605 6.73958C12.3605 11.1146 6.52718 17.5729 6.52718 17.5729C6.52718 17.5729 0.693848 11.1146 0.693848 6.73958C0.693848 5.19249 1.30843 3.70876 2.40239 2.61479C3.49635 1.52083 4.98008 0.90625 6.52718 0.90625ZM6.52718 2.57292C5.42211 2.57292 4.3623 3.0119 3.5809 3.7933C2.7995 4.57471 2.36051 5.63451 2.36051 6.73958C2.36051 7.57292 2.36051 9.23958 6.52718 14.8312C10.6938 9.23958 10.6938 7.57292 10.6938 6.73958C10.6938 5.63451 10.2549 4.57471 9.47346 3.7933C8.69206 3.0119 7.63225 2.57292 6.52718 2.57292Z" fill="#0F51AA"/>
</svg>
