<svg width="24" height="25" viewBox="0 0 24 25" fill="none" xmlns="http://www.w3.org/2000/svg">
<path d="M5.84977 3.83967C5.97495 3.69049 6.0372 3.49846 6.02334 3.3042C6.00947 3.10994 5.92059 2.9287 5.77549 2.7988C5.6304 2.6689 5.44046 2.60053 5.24586 2.60816C5.05126 2.61579 4.86725 2.69881 4.73277 2.83967C3.50424 4.20992 2.69 5.90082 2.38477 7.71567C2.35654 7.90973 2.40543 8.10713 2.52098 8.26557C2.63652 8.42401 2.80953 8.5309 3.00293 8.56333C3.19633 8.59576 3.39474 8.55115 3.55564 8.43907C3.71655 8.32698 3.82716 8.15633 3.86377 7.96367C4.12191 6.42868 4.81062 4.99855 5.84977 3.83967ZM19.2668 2.83967C19.2013 2.76561 19.1218 2.70522 19.0329 2.66198C18.944 2.61874 18.8474 2.5935 18.7488 2.58771C18.6501 2.58193 18.5512 2.59571 18.4579 2.62826C18.3645 2.66082 18.2785 2.71151 18.2049 2.77742C18.1312 2.84332 18.0712 2.92315 18.0285 3.0123C17.9858 3.10145 17.9611 3.19816 17.9559 3.29688C17.9507 3.3956 17.9651 3.49438 17.9981 3.58753C18.0312 3.68069 18.0824 3.76638 18.1488 3.83967C19.1882 4.99846 19.8773 6.42859 20.1358 7.96367C20.1687 8.15993 20.2782 8.33509 20.4402 8.45061C20.5204 8.50782 20.6111 8.54865 20.7071 8.5708C20.8032 8.59294 20.9026 8.59596 20.9998 8.57967C21.0969 8.56339 21.19 8.52813 21.2735 8.47589C21.3571 8.42366 21.4295 8.35548 21.4867 8.27525C21.5439 8.19502 21.5848 8.10431 21.6069 8.0083C21.629 7.91229 21.6321 7.81285 21.6158 7.71567C21.3099 5.90062 20.495 4.20972 19.2658 2.83967H19.2668Z" fill="white"/>
<path fill-rule="evenodd" clip-rule="evenodd" d="M11.9994 2.5896C10.2092 2.5896 8.49233 3.30076 7.22646 4.56663C5.96059 5.8325 5.24943 7.54939 5.24943 9.3396V10.0896C5.25251 12.1288 4.49723 14.0963 3.13043 15.6096C3.04835 15.7007 2.98984 15.8104 2.96002 15.9294C2.9302 16.0483 2.92999 16.1727 2.9594 16.2917C2.98881 16.4107 3.04694 16.5207 3.12871 16.612C3.21047 16.7034 3.31338 16.7733 3.42843 16.8156C4.97243 17.3856 6.58843 17.8056 8.25943 18.0586C8.22181 18.5727 8.29059 19.0891 8.4615 19.5755C8.6324 20.0618 8.90175 20.5077 9.25272 20.8853C9.60369 21.2629 10.0287 21.5641 10.5013 21.77C10.9739 21.976 11.4839 22.0823 11.9994 22.0823C12.5149 22.0823 13.0249 21.976 13.4975 21.77C13.9701 21.5641 14.3952 21.2629 14.7461 20.8853C15.0971 20.5077 15.3665 20.0618 15.5374 19.5755C15.7083 19.0891 15.7771 18.5727 15.7394 18.0586C17.3874 17.8088 19.0058 17.3919 20.5694 16.8146C20.6843 16.7722 20.787 16.7023 20.8687 16.611C20.9503 16.5198 21.0084 16.4099 21.0377 16.2911C21.0671 16.1722 21.067 16.048 21.0373 15.9292C21.0076 15.8104 20.9493 15.7007 20.8674 15.6096C19.501 14.0961 18.7461 12.1287 18.7494 10.0896V9.3396C18.7494 7.54939 18.0383 5.8325 16.7724 4.56663C15.5065 3.30076 13.7896 2.5896 11.9994 2.5896ZM9.74943 18.3396C9.74943 18.3056 9.74943 18.2726 9.75143 18.2396C11.2471 18.3744 12.7518 18.3744 14.2474 18.2396L14.2494 18.3396C14.2494 18.9363 14.0124 19.5086 13.5904 19.9306C13.1685 20.3525 12.5962 20.5896 11.9994 20.5896C11.4027 20.5896 10.8304 20.3525 10.4084 19.9306C9.98648 19.5086 9.74943 18.9363 9.74943 18.3396Z" fill="white"/>
</svg>
