<svg width="40" height="40" viewBox="0 0 40 40" fill="none" xmlns="http://www.w3.org/2000/svg">
<g clip-path="url(#clip0_159_24008)">
<g clip-path="url(#clip1_159_24008)">
<g filter="url(#filter0_dddd_159_24008)">
<path d="M40 20.0264C40 8.98067 31.0457 0.0263672 20 0.0263672C8.9543 0.0263672 0 8.98067 0 20.0264C0 31.0721 8.9543 40.0264 20 40.0264C31.0457 40.0264 40 31.0721 40 20.0264Z" fill="white"/>
<path d="M25.3 26.0264C23.8667 26.0264 22.4696 25.7097 21.1087 25.0764C19.7473 24.443 18.5418 23.5986 17.492 22.543C16.4418 21.4875 15.5973 20.279 14.9587 18.9177C14.3196 17.5568 14 16.1597 14 14.7264V14.3764C14 14.2541 14.0111 14.1375 14.0333 14.0264H17.9333L18.55 17.3764L16.65 19.293C17.1167 20.093 17.7029 20.843 18.4087 21.543C19.114 22.243 19.8889 22.8486 20.7333 23.3597L22.6667 21.4264L26 22.093V25.993C25.8889 26.0041 25.7722 26.0126 25.65 26.0184C25.5278 26.0237 25.4111 26.0264 25.3 26.0264Z" fill="#0F51AA"/>
</g>
</g>
</g>
<defs>
<filter id="filter0_dddd_159_24008" x="-25.4814" y="-1.26992" width="90.9628" height="105.296" filterUnits="userSpaceOnUse" color-interpolation-filters="sRGB">
<feFlood flood-opacity="0" result="BackgroundImageFix"/>
<feColorMatrix in="SourceAlpha" type="matrix" values="0 0 0 0 0 0 0 0 0 0 0 0 0 0 0 0 0 0 127 0" result="hardAlpha"/>
<feOffset dy="1.85185"/>
<feGaussianBlur stdDeviation="1.57407"/>
<feColorMatrix type="matrix" values="0 0 0 0 0 0 0 0 0 0 0 0 0 0 0 0 0 0 0.01 0"/>
<feBlend mode="normal" in2="BackgroundImageFix" result="effect1_dropShadow_159_24008"/>
<feColorMatrix in="SourceAlpha" type="matrix" values="0 0 0 0 0 0 0 0 0 0 0 0 0 0 0 0 0 0 127 0" result="hardAlpha"/>
<feOffset dy="8.14815"/>
<feGaussianBlur stdDeviation="3.25926"/>
<feColorMatrix type="matrix" values="0 0 0 0 0 0 0 0 0 0 0 0 0 0 0 0 0 0 0.0117778 0"/>
<feBlend mode="normal" in2="effect1_dropShadow_159_24008" result="effect2_dropShadow_159_24008"/>
<feColorMatrix in="SourceAlpha" type="matrix" values="0 0 0 0 0 0 0 0 0 0 0 0 0 0 0 0 0 0 127 0" result="hardAlpha"/>
<feOffset dy="20"/>
<feGaussianBlur stdDeviation="6.5"/>
<feColorMatrix type="matrix" values="0 0 0 0 0 0 0 0 0 0 0 0 0 0 0 0 0 0 0.015 0"/>
<feBlend mode="normal" in2="effect2_dropShadow_159_24008" result="effect3_dropShadow_159_24008"/>
<feColorMatrix in="SourceAlpha" type="matrix" values="0 0 0 0 0 0 0 0 0 0 0 0 0 0 0 0 0 0 127 0" result="hardAlpha"/>
<feOffset dy="38.5185"/>
<feGaussianBlur stdDeviation="12.7407"/>
<feColorMatrix type="matrix" values="0 0 0 0 0 0 0 0 0 0 0 0 0 0 0 0 0 0 0.0182222 0"/>
<feBlend mode="normal" in2="effect3_dropShadow_159_24008" result="effect4_dropShadow_159_24008"/>
<feBlend mode="normal" in="SourceGraphic" in2="effect4_dropShadow_159_24008" result="shape"/>
</filter>
<clipPath id="clip0_159_24008">
<rect width="40" height="40" fill="white"/>
</clipPath>
<clipPath id="clip1_159_24008">
<rect width="92" height="107" fill="white" transform="translate(-26 -2)"/>
</clipPath>
</defs>
</svg>
