<svg width="21" height="20" viewBox="0 0 21 20" fill="none" xmlns="http://www.w3.org/2000/svg">
<path d="M8.63062 17.105C10.5282 17.1046 12.3711 16.4694 13.8658 15.3004L18.5654 20L20.0771 18.4883L15.3775 13.7888C16.547 12.2938 17.1827 10.4505 17.1831 8.55249C17.1831 3.83686 13.3462 0 8.63062 0C3.91499 0 0.078125 3.83686 0.078125 8.55249C0.078125 13.2681 3.91499 17.105 8.63062 17.105ZM8.63062 2.13812C12.1681 2.13812 15.045 5.01497 15.045 8.55249C15.045 12.09 12.1681 14.9669 8.63062 14.9669C5.09309 14.9669 2.21625 12.09 2.21625 8.55249C2.21625 5.01497 5.09309 2.13812 8.63062 2.13812Z" fill="#C4CACD"/>
</svg>
