<svg width="13" height="16" viewBox="0 0 13 16" fill="none" xmlns="http://www.w3.org/2000/svg">
<path d="M10.8103 1.80099C9.75708 0.774394 8.29949 0.208984 6.70609 0.208984C4.2721 0.208984 2.77508 1.222 1.94786 2.07177C0.928363 3.11901 0.34375 4.50953 0.34375 5.88688C0.34375 7.61623 1.05618 8.94357 2.24925 9.43737C2.32934 9.4707 2.40993 9.48748 2.48894 9.48748C2.74063 9.48748 2.94006 9.32027 3.00915 9.05205C3.04942 8.89817 3.14275 8.51856 3.18331 8.35376C3.27017 8.02831 3.19999 7.87178 3.01058 7.64514C2.66552 7.2306 2.50483 6.74041 2.50483 6.10244C2.50483 4.20749 3.89456 2.19353 6.47029 2.19353C8.51402 2.19353 9.78358 3.3729 9.78358 5.27136C9.78358 6.46938 9.52942 7.57885 9.06779 8.39555C8.74701 8.96301 8.18292 9.63946 7.31696 9.63946C6.94248 9.63946 6.60611 9.48327 6.39385 9.21099C6.19333 8.95359 6.12725 8.62108 6.20789 8.27454C6.299 7.883 6.42321 7.47458 6.54343 7.07973C6.7627 6.35859 6.96997 5.67748 6.96997 5.13407C6.96997 4.20458 6.40717 3.58005 5.56964 3.58005C4.50523 3.58005 3.67135 4.67769 3.67135 6.07894C3.67135 6.76616 3.85123 7.28016 3.93266 7.47753C3.79857 8.05437 3.00165 11.4838 2.85049 12.1304C2.76309 12.5079 2.23656 15.4896 3.10805 15.7273C4.08723 15.9944 4.96247 13.0905 5.05155 12.7624C5.12375 12.4955 5.37638 11.4864 5.53119 10.8661C6.00388 11.3284 6.76497 11.6409 7.50553 11.6409C8.90162 11.6409 10.1572 11.003 11.0409 9.8449C11.898 8.72159 12.37 7.15594 12.37 5.43657C12.37 4.09239 11.8015 2.76726 10.8103 1.80099Z" fill="white" fill-opacity="0.7"/>
</svg>
