<svg width="16" height="14" viewBox="0 0 16 14" fill="none" xmlns="http://www.w3.org/2000/svg">
<path d="M15.7933 2.1344C15.2201 2.39029 14.6035 2.56336 13.9569 2.64066C14.6171 2.24242 15.1238 1.61231 15.3629 0.860244C14.7452 1.22919 14.0606 1.49684 13.3327 1.64111C12.7495 1.01579 11.9186 0.625 10.9985 0.625C9.23312 0.625 7.80135 2.06647 7.80135 3.84377C7.80135 4.09605 7.82972 4.34162 7.88456 4.57734C5.22749 4.44316 2.87156 3.1618 1.29458 1.21383C1.01943 1.68912 0.861591 2.24242 0.861591 2.83222C0.861591 3.94867 1.42643 4.93429 2.28383 5.51136C1.76 5.4948 1.26668 5.35005 0.835841 5.10832C0.835602 5.12201 0.835602 5.13569 0.835602 5.14913C0.835602 6.70871 1.9381 8.00951 3.4004 8.30501C3.1324 8.37894 2.84939 8.41807 2.55826 8.41807C2.35178 8.41807 2.15174 8.39814 1.9567 8.3607C2.36346 9.63918 3.54393 10.5698 4.94328 10.596C3.84889 11.4594 2.47052 11.9739 0.972223 11.9739C0.714718 11.9739 0.459598 11.9587 0.209961 11.9287C1.62409 12.8423 3.30503 13.375 5.11042 13.375C10.9911 13.375 14.207 8.4704 14.207 4.21656C14.207 4.07709 14.2039 3.9381 14.1977 3.80032C14.8229 3.34663 15.3648 2.77989 15.7933 2.1344V2.1344Z" fill="white" fill-opacity="0.7"/>
</svg>
